<svg aria-roledescription="flowchart-v2" role="graphics-document document" viewBox="0 0 2819.095703125 859" style="max-width: 2819.1px; background-color: white;" class="flowchart" xmlns:xlink="http://www.w3.org/1999/xlink" xmlns="http://www.w3.org/2000/svg" width="100%" id="my-svg"><style>#my-svg{font-family:"trebuchet ms",verdana,arial,sans-serif;font-size:16px;fill:#333;}@keyframes edge-animation-frame{from{stroke-dashoffset:0;}}@keyframes dash{to{stroke-dashoffset:0;}}#my-svg .edge-animation-slow{stroke-dasharray:9,5!important;stroke-dashoffset:900;animation:dash 50s linear infinite;stroke-linecap:round;}#my-svg .edge-animation-fast{stroke-dasharray:9,5!important;stroke-dashoffset:900;animation:dash 20s linear infinite;stroke-linecap:round;}#my-svg .error-icon{fill:#552222;}#my-svg .error-text{fill:#552222;stroke:#552222;}#my-svg .edge-thickness-normal{stroke-width:1px;}#my-svg .edge-thickness-thick{stroke-width:3.5px;}#my-svg .edge-pattern-solid{stroke-dasharray:0;}#my-svg .edge-thickness-invisible{stroke-width:0;fill:none;}#my-svg .edge-pattern-dashed{stroke-dasharray:3;}#my-svg .edge-pattern-dotted{stroke-dasharray:2;}#my-svg .marker{fill:#333333;stroke:#333333;}#my-svg .marker.cross{stroke:#333333;}#my-svg svg{font-family:"trebuchet ms",verdana,arial,sans-serif;font-size:16px;}#my-svg p{margin:0;}#my-svg .label{font-family:"trebuchet ms",verdana,arial,sans-serif;color:#333;}#my-svg .cluster-label text{fill:#333;}#my-svg .cluster-label span{color:#333;}#my-svg .cluster-label span p{background-color:transparent;}#my-svg .label text,#my-svg span{fill:#333;color:#333;}#my-svg .node rect,#my-svg .node circle,#my-svg .node ellipse,#my-svg .node polygon,#my-svg .node path{fill:#ECECFF;stroke:#9370DB;stroke-width:1px;}#my-svg .rough-node .label text,#my-svg .node .label text,#my-svg .image-shape .label,#my-svg .icon-shape .label{text-anchor:middle;}#my-svg .node .katex path{fill:#000;stroke:#000;stroke-width:1px;}#my-svg .rough-node .label,#my-svg .node .label,#my-svg .image-shape .label,#my-svg .icon-shape .label{text-align:center;}#my-svg .node.clickable{cursor:pointer;}#my-svg .root .anchor path{fill:#333333!important;stroke-width:0;stroke:#333333;}#my-svg .arrowheadPath{fill:#333333;}#my-svg .edgePath .path{stroke:#333333;stroke-width:2.0px;}#my-svg .flowchart-link{stroke:#333333;fill:none;}#my-svg .edgeLabel{background-color:rgba(232,232,232, 0.8);text-align:center;}#my-svg .edgeLabel p{background-color:rgba(232,232,232, 0.8);}#my-svg .edgeLabel rect{opacity:0.5;background-color:rgba(232,232,232, 0.8);fill:rgba(232,232,232, 0.8);}#my-svg .labelBkg{background-color:rgba(232, 232, 232, 0.5);}#my-svg .cluster rect{fill:#ffffde;stroke:#aaaa33;stroke-width:1px;}#my-svg .cluster text{fill:#333;}#my-svg .cluster span{color:#333;}#my-svg div.mermaidTooltip{position:absolute;text-align:center;max-width:200px;padding:2px;font-family:"trebuchet ms",verdana,arial,sans-serif;font-size:12px;background:hsl(80, 100%, 96.2745098039%);border:1px solid #aaaa33;border-radius:2px;pointer-events:none;z-index:100;}#my-svg .flowchartTitleText{text-anchor:middle;font-size:18px;fill:#333;}#my-svg rect.text{fill:none;stroke-width:0;}#my-svg .icon-shape,#my-svg .image-shape{background-color:rgba(232,232,232, 0.8);text-align:center;}#my-svg .icon-shape p,#my-svg .image-shape p{background-color:rgba(232,232,232, 0.8);padding:2px;}#my-svg .icon-shape rect,#my-svg .image-shape rect{opacity:0.5;background-color:rgba(232,232,232, 0.8);fill:rgba(232,232,232, 0.8);}#my-svg .label-icon{display:inline-block;height:1em;overflow:visible;vertical-align:-0.125em;}#my-svg .node .label-icon path{fill:currentColor;stroke:revert;stroke-width:revert;}#my-svg :root{--mermaid-font-family:"trebuchet ms",verdana,arial,sans-serif;}</style><g><marker orient="auto" markerHeight="8" markerWidth="8" markerUnits="userSpaceOnUse" refY="5" refX="5" viewBox="0 0 10 10" class="marker flowchart-v2" id="my-svg_flowchart-v2-pointEnd"><path style="stroke-width: 1; stroke-dasharray: 1, 0;" class="arrowMarkerPath" d="M 0 0 L 10 5 L 0 10 z"/></marker><marker orient="auto" markerHeight="8" markerWidth="8" markerUnits="userSpaceOnUse" refY="5" refX="4.5" viewBox="0 0 10 10" class="marker flowchart-v2" id="my-svg_flowchart-v2-pointStart"><path style="stroke-width: 1; stroke-dasharray: 1, 0;" class="arrowMarkerPath" d="M 0 5 L 10 10 L 10 0 z"/></marker><marker orient="auto" markerHeight="11" markerWidth="11" markerUnits="userSpaceOnUse" refY="5" refX="11" viewBox="0 0 10 10" class="marker flowchart-v2" id="my-svg_flowchart-v2-circleEnd"><circle style="stroke-width: 1; stroke-dasharray: 1, 0;" class="arrowMarkerPath" r="5" cy="5" cx="5"/></marker><marker orient="auto" markerHeight="11" markerWidth="11" markerUnits="userSpaceOnUse" refY="5" refX="-1" viewBox="0 0 10 10" class="marker flowchart-v2" id="my-svg_flowchart-v2-circleStart"><circle style="stroke-width: 1; stroke-dasharray: 1, 0;" class="arrowMarkerPath" r="5" cy="5" cx="5"/></marker><marker orient="auto" markerHeight="11" markerWidth="11" markerUnits="userSpaceOnUse" refY="5.2" refX="12" viewBox="0 0 11 11" class="marker cross flowchart-v2" id="my-svg_flowchart-v2-crossEnd"><path style="stroke-width: 2; stroke-dasharray: 1, 0;" class="arrowMarkerPath" d="M 1,1 l 9,9 M 10,1 l -9,9"/></marker><marker orient="auto" markerHeight="11" markerWidth="11" markerUnits="userSpaceOnUse" refY="5.2" refX="-1" viewBox="0 0 11 11" class="marker cross flowchart-v2" id="my-svg_flowchart-v2-crossStart"><path style="stroke-width: 2; stroke-dasharray: 1, 0;" class="arrowMarkerPath" d="M 1,1 l 9,9 M 10,1 l -9,9"/></marker><g class="root"><g class="clusters"><g data-look="classic" id="外部サービス" class="cluster"><rect height="99" width="810.2734375" y="628" x="8" style=""/><g transform="translate(365.13671875, 628)" class="cluster-label"><g><rect style="stroke: none" class="background"/><text style="" y="-10.1"><tspan dy="1.1em" y="-0.1em" x="0" class="text-outer-tspan"><tspan font-weight="normal" class="text-inner-tspan" font-style="normal">外部サービス</tspan></tspan></text></g></g></g><g data-look="classic" id="データ層" class="cluster"><rect height="223" width="651.25" y="628" x="838.2734375" style=""/><g transform="translate(1131.8984375, 628)" class="cluster-label"><g><rect style="stroke: none" class="background"/><text style="" y="-10.1"><tspan dy="1.1em" y="-0.1em" x="0" class="text-outer-tspan"><tspan font-weight="normal" class="text-inner-tspan" font-style="normal">データ層</tspan></tspan></text></g></g></g><g data-look="classic" id="アプリケーション層" class="cluster"><rect height="223" width="666.931640625" y="504" x="1509.5234375" style=""/><g transform="translate(1771.1455078125, 504)" class="cluster-label"><g><rect style="stroke: none" class="background"/><text style="" y="-10.1"><tspan dy="1.1em" y="-0.1em" x="0" class="text-outer-tspan"><tspan font-weight="normal" class="text-inner-tspan" font-style="normal">アプリケーション層</tspan></tspan></text></g></g></g><g data-look="classic" id="Web層" class="cluster"><rect height="99" width="646.501953125" y="355" x="1517.02734375" style=""/><g transform="translate(1816.5048828125, 355)" class="cluster-label"><g><rect style="stroke: none" class="background"/><text style="" y="-10.1"><tspan dy="1.1em" y="-0.1em" x="0" class="text-outer-tspan"><tspan font-weight="normal" class="text-inner-tspan" font-style="normal">Web層</tspan></tspan></text></g></g></g><g data-look="classic" id="DMZ" class="cluster"><rect height="198" width="481.486328125" y="107" x="1589.53515625" style=""/><g transform="translate(1815.1962890625, 107)" class="cluster-label"><g><rect style="stroke: none" class="background"/><text style="" y="-10.1"><tspan dy="1.1em" y="-0.1em" x="0" class="text-outer-tspan"><tspan font-weight="normal" class="text-inner-tspan" font-style="normal">DMZ</tspan></tspan></text></g></g></g><g data-look="classic" id="外部システム" class="cluster"><rect height="99" width="614.640625" y="628" x="2196.455078125" style=""/><g transform="translate(2456.009765625, 628)" class="cluster-label"><g><rect style="stroke: none" class="background"/><text style="" y="-10.1"><tspan dy="1.1em" y="-0.1em" x="0" class="text-outer-tspan"><tspan font-weight="normal" class="text-inner-tspan" font-style="normal">外部システム</tspan></tspan></text></g></g></g></g><g class="edgePaths"><path marker-end="url(#my-svg_flowchart-v2-pointEnd)" style="" class="edge-thickness-normal edge-pattern-solid edge-thickness-normal edge-pattern-solid flowchart-link" id="L_Internet_WAF_0" d="M1834.551,57L1834.551,61.167C1834.551,65.333,1834.551,73.667,1834.551,82C1834.551,90.333,1834.551,98.667,1834.551,106.333C1834.551,114,1834.551,121,1834.551,124.5L1834.551,128"/><path marker-end="url(#my-svg_flowchart-v2-pointEnd)" style="" class="edge-thickness-normal edge-pattern-solid edge-thickness-normal edge-pattern-solid flowchart-link" id="L_WAF_LB_0" d="M1834.551,181L1834.551,185.167C1834.551,189.333,1834.551,197.667,1834.551,205.333C1834.551,213,1834.551,220,1834.551,223.5L1834.551,227"/><path marker-end="url(#my-svg_flowchart-v2-pointEnd)" style="" class="edge-thickness-normal edge-pattern-solid edge-thickness-normal edge-pattern-solid flowchart-link" id="L_LB_WEB1_0" d="M1753.645,275.034L1732.96,280.029C1712.275,285.023,1670.905,295.011,1650.22,304.172C1629.535,313.333,1629.535,321.667,1629.535,330C1629.535,338.333,1629.535,346.667,1629.535,354.333C1629.535,362,1629.535,369,1629.535,372.5L1629.535,376"/><path marker-end="url(#my-svg_flowchart-v2-pointEnd)" style="" class="edge-thickness-normal edge-pattern-solid edge-thickness-normal edge-pattern-solid flowchart-link" id="L_LB_WEB2_0" d="M1834.551,280L1834.551,284.167C1834.551,288.333,1834.551,296.667,1834.551,305C1834.551,313.333,1834.551,321.667,1834.551,330C1834.551,338.333,1834.551,346.667,1834.551,354.333C1834.551,362,1834.551,369,1834.551,372.5L1834.551,376"/><path marker-end="url(#my-svg_flowchart-v2-pointEnd)" style="" class="edge-thickness-normal edge-pattern-solid edge-thickness-normal edge-pattern-solid flowchart-link" id="L_LB_WEB3_0" d="M1915.457,274.001L1938.051,279.167C1960.645,284.334,2005.833,294.667,2028.427,304C2051.021,313.333,2051.021,321.667,2051.021,330C2051.021,338.333,2051.021,346.667,2051.021,354.333C2051.021,362,2051.021,369,2051.021,372.5L2051.021,376"/><path marker-end="url(#my-svg_flowchart-v2-pointEnd)" style="" class="edge-thickness-normal edge-pattern-solid edge-thickness-normal edge-pattern-solid flowchart-link" id="L_WEB1_APP1_0" d="M1629.535,429L1629.535,433.167C1629.535,437.333,1629.535,445.667,1629.535,454C1629.535,462.333,1629.535,470.667,1629.535,479C1629.535,487.333,1629.535,495.667,1629.535,503.333C1629.535,511,1629.535,518,1629.535,521.5L1629.535,525"/><path marker-end="url(#my-svg_flowchart-v2-pointEnd)" style="" class="edge-thickness-normal edge-pattern-solid edge-thickness-normal edge-pattern-solid flowchart-link" id="L_WEB2_APP2_0" d="M1834.551,429L1834.551,433.167C1834.551,437.333,1834.551,445.667,1834.551,454C1834.551,462.333,1834.551,470.667,1834.551,479C1834.551,487.333,1834.551,495.667,1834.551,503.333C1834.551,511,1834.551,518,1834.551,521.5L1834.551,525"/><path marker-end="url(#my-svg_flowchart-v2-pointEnd)" style="" class="edge-thickness-normal edge-pattern-solid edge-thickness-normal edge-pattern-solid flowchart-link" id="L_WEB3_APP3_0" d="M2051.021,429L2051.021,433.167C2051.021,437.333,2051.021,445.667,2051.021,454C2051.021,462.333,2051.021,470.667,2051.021,479C2051.021,487.333,2051.021,495.667,2051.021,503.333C2051.021,511,2051.021,518,2051.021,521.5L2051.021,525"/><path marker-end="url(#my-svg_flowchart-v2-pointEnd)" style="" class="edge-thickness-normal edge-pattern-solid edge-thickness-normal edge-pattern-solid flowchart-link" id="L_APP1_QUEUE_0" d="M1629.535,578L1629.535,582.167C1629.535,586.333,1629.535,594.667,1629.535,603C1629.535,611.333,1629.535,619.667,1638.395,627.732C1647.255,635.796,1664.976,643.593,1673.836,647.491L1682.696,651.389"/><path marker-end="url(#my-svg_flowchart-v2-pointEnd)" style="" class="edge-thickness-normal edge-pattern-solid edge-thickness-normal edge-pattern-solid flowchart-link" id="L_APP2_QUEUE_0" d="M1834.551,578L1834.551,582.167C1834.551,586.333,1834.551,594.667,1834.551,603C1834.551,611.333,1834.551,619.667,1827.352,627.685C1820.153,635.704,1805.755,643.409,1798.556,647.261L1791.356,651.113"/><path marker-end="url(#my-svg_flowchart-v2-pointEnd)" style="" class="edge-thickness-normal edge-pattern-solid edge-thickness-normal edge-pattern-solid flowchart-link" id="L_APP3_QUEUE_0" d="M1999.565,578L1990.814,582.167C1982.063,586.333,1964.561,594.667,1955.81,603C1947.059,611.333,1947.059,619.667,1927.708,628.505C1908.357,637.344,1869.656,646.688,1850.305,651.361L1830.955,656.033"/><path marker-end="url(#my-svg_flowchart-v2-pointEnd)" style="" class="edge-thickness-normal edge-pattern-solid edge-thickness-normal edge-pattern-solid flowchart-link" id="L_APP1_CACHE_0" d="M1705.402,564.626L1749.012,571.022C1792.621,577.418,1879.84,590.209,1923.449,600.771C1967.059,611.333,1967.059,619.667,1974.378,627.689C1981.698,635.712,1996.337,643.424,2003.656,647.28L2010.976,651.136"/><path marker-end="url(#my-svg_flowchart-v2-pointEnd)" style="" class="edge-thickness-normal edge-pattern-solid edge-thickness-normal edge-pattern-solid flowchart-link" id="L_APP2_CACHE_0" d="M1910.034,578L1922.872,582.167C1935.709,586.333,1961.384,594.667,1974.221,603C1987.059,611.333,1987.059,619.667,1992.73,627.629C1998.402,635.592,2009.746,643.183,2015.418,646.979L2021.089,650.775"/><path marker-end="url(#my-svg_flowchart-v2-pointEnd)" style="" class="edge-thickness-normal edge-pattern-solid edge-thickness-normal edge-pattern-solid flowchart-link" id="L_APP3_CACHE_0" d="M2065.87,578L2068.395,582.167C2070.92,586.333,2075.971,594.667,2078.496,603C2081.021,611.333,2081.021,619.667,2079.588,627.382C2078.154,635.097,2075.286,642.194,2073.853,645.743L2072.419,649.291"/><path marker-end="url(#my-svg_flowchart-v2-pointEnd)" style="" class="edge-thickness-normal edge-pattern-solid edge-thickness-normal edge-pattern-solid flowchart-link" id="L_APP1_DB1_0" d="M1599.838,578L1594.788,582.167C1589.737,586.333,1579.636,594.667,1574.586,603C1569.535,611.333,1569.535,619.667,1507.728,630.723C1445.921,641.78,1322.308,655.56,1260.501,662.45L1198.694,669.34"/><path marker-end="url(#my-svg_flowchart-v2-pointEnd)" style="" class="edge-thickness-normal edge-pattern-solid edge-thickness-normal edge-pattern-solid flowchart-link" id="L_APP2_DB1_0" d="M1758.684,568.827L1730.492,574.523C1702.301,580.218,1645.918,591.609,1617.727,601.471C1589.535,611.333,1589.535,619.667,1524.395,630.782C1459.255,641.897,1328.976,655.795,1263.836,662.743L1198.696,669.692"/><path marker-end="url(#my-svg_flowchart-v2-pointEnd)" style="" class="edge-thickness-normal edge-pattern-solid edge-thickness-normal edge-pattern-solid flowchart-link" id="L_APP3_DB1_0" d="M1975.154,562.006L1914.218,568.839C1853.281,575.671,1731.408,589.335,1670.472,600.334C1609.535,611.333,1609.535,619.667,1541.062,630.836C1472.589,642.005,1335.644,656.01,1267.171,663.012L1198.698,670.014"/><path marker-end="url(#my-svg_flowchart-v2-pointEnd)" style="" class="edge-thickness-normal edge-pattern-solid edge-thickness-normal edge-pattern-solid flowchart-link" id="L_DB1_DB2_0" d="M1056.281,696.079L1037.081,701.232C1017.88,706.386,979.479,716.693,960.279,726.013C941.078,735.333,941.078,743.667,941.078,751.333C941.078,759,941.078,766,941.078,769.5L941.078,773"/><path marker-end="url(#my-svg_flowchart-v2-pointEnd)" style="" class="edge-thickness-normal edge-pattern-solid edge-thickness-normal edge-pattern-solid flowchart-link" id="L_DB1_DWH_0" d="M1135.942,702L1137.718,706.167C1139.494,710.333,1143.046,718.667,1144.822,727C1146.598,735.333,1146.598,743.667,1146.598,751.333C1146.598,759,1146.598,766,1146.598,769.5L1146.598,773"/><path marker-end="url(#my-svg_flowchart-v2-pointEnd)" style="" class="edge-thickness-normal edge-pattern-solid edge-thickness-normal edge-pattern-solid flowchart-link" id="L_DB1_BACKUP_0" d="M1194.719,691.547L1223.835,697.456C1252.952,703.365,1311.185,715.182,1340.301,725.258C1369.418,735.333,1369.418,743.667,1369.418,751.333C1369.418,759,1369.418,766,1369.418,769.5L1369.418,773"/><path marker-end="url(#my-svg_flowchart-v2-pointEnd)" style="" class="edge-thickness-normal edge-pattern-solid edge-thickness-normal edge-pattern-solid flowchart-link" id="L_APP1_EMAIL_0" d="M1580.04,578L1571.623,582.167C1563.205,586.333,1546.37,594.667,1537.953,603C1529.535,611.333,1529.535,619.667,1308.5,631.602C1087.465,643.537,645.395,659.075,424.361,666.844L203.326,674.612"/><path marker-end="url(#my-svg_flowchart-v2-pointEnd)" style="" class="edge-thickness-normal edge-pattern-solid edge-thickness-normal edge-pattern-solid flowchart-link" id="L_APP2_SMS_0" d="M1758.684,566.676L1723.826,572.73C1688.967,578.784,1619.251,590.892,1584.393,601.113C1549.535,611.333,1549.535,619.667,1357.422,631.575C1165.309,643.482,781.082,658.965,588.969,666.706L396.856,674.447"/><path marker-end="url(#my-svg_flowchart-v2-pointEnd)" style="" class="edge-thickness-normal edge-pattern-solid edge-thickness-normal edge-pattern-solid flowchart-link" id="L_APP3_EXT1_0" d="M2075.769,578L2079.978,582.167C2084.186,586.333,2092.604,594.667,2096.813,603C2101.021,611.333,2101.021,619.667,2122.114,629.193C2143.207,638.719,2185.393,649.438,2206.485,654.798L2227.578,660.158"/><path marker-end="url(#my-svg_flowchart-v2-pointEnd)" style="" class="edge-thickness-normal edge-pattern-solid edge-thickness-normal edge-pattern-solid flowchart-link" id="L_APP1_EXT2_0" d="M1705.402,561.141L1774.672,568.117C1843.942,575.094,1982.482,589.047,2051.752,600.19C2121.021,611.333,2121.021,619.667,2168.559,630.489C2216.096,641.312,2311.17,654.624,2358.707,661.28L2406.244,667.936"/><path marker-end="url(#my-svg_flowchart-v2-pointEnd)" style="" class="edge-thickness-normal edge-pattern-solid edge-thickness-normal edge-pattern-solid flowchart-link" id="L_APP2_EXT3_0" d="M1910.418,565.754L1948.852,571.961C1987.286,578.169,2064.154,590.585,2102.588,600.959C2141.021,611.333,2141.021,619.667,2215.003,630.597C2288.984,641.526,2436.947,655.053,2510.928,661.816L2584.909,668.579"/><path marker-end="url(#my-svg_flowchart-v2-pointEnd)" style="" class="edge-thickness-normal edge-pattern-solid edge-thickness-normal edge-pattern-solid flowchart-link" id="L_ALL_MONITOR_0" d="M511.227,578L511.227,582.167C511.227,586.333,511.227,594.667,511.227,603C511.227,611.333,511.227,619.667,511.227,627.333C511.227,635,511.227,642,511.227,645.5L511.227,649"/><path marker-end="url(#my-svg_flowchart-v2-pointEnd)" style="" class="edge-thickness-normal edge-pattern-solid edge-thickness-normal edge-pattern-solid flowchart-link" id="L_ALL_LOG_0" d="M554.996,564.599L580.236,570.999C605.475,577.399,655.954,590.2,681.194,600.766C706.434,611.333,706.434,619.667,706.434,627.333C706.434,635,706.434,642,706.434,645.5L706.434,649"/></g><g class="edgeLabels"><g><rect style="stroke: none" class="background"/></g><g><rect style="stroke: none" class="background"/></g><g><rect style="stroke: none" class="background"/></g><g><rect style="stroke: none" class="background"/></g><g><rect style="stroke: none" class="background"/></g><g><rect style="stroke: none" class="background"/></g><g><rect style="stroke: none" class="background"/></g><g><rect style="stroke: none" class="background"/></g><g><rect style="stroke: none" class="background"/></g><g><rect style="stroke: none" class="background"/></g><g><rect style="stroke: none" class="background"/></g><g><rect style="stroke: none" class="background"/></g><g><rect style="stroke: none" class="background"/></g><g><rect style="stroke: none" class="background"/></g><g><rect style="stroke: none" class="background"/></g><g><rect style="stroke: none" class="background"/></g><g><rect style="stroke: none" class="background"/></g><g><rect style="stroke: none" class="background"/></g><g><rect style="stroke: none" class="background"/></g><g><rect style="stroke: none" class="background"/></g><g><rect style="stroke: none" class="background"/></g><g><rect style="stroke: none" class="background"/></g><g><rect style="stroke: none" class="background"/></g><g><rect style="stroke: none" class="background"/></g><g><rect style="stroke: none" class="background"/></g><g><rect style="stroke: none" class="background"/></g><g><rect style="stroke: none" class="background"/></g><g class="edgeLabel"><g transform="translate(0, 0)" class="label"><text y="-10.1"><tspan dy="1.1em" y="-0.1em" x="0" class="text-outer-tspan"/></text></g></g><g class="edgeLabel"><g transform="translate(0, 0)" class="label"><text y="-10.1"><tspan dy="1.1em" y="-0.1em" x="0" class="text-outer-tspan"/></text></g></g><g class="edgeLabel"><g transform="translate(0, 0)" class="label"><text y="-10.1"><tspan dy="1.1em" y="-0.1em" x="0" class="text-outer-tspan"/></text></g></g><g class="edgeLabel"><g transform="translate(0, 0)" class="label"><text y="-10.1"><tspan dy="1.1em" y="-0.1em" x="0" class="text-outer-tspan"/></text></g></g><g class="edgeLabel"><g transform="translate(0, 0)" class="label"><text y="-10.1"><tspan dy="1.1em" y="-0.1em" x="0" class="text-outer-tspan"/></text></g></g><g class="edgeLabel"><g transform="translate(0, 0)" class="label"><text y="-10.1"><tspan dy="1.1em" y="-0.1em" x="0" class="text-outer-tspan"/></text></g></g><g class="edgeLabel"><g transform="translate(0, 0)" class="label"><text y="-10.1"><tspan dy="1.1em" y="-0.1em" x="0" class="text-outer-tspan"/></text></g></g><g class="edgeLabel"><g transform="translate(0, 0)" class="label"><text y="-10.1"><tspan dy="1.1em" y="-0.1em" x="0" class="text-outer-tspan"/></text></g></g><g class="edgeLabel"><g transform="translate(0, 0)" class="label"><text y="-10.1"><tspan dy="1.1em" y="-0.1em" x="0" class="text-outer-tspan"/></text></g></g><g class="edgeLabel"><g transform="translate(0, 0)" class="label"><text y="-10.1"><tspan dy="1.1em" y="-0.1em" x="0" class="text-outer-tspan"/></text></g></g><g class="edgeLabel"><g transform="translate(0, 0)" class="label"><text y="-10.1"><tspan dy="1.1em" y="-0.1em" x="0" class="text-outer-tspan"/></text></g></g><g class="edgeLabel"><g transform="translate(0, 0)" class="label"><text y="-10.1"><tspan dy="1.1em" y="-0.1em" x="0" class="text-outer-tspan"/></text></g></g><g class="edgeLabel"><g transform="translate(0, 0)" class="label"><text y="-10.1"><tspan dy="1.1em" y="-0.1em" x="0" class="text-outer-tspan"/></text></g></g><g class="edgeLabel"><g transform="translate(0, 0)" class="label"><text y="-10.1"><tspan dy="1.1em" y="-0.1em" x="0" class="text-outer-tspan"/></text></g></g><g class="edgeLabel"><g transform="translate(0, 0)" class="label"><text y="-10.1"><tspan dy="1.1em" y="-0.1em" x="0" class="text-outer-tspan"/></text></g></g><g class="edgeLabel"><g transform="translate(0, 0)" class="label"><text y="-10.1"><tspan dy="1.1em" y="-0.1em" x="0" class="text-outer-tspan"/></text></g></g><g class="edgeLabel"><g transform="translate(0, 0)" class="label"><text y="-10.1"><tspan dy="1.1em" y="-0.1em" x="0" class="text-outer-tspan"/></text></g></g><g class="edgeLabel"><g transform="translate(0, 0)" class="label"><text y="-10.1"><tspan dy="1.1em" y="-0.1em" x="0" class="text-outer-tspan"/></text></g></g><g class="edgeLabel"><g transform="translate(0, 0)" class="label"><text y="-10.1"><tspan dy="1.1em" y="-0.1em" x="0" class="text-outer-tspan"/></text></g></g><g class="edgeLabel"><g transform="translate(0, 0)" class="label"><text y="-10.1"><tspan dy="1.1em" y="-0.1em" x="0" class="text-outer-tspan"/></text></g></g><g class="edgeLabel"><g transform="translate(0, 0)" class="label"><text y="-10.1"><tspan dy="1.1em" y="-0.1em" x="0" class="text-outer-tspan"/></text></g></g><g class="edgeLabel"><g transform="translate(0, 0)" class="label"><text y="-10.1"><tspan dy="1.1em" y="-0.1em" x="0" class="text-outer-tspan"/></text></g></g><g class="edgeLabel"><g transform="translate(0, 0)" class="label"><text y="-10.1"><tspan dy="1.1em" y="-0.1em" x="0" class="text-outer-tspan"/></text></g></g><g class="edgeLabel"><g transform="translate(0, 0)" class="label"><text y="-10.1"><tspan dy="1.1em" y="-0.1em" x="0" class="text-outer-tspan"/></text></g></g><g class="edgeLabel"><g transform="translate(0, 0)" class="label"><text y="-10.1"><tspan dy="1.1em" y="-0.1em" x="0" class="text-outer-tspan"/></text></g></g><g class="edgeLabel"><g transform="translate(0, 0)" class="label"><text y="-10.1"><tspan dy="1.1em" y="-0.1em" x="0" class="text-outer-tspan"/></text></g></g><g class="edgeLabel"><g transform="translate(0, 0)" class="label"><text y="-10.1"><tspan dy="1.1em" y="-0.1em" x="0" class="text-outer-tspan"/></text></g></g></g><g class="nodes"><g transform="translate(2295.830078125, 677.5)" id="flowchart-EXT1-0" class="node default"><rect height="49" width="128.75" y="-24.5" x="-64.375" style="" class="basic label-container"/><g transform="translate(0, -9.5)" style="" class="label"><rect/><g><rect style="stroke: none" class="background"/><text style="" y="-10.1"><tspan dy="1.1em" y="-0.1em" x="0" class="text-outer-tspan"><tspan font-weight="normal" class="text-inner-tspan" font-style="normal">外部API</tspan><tspan font-weight="normal" class="text-inner-tspan" font-style="normal"> A</tspan></tspan></text></g></g></g><g transform="translate(2474.548828125, 677.5)" id="flowchart-EXT2-1" class="node default"><rect height="49" width="128.6875" y="-24.5" x="-64.34375" style="" class="basic label-container"/><g transform="translate(0, -9.5)" style="" class="label"><rect/><g><rect style="stroke: none" class="background"/><text style="" y="-10.1"><tspan dy="1.1em" y="-0.1em" x="0" class="text-outer-tspan"><tspan font-weight="normal" class="text-inner-tspan" font-style="normal">外部API</tspan><tspan font-weight="normal" class="text-inner-tspan" font-style="normal"> B</tspan></tspan></text></g></g></g><g transform="translate(2682.494140625, 677.5)" id="flowchart-EXT3-2" class="node default"><rect height="49" width="187.203125" y="-24.5" x="-93.6015625" style="" class="basic label-container"/><g transform="translate(0, -9.5)" style="" class="label"><rect/><g><rect style="stroke: none" class="background"/><text style="" y="-10.1"><tspan dy="1.1em" y="-0.1em" x="0" class="text-outer-tspan"><tspan font-weight="normal" class="text-inner-tspan" font-style="normal">レガシーシステム</tspan></tspan></text></g></g></g><g transform="translate(1834.55078125, 255.5)" id="flowchart-LB-3" class="node default"><rect height="49" width="161.8125" y="-24.5" x="-80.90625" style="" class="basic label-container"/><g transform="translate(0, -9.5)" style="" class="label"><rect/><g><rect style="stroke: none" class="background"/><text style="" y="-10.1"><tspan dy="1.1em" y="-0.1em" x="0" class="text-outer-tspan"><tspan font-weight="normal" class="text-inner-tspan" font-style="normal">Load</tspan><tspan font-weight="normal" class="text-inner-tspan" font-style="normal"> Balancer</tspan></tspan></text></g></g></g><g transform="translate(1834.55078125, 156.5)" id="flowchart-WAF-4" class="node default"><rect height="49" width="239.3515625" y="-24.5" x="-119.67578125" style="" class="basic label-container"/><g transform="translate(0, -9.5)" style="" class="label"><rect/><g><rect style="stroke: none" class="background"/><text style="" y="-10.1"><tspan dy="1.1em" y="-0.1em" x="0" class="text-outer-tspan"><tspan font-weight="normal" class="text-inner-tspan" font-style="normal">Web</tspan><tspan font-weight="normal" class="text-inner-tspan" font-style="normal"> Application</tspan><tspan font-weight="normal" class="text-inner-tspan" font-style="normal"> Firewall</tspan></tspan></text></g></g></g><g transform="translate(1629.53515625, 404.5)" id="flowchart-WEB1-5" class="node default"><rect height="49" width="155.015625" y="-24.5" x="-77.5078125" style="" class="basic label-container"/><g transform="translate(0, -9.5)" style="" class="label"><rect/><g><rect style="stroke: none" class="background"/><text style="" y="-10.1"><tspan dy="1.1em" y="-0.1em" x="0" class="text-outer-tspan"><tspan font-weight="normal" class="text-inner-tspan" font-style="normal">Web</tspan><tspan font-weight="normal" class="text-inner-tspan" font-style="normal"> Server</tspan><tspan font-weight="normal" class="text-inner-tspan" font-style="normal"> 1</tspan></tspan></text></g></g></g><g transform="translate(1834.55078125, 404.5)" id="flowchart-WEB2-6" class="node default"><rect height="49" width="155.015625" y="-24.5" x="-77.5078125" style="" class="basic label-container"/><g transform="translate(0, -9.5)" style="" class="label"><rect/><g><rect style="stroke: none" class="background"/><text style="" y="-10.1"><tspan dy="1.1em" y="-0.1em" x="0" class="text-outer-tspan"><tspan font-weight="normal" class="text-inner-tspan" font-style="normal">Web</tspan><tspan font-weight="normal" class="text-inner-tspan" font-style="normal"> Server</tspan><tspan font-weight="normal" class="text-inner-tspan" font-style="normal"> 2</tspan></tspan></text></g></g></g><g transform="translate(2051.021484375, 404.5)" id="flowchart-WEB3-7" class="node default"><rect height="49" width="155.015625" y="-24.5" x="-77.5078125" style="" class="basic label-container"/><g transform="translate(0, -9.5)" style="" class="label"><rect/><g><rect style="stroke: none" class="background"/><text style="" y="-10.1"><tspan dy="1.1em" y="-0.1em" x="0" class="text-outer-tspan"><tspan font-weight="normal" class="text-inner-tspan" font-style="normal">Web</tspan><tspan font-weight="normal" class="text-inner-tspan" font-style="normal"> Server</tspan><tspan font-weight="normal" class="text-inner-tspan" font-style="normal"> 3</tspan></tspan></text></g></g></g><g transform="translate(1629.53515625, 553.5)" id="flowchart-APP1-8" class="node default"><rect height="49" width="151.734375" y="-24.5" x="-75.8671875" style="" class="basic label-container"/><g transform="translate(0, -9.5)" style="" class="label"><rect/><g><rect style="stroke: none" class="background"/><text style="" y="-10.1"><tspan dy="1.1em" y="-0.1em" x="0" class="text-outer-tspan"><tspan font-weight="normal" class="text-inner-tspan" font-style="normal">App</tspan><tspan font-weight="normal" class="text-inner-tspan" font-style="normal"> Server</tspan><tspan font-weight="normal" class="text-inner-tspan" font-style="normal"> 1</tspan></tspan></text></g></g></g><g transform="translate(1834.55078125, 553.5)" id="flowchart-APP2-9" class="node default"><rect height="49" width="151.734375" y="-24.5" x="-75.8671875" style="" class="basic label-container"/><g transform="translate(0, -9.5)" style="" class="label"><rect/><g><rect style="stroke: none" class="background"/><text style="" y="-10.1"><tspan dy="1.1em" y="-0.1em" x="0" class="text-outer-tspan"><tspan font-weight="normal" class="text-inner-tspan" font-style="normal">App</tspan><tspan font-weight="normal" class="text-inner-tspan" font-style="normal"> Server</tspan><tspan font-weight="normal" class="text-inner-tspan" font-style="normal"> 2</tspan></tspan></text></g></g></g><g transform="translate(2051.021484375, 553.5)" id="flowchart-APP3-10" class="node default"><rect height="49" width="151.734375" y="-24.5" x="-75.8671875" style="" class="basic label-container"/><g transform="translate(0, -9.5)" style="" class="label"><rect/><g><rect style="stroke: none" class="background"/><text style="" y="-10.1"><tspan dy="1.1em" y="-0.1em" x="0" class="text-outer-tspan"><tspan font-weight="normal" class="text-inner-tspan" font-style="normal">App</tspan><tspan font-weight="normal" class="text-inner-tspan" font-style="normal"> Server</tspan><tspan font-weight="normal" class="text-inner-tspan" font-style="normal"> 3</tspan></tspan></text></g></g></g><g transform="translate(1742.04296875, 677.5)" id="flowchart-QUEUE-11" class="node default"><rect height="49" width="170.046875" y="-24.5" x="-85.0234375" style="" class="basic label-container"/><g transform="translate(0, -9.5)" style="" class="label"><rect/><g><rect style="stroke: none" class="background"/><text style="" y="-10.1"><tspan dy="1.1em" y="-0.1em" x="0" class="text-outer-tspan"><tspan font-weight="normal" class="text-inner-tspan" font-style="normal">Message</tspan><tspan font-weight="normal" class="text-inner-tspan" font-style="normal"> Queue</tspan></tspan></text></g></g></g><g transform="translate(2061.021484375, 677.5)" id="flowchart-CACHE-12" class="node default"><rect height="49" width="145.8046875" y="-24.5" x="-72.90234375" style="" class="basic label-container"/><g transform="translate(0, -9.5)" style="" class="label"><rect/><g><rect style="stroke: none" class="background"/><text style="" y="-10.1"><tspan dy="1.1em" y="-0.1em" x="0" class="text-outer-tspan"><tspan font-weight="normal" class="text-inner-tspan" font-style="normal">Redis</tspan><tspan font-weight="normal" class="text-inner-tspan" font-style="normal"> Cache</tspan></tspan></text></g></g></g><g transform="translate(1125.5, 677.5)" id="flowchart-DB1-13" class="node default"><rect height="49" width="138.4375" y="-24.5" x="-69.21875" style="" class="basic label-container"/><g transform="translate(0, -9.5)" style="" class="label"><rect/><g><rect style="stroke: none" class="background"/><text style="" y="-10.1"><tspan dy="1.1em" y="-0.1em" x="0" class="text-outer-tspan"><tspan font-weight="normal" class="text-inner-tspan" font-style="normal">Primary</tspan><tspan font-weight="normal" class="text-inner-tspan" font-style="normal"> DB</tspan></tspan></text></g></g></g><g transform="translate(941.078125, 801.5)" id="flowchart-DB2-14" class="node default"><rect height="49" width="135.609375" y="-24.5" x="-67.8046875" style="" class="basic label-container"/><g transform="translate(0, -9.5)" style="" class="label"><rect/><g><rect style="stroke: none" class="background"/><text style="" y="-10.1"><tspan dy="1.1em" y="-0.1em" x="0" class="text-outer-tspan"><tspan font-weight="normal" class="text-inner-tspan" font-style="normal">Replica</tspan><tspan font-weight="normal" class="text-inner-tspan" font-style="normal"> DB</tspan></tspan></text></g></g></g><g transform="translate(1146.59765625, 801.5)" id="flowchart-DWH-15" class="node default"><rect height="49" width="175.4296875" y="-24.5" x="-87.71484375" style="" class="basic label-container"/><g transform="translate(0, -9.5)" style="" class="label"><rect/><g><rect style="stroke: none" class="background"/><text style="" y="-10.1"><tspan dy="1.1em" y="-0.1em" x="0" class="text-outer-tspan"><tspan font-weight="normal" class="text-inner-tspan" font-style="normal">Data</tspan><tspan font-weight="normal" class="text-inner-tspan" font-style="normal"> Warehouse</tspan></tspan></text></g></g></g><g transform="translate(1369.41796875, 801.5)" id="flowchart-BACKUP-16" class="node default"><rect height="49" width="170.2109375" y="-24.5" x="-85.10546875" style="" class="basic label-container"/><g transform="translate(0, -9.5)" style="" class="label"><rect/><g><rect style="stroke: none" class="background"/><text style="" y="-10.1"><tspan dy="1.1em" y="-0.1em" x="0" class="text-outer-tspan"><tspan font-weight="normal" class="text-inner-tspan" font-style="normal">Backup</tspan><tspan font-weight="normal" class="text-inner-tspan" font-style="normal"> Storage</tspan></tspan></text></g></g></g><g transform="translate(121.1640625, 677.5)" id="flowchart-EMAIL-17" class="node default"><rect height="49" width="156.328125" y="-24.5" x="-78.1640625" style="" class="basic label-container"/><g transform="translate(0, -9.5)" style="" class="label"><rect/><g><rect style="stroke: none" class="background"/><text style="" y="-10.1"><tspan dy="1.1em" y="-0.1em" x="0" class="text-outer-tspan"><tspan font-weight="normal" class="text-inner-tspan" font-style="normal">Email</tspan><tspan font-weight="normal" class="text-inner-tspan" font-style="normal"> Service</tspan></tspan></text></g></g></g><g transform="translate(321.09375, 677.5)" id="flowchart-SMS-18" class="node default"><rect height="49" width="143.53125" y="-24.5" x="-71.765625" style="" class="basic label-container"/><g transform="translate(0, -9.5)" style="" class="label"><rect/><g><rect style="stroke: none" class="background"/><text style="" y="-10.1"><tspan dy="1.1em" y="-0.1em" x="0" class="text-outer-tspan"><tspan font-weight="normal" class="text-inner-tspan" font-style="normal">SMS</tspan><tspan font-weight="normal" class="text-inner-tspan" font-style="normal"> Service</tspan></tspan></text></g></g></g><g transform="translate(511.2265625, 677.5)" id="flowchart-MONITOR-19" class="node default"><rect height="49" width="136.734375" y="-24.5" x="-68.3671875" style="" class="basic label-container"/><g transform="translate(0, -9.5)" style="" class="label"><rect/><g><rect style="stroke: none" class="background"/><text style="" y="-10.1"><tspan dy="1.1em" y="-0.1em" x="0" class="text-outer-tspan"><tspan font-weight="normal" class="text-inner-tspan" font-style="normal">Monitoring</tspan></tspan></text></g></g></g><g transform="translate(706.43359375, 677.5)" id="flowchart-LOG-20" class="node default"><rect height="49" width="153.6796875" y="-24.5" x="-76.83984375" style="" class="basic label-container"/><g transform="translate(0, -9.5)" style="" class="label"><rect/><g><rect style="stroke: none" class="background"/><text style="" y="-10.1"><tspan dy="1.1em" y="-0.1em" x="0" class="text-outer-tspan"><tspan font-weight="normal" class="text-inner-tspan" font-style="normal">Log</tspan><tspan font-weight="normal" class="text-inner-tspan" font-style="normal"> Analytics</tspan></tspan></text></g></g></g><g transform="translate(1834.55078125, 32.5)" id="flowchart-Internet-21" class="node default"><rect height="49" width="118.953125" y="-24.5" x="-59.4765625" style="" class="basic label-container"/><g transform="translate(0, -9.5)" style="" class="label"><rect/><g><rect style="stroke: none" class="background"/><text style="" y="-10.1"><tspan dy="1.1em" y="-0.1em" x="0" class="text-outer-tspan"><tspan font-weight="normal" class="text-inner-tspan" font-style="normal">Internet</tspan></tspan></text></g></g></g><g transform="translate(511.2265625, 553.5)" id="flowchart-ALL-71" class="node default"><rect height="49" width="87.5390625" y="-24.5" x="-43.76953125" style="" class="basic label-container"/><g transform="translate(0, -9.5)" style="" class="label"><rect/><g><rect style="stroke: none" class="background"/><text style="" y="-10.1"><tspan dy="1.1em" y="-0.1em" x="0" class="text-outer-tspan"><tspan font-weight="normal" class="text-inner-tspan" font-style="normal">ALL</tspan></tspan></text></g></g></g></g></g></g></svg>