<svg aria-roledescription="flowchart-v2" role="graphics-document document" viewBox="0 0 1259.640625 630.4567260742188" style="max-width: 1259.64px; background-color: white;" class="flowchart" xmlns:xlink="http://www.w3.org/1999/xlink" xmlns="http://www.w3.org/2000/svg" width="100%" id="my-svg"><style>#my-svg{font-family:"trebuchet ms",verdana,arial,sans-serif;font-size:16px;fill:#333;}@keyframes edge-animation-frame{from{stroke-dashoffset:0;}}@keyframes dash{to{stroke-dashoffset:0;}}#my-svg .edge-animation-slow{stroke-dasharray:9,5!important;stroke-dashoffset:900;animation:dash 50s linear infinite;stroke-linecap:round;}#my-svg .edge-animation-fast{stroke-dasharray:9,5!important;stroke-dashoffset:900;animation:dash 20s linear infinite;stroke-linecap:round;}#my-svg .error-icon{fill:#552222;}#my-svg .error-text{fill:#552222;stroke:#552222;}#my-svg .edge-thickness-normal{stroke-width:1px;}#my-svg .edge-thickness-thick{stroke-width:3.5px;}#my-svg .edge-pattern-solid{stroke-dasharray:0;}#my-svg .edge-thickness-invisible{stroke-width:0;fill:none;}#my-svg .edge-pattern-dashed{stroke-dasharray:3;}#my-svg .edge-pattern-dotted{stroke-dasharray:2;}#my-svg .marker{fill:#333333;stroke:#333333;}#my-svg .marker.cross{stroke:#333333;}#my-svg svg{font-family:"trebuchet ms",verdana,arial,sans-serif;font-size:16px;}#my-svg p{margin:0;}#my-svg .label{font-family:"trebuchet ms",verdana,arial,sans-serif;color:#333;}#my-svg .cluster-label text{fill:#333;}#my-svg .cluster-label span{color:#333;}#my-svg .cluster-label span p{background-color:transparent;}#my-svg .label text,#my-svg span{fill:#333;color:#333;}#my-svg .node rect,#my-svg .node circle,#my-svg .node ellipse,#my-svg .node polygon,#my-svg .node path{fill:#ECECFF;stroke:#9370DB;stroke-width:1px;}#my-svg .rough-node .label text,#my-svg .node .label text,#my-svg .image-shape .label,#my-svg .icon-shape .label{text-anchor:middle;}#my-svg .node .katex path{fill:#000;stroke:#000;stroke-width:1px;}#my-svg .rough-node .label,#my-svg .node .label,#my-svg .image-shape .label,#my-svg .icon-shape .label{text-align:center;}#my-svg .node.clickable{cursor:pointer;}#my-svg .root .anchor path{fill:#333333!important;stroke-width:0;stroke:#333333;}#my-svg .arrowheadPath{fill:#333333;}#my-svg .edgePath .path{stroke:#333333;stroke-width:2.0px;}#my-svg .flowchart-link{stroke:#333333;fill:none;}#my-svg .edgeLabel{background-color:rgba(232,232,232, 0.8);text-align:center;}#my-svg .edgeLabel p{background-color:rgba(232,232,232, 0.8);}#my-svg .edgeLabel rect{opacity:0.5;background-color:rgba(232,232,232, 0.8);fill:rgba(232,232,232, 0.8);}#my-svg .labelBkg{background-color:rgba(232, 232, 232, 0.5);}#my-svg .cluster rect{fill:#ffffde;stroke:#aaaa33;stroke-width:1px;}#my-svg .cluster text{fill:#333;}#my-svg .cluster span{color:#333;}#my-svg div.mermaidTooltip{position:absolute;text-align:center;max-width:200px;padding:2px;font-family:"trebuchet ms",verdana,arial,sans-serif;font-size:12px;background:hsl(80, 100%, 96.2745098039%);border:1px solid #aaaa33;border-radius:2px;pointer-events:none;z-index:100;}#my-svg .flowchartTitleText{text-anchor:middle;font-size:18px;fill:#333;}#my-svg rect.text{fill:none;stroke-width:0;}#my-svg .icon-shape,#my-svg .image-shape{background-color:rgba(232,232,232, 0.8);text-align:center;}#my-svg .icon-shape p,#my-svg .image-shape p{background-color:rgba(232,232,232, 0.8);padding:2px;}#my-svg .icon-shape rect,#my-svg .image-shape rect{opacity:0.5;background-color:rgba(232,232,232, 0.8);fill:rgba(232,232,232, 0.8);}#my-svg .label-icon{display:inline-block;height:1em;overflow:visible;vertical-align:-0.125em;}#my-svg .node .label-icon path{fill:currentColor;stroke:revert;stroke-width:revert;}#my-svg :root{--mermaid-font-family:"trebuchet ms",verdana,arial,sans-serif;}</style><g><marker orient="auto" markerHeight="8" markerWidth="8" markerUnits="userSpaceOnUse" refY="5" refX="5" viewBox="0 0 10 10" class="marker flowchart-v2" id="my-svg_flowchart-v2-pointEnd"><path style="stroke-width: 1; stroke-dasharray: 1, 0;" class="arrowMarkerPath" d="M 0 0 L 10 5 L 0 10 z"/></marker><marker orient="auto" markerHeight="8" markerWidth="8" markerUnits="userSpaceOnUse" refY="5" refX="4.5" viewBox="0 0 10 10" class="marker flowchart-v2" id="my-svg_flowchart-v2-pointStart"><path style="stroke-width: 1; stroke-dasharray: 1, 0;" class="arrowMarkerPath" d="M 0 5 L 10 10 L 10 0 z"/></marker><marker orient="auto" markerHeight="11" markerWidth="11" markerUnits="userSpaceOnUse" refY="5" refX="11" viewBox="0 0 10 10" class="marker flowchart-v2" id="my-svg_flowchart-v2-circleEnd"><circle style="stroke-width: 1; stroke-dasharray: 1, 0;" class="arrowMarkerPath" r="5" cy="5" cx="5"/></marker><marker orient="auto" markerHeight="11" markerWidth="11" markerUnits="userSpaceOnUse" refY="5" refX="-1" viewBox="0 0 10 10" class="marker flowchart-v2" id="my-svg_flowchart-v2-circleStart"><circle style="stroke-width: 1; stroke-dasharray: 1, 0;" class="arrowMarkerPath" r="5" cy="5" cx="5"/></marker><marker orient="auto" markerHeight="11" markerWidth="11" markerUnits="userSpaceOnUse" refY="5.2" refX="12" viewBox="0 0 11 11" class="marker cross flowchart-v2" id="my-svg_flowchart-v2-crossEnd"><path style="stroke-width: 2; stroke-dasharray: 1, 0;" class="arrowMarkerPath" d="M 1,1 l 9,9 M 10,1 l -9,9"/></marker><marker orient="auto" markerHeight="11" markerWidth="11" markerUnits="userSpaceOnUse" refY="5.2" refX="-1" viewBox="0 0 11 11" class="marker cross flowchart-v2" id="my-svg_flowchart-v2-crossStart"><path style="stroke-width: 2; stroke-dasharray: 1, 0;" class="arrowMarkerPath" d="M 1,1 l 9,9 M 10,1 l -9,9"/></marker><g class="root"><g class="clusters"><g data-look="classic" id="データストア" class="cluster"><rect height="118.45671844482422" width="882.953125" y="504" x="47.046875" style=""/><g transform="translate(440.5234375, 504)" class="cluster-label"><g><rect style="stroke: none" class="background"/><text style="" y="-10.1"><tspan dy="1.1em" y="-0.1em" x="0" class="text-outer-tspan"><tspan font-weight="normal" class="text-inner-tspan" font-style="normal">データストア</tspan></tspan></text></g></g></g><g data-look="classic" id="ビジネスサービス" class="cluster"><rect height="198" width="961.046875" y="256" x="8" style=""/><g transform="translate(424.5234375, 256)" class="cluster-label"><g><rect style="stroke: none" class="background"/><text style="" y="-10.1"><tspan dy="1.1em" y="-0.1em" x="0" class="text-outer-tspan"><tspan font-weight="normal" class="text-inner-tspan" font-style="normal">ビジネスサービス</tspan></tspan></text></g></g></g><g data-look="classic" id="認証・認可" class="cluster"><rect height="198" width="262.59375" y="256" x="989.046875" style=""/><g transform="translate(1080.34375, 256)" class="cluster-label"><g><rect style="stroke: none" class="background"/><text style="" y="-10.1"><tspan dy="1.1em" y="-0.1em" x="0" class="text-outer-tspan"><tspan font-weight="normal" class="text-inner-tspan" font-style="normal">認証・認可</tspan></tspan></text></g></g></g><g data-look="classic" id="subGraph0" class="cluster"><rect height="99" width="1090.0546875" y="107" x="67.96484375" style=""/><g transform="translate(566.87109375, 107)" class="cluster-label"><g><rect style="stroke: none" class="background"/><text style="" y="-10.1"><tspan dy="1.1em" y="-0.1em" x="0" class="text-outer-tspan"><tspan font-weight="normal" class="text-inner-tspan" font-style="normal">API</tspan><tspan font-weight="normal" class="text-inner-tspan" font-style="normal"> Gateway</tspan></tspan></text></g></g></g></g><g class="edgePaths"><path marker-end="url(#my-svg_flowchart-v2-pointEnd)" style="" class="edge-thickness-normal edge-pattern-solid edge-thickness-normal edge-pattern-solid flowchart-link" id="L_CLIENT_GW_0" d="M548.742,57L548.742,61.167C548.742,65.333,548.742,73.667,548.742,82C548.742,90.333,548.742,98.667,548.742,106.333C548.742,114,548.742,121,548.742,124.5L548.742,128"/><path marker-end="url(#my-svg_flowchart-v2-pointEnd)" style="" class="edge-thickness-normal edge-pattern-solid edge-thickness-normal edge-pattern-solid flowchart-link" id="L_GW_AUTH_0" d="M638.383,164.263L718.71,171.219C799.036,178.175,959.69,192.088,1040.017,203.21C1120.344,214.333,1120.344,222.667,1120.344,231C1120.344,239.333,1120.344,247.667,1120.344,255.333C1120.344,263,1120.344,270,1120.344,273.5L1120.344,277"/><path marker-end="url(#my-svg_flowchart-v2-pointEnd)" style="" class="edge-thickness-normal edge-pattern-solid edge-thickness-normal edge-pattern-solid flowchart-link" id="L_GW_USER_0" d="M459.102,166.784L402.133,173.32C345.164,179.856,231.227,192.928,174.258,203.631C117.289,214.333,117.289,222.667,117.289,231C117.289,239.333,117.289,247.667,117.289,255.333C117.289,263,117.289,270,117.289,273.5L117.289,277"/><path marker-end="url(#my-svg_flowchart-v2-pointEnd)" style="" class="edge-thickness-normal edge-pattern-solid edge-thickness-normal edge-pattern-solid flowchart-link" id="L_GW_ORDER_0" d="M552.541,181L553.187,185.167C553.834,189.333,555.126,197.667,555.772,206C556.418,214.333,556.418,222.667,556.418,231C556.418,239.333,556.418,247.667,556.418,255.333C556.418,263,556.418,270,556.418,273.5L556.418,277"/><path marker-end="url(#my-svg_flowchart-v2-pointEnd)" style="" class="edge-thickness-normal edge-pattern-solid edge-thickness-normal edge-pattern-solid flowchart-link" id="L_GW_PAYMENT_0" d="M459.102,177.598L438.989,182.331C418.876,187.065,378.651,196.533,358.538,205.433C338.426,214.333,338.426,222.667,338.426,231C338.426,239.333,338.426,247.667,338.426,255.333C338.426,263,338.426,270,338.426,273.5L338.426,277"/><path marker-end="url(#my-svg_flowchart-v2-pointEnd)" style="" class="edge-thickness-normal edge-pattern-solid edge-thickness-normal edge-pattern-solid flowchart-link" id="L_GW_INVENTORY_0" d="M638.383,169.298L681.23,175.415C724.077,181.532,809.771,193.766,852.618,204.05C895.465,214.333,895.465,222.667,895.465,231C895.465,239.333,895.465,247.667,895.465,260.083C895.465,272.5,895.465,289,895.465,305.5C895.465,322,895.465,338.5,891.444,350.464C887.424,362.429,879.383,369.857,875.362,373.571L871.341,377.286"/><path marker-end="url(#my-svg_flowchart-v2-pointEnd)" style="" class="edge-thickness-normal edge-pattern-solid edge-thickness-normal edge-pattern-solid flowchart-link" id="L_AUTH_PERM_0" d="M1120.344,330L1120.344,334.167C1120.344,338.333,1120.344,346.667,1120.344,354.333C1120.344,362,1120.344,369,1120.344,372.5L1120.344,376"/><path marker-end="url(#my-svg_flowchart-v2-pointEnd)" style="" class="edge-thickness-normal edge-pattern-solid edge-thickness-normal edge-pattern-solid flowchart-link" id="L_USER_USERDB_0" d="M117.289,330L117.289,334.167C117.289,338.333,117.289,346.667,117.289,359.083C117.289,371.5,117.289,388,117.289,404.5C117.289,421,117.289,437.5,117.289,449.917C117.289,462.333,117.289,470.667,117.289,479C117.289,487.333,117.289,495.667,117.289,503.951C117.289,512.236,117.289,520.472,117.289,524.589L117.289,528.707"/><path marker-end="url(#my-svg_flowchart-v2-pointEnd)" style="" class="edge-thickness-normal edge-pattern-solid edge-thickness-normal edge-pattern-solid flowchart-link" id="L_ORDER_ORDERDB_0" d="M552.619,330L551.973,334.167C551.327,338.333,550.034,346.667,549.388,359.083C548.742,371.5,548.742,388,548.742,404.5C548.742,421,548.742,437.5,548.742,449.917C548.742,462.333,548.742,470.667,548.742,479C548.742,487.333,548.742,495.667,548.742,503.774C548.742,511.882,548.742,519.763,548.742,523.704L548.742,527.645"/><path marker-end="url(#my-svg_flowchart-v2-pointEnd)" style="" class="edge-thickness-normal edge-pattern-solid edge-thickness-normal edge-pattern-solid flowchart-link" id="L_ORDER_INVENTORY_0" d="M635.238,322.571L660.194,327.976C685.15,333.381,735.061,344.19,764.304,353.324C793.547,362.458,802.122,369.917,806.41,373.646L810.697,377.375"/><path marker-end="url(#my-svg_flowchart-v2-pointEnd)" style="" class="edge-thickness-normal edge-pattern-solid edge-thickness-normal edge-pattern-solid flowchart-link" id="L_ORDER_NOTIFICATION_0" d="M498.671,330L488.85,334.167C479.03,338.333,459.388,346.667,441.637,354.707C423.887,362.748,408.028,370.496,400.098,374.37L392.168,378.244"/><path marker-end="url(#my-svg_flowchart-v2-pointEnd)" style="" class="edge-thickness-normal edge-pattern-solid edge-thickness-normal edge-pattern-solid flowchart-link" id="L_PAYMENT_PAYMENTDB_0" d="M427.598,318.104L471.105,324.253C514.612,330.402,601.626,342.701,645.133,357.101C688.641,371.5,688.641,388,688.641,404.5C688.641,421,688.641,437.5,688.641,449.917C688.641,462.333,688.641,470.667,688.641,479C688.641,487.333,688.641,495.667,688.641,503.423C688.641,511.18,688.641,518.359,688.641,521.949L688.641,525.539"/><path marker-end="url(#my-svg_flowchart-v2-pointEnd)" style="" class="edge-thickness-normal edge-pattern-solid edge-thickness-normal edge-pattern-solid flowchart-link" id="L_PAYMENT_NOTIFICATION_0" d="M334.627,330L333.981,334.167C333.334,338.333,332.042,346.667,331.94,354.341C331.838,362.016,332.926,369.031,333.47,372.539L334.014,376.047"/><path marker-end="url(#my-svg_flowchart-v2-pointEnd)" style="" class="edge-thickness-normal edge-pattern-solid edge-thickness-normal edge-pattern-solid flowchart-link" id="L_INVENTORY_INVENTORYDB_0" d="M841.883,429L841.883,433.167C841.883,437.333,841.883,445.667,841.883,454C841.883,462.333,841.883,470.667,841.883,479C841.883,487.333,841.883,495.667,841.883,503.333C841.883,511,841.883,518,841.883,521.5L841.883,525"/></g><g class="edgeLabels"><g><rect style="stroke: none" class="background"/></g><g><rect style="stroke: none" class="background"/></g><g><rect style="stroke: none" class="background"/></g><g><rect style="stroke: none" class="background"/></g><g><rect style="stroke: none" class="background"/></g><g><rect style="stroke: none" class="background"/></g><g><rect style="stroke: none" class="background"/></g><g><rect style="stroke: none" class="background"/></g><g><rect style="stroke: none" class="background"/></g><g><rect style="stroke: none" class="background"/></g><g><rect style="stroke: none" class="background"/></g><g><rect style="stroke: none" class="background"/></g><g><rect style="stroke: none" class="background"/></g><g><rect style="stroke: none" class="background"/></g><g class="edgeLabel"><g transform="translate(0, 0)" class="label"><text y="-10.1"><tspan dy="1.1em" y="-0.1em" x="0" class="text-outer-tspan"/></text></g></g><g class="edgeLabel"><g transform="translate(0, 0)" class="label"><text y="-10.1"><tspan dy="1.1em" y="-0.1em" x="0" class="text-outer-tspan"/></text></g></g><g class="edgeLabel"><g transform="translate(0, 0)" class="label"><text y="-10.1"><tspan dy="1.1em" y="-0.1em" x="0" class="text-outer-tspan"/></text></g></g><g class="edgeLabel"><g transform="translate(0, 0)" class="label"><text y="-10.1"><tspan dy="1.1em" y="-0.1em" x="0" class="text-outer-tspan"/></text></g></g><g class="edgeLabel"><g transform="translate(0, 0)" class="label"><text y="-10.1"><tspan dy="1.1em" y="-0.1em" x="0" class="text-outer-tspan"/></text></g></g><g class="edgeLabel"><g transform="translate(0, 0)" class="label"><text y="-10.1"><tspan dy="1.1em" y="-0.1em" x="0" class="text-outer-tspan"/></text></g></g><g class="edgeLabel"><g transform="translate(0, 0)" class="label"><text y="-10.1"><tspan dy="1.1em" y="-0.1em" x="0" class="text-outer-tspan"/></text></g></g><g class="edgeLabel"><g transform="translate(0, 0)" class="label"><text y="-10.1"><tspan dy="1.1em" y="-0.1em" x="0" class="text-outer-tspan"/></text></g></g><g class="edgeLabel"><g transform="translate(0, 0)" class="label"><text y="-10.1"><tspan dy="1.1em" y="-0.1em" x="0" class="text-outer-tspan"/></text></g></g><g class="edgeLabel"><g transform="translate(0, 0)" class="label"><text y="-10.1"><tspan dy="1.1em" y="-0.1em" x="0" class="text-outer-tspan"/></text></g></g><g class="edgeLabel"><g transform="translate(0, 0)" class="label"><text y="-10.1"><tspan dy="1.1em" y="-0.1em" x="0" class="text-outer-tspan"/></text></g></g><g class="edgeLabel"><g transform="translate(0, 0)" class="label"><text y="-10.1"><tspan dy="1.1em" y="-0.1em" x="0" class="text-outer-tspan"/></text></g></g><g class="edgeLabel"><g transform="translate(0, 0)" class="label"><text y="-10.1"><tspan dy="1.1em" y="-0.1em" x="0" class="text-outer-tspan"/></text></g></g><g class="edgeLabel"><g transform="translate(0, 0)" class="label"><text y="-10.1"><tspan dy="1.1em" y="-0.1em" x="0" class="text-outer-tspan"/></text></g></g></g><g class="nodes"><g transform="translate(548.7421875, 156.5)" id="flowchart-GW-0" class="node default"><rect height="49" width="179.28125" y="-24.5" x="-89.640625" style="" class="basic label-container"/><g transform="translate(0, -9.5)" style="" class="label"><rect/><g><rect style="stroke: none" class="background"/><text style="" y="-10.1"><tspan dy="1.1em" y="-0.1em" x="0" class="text-outer-tspan"><tspan font-weight="normal" class="text-inner-tspan" font-style="normal">Gateway</tspan><tspan font-weight="normal" class="text-inner-tspan" font-style="normal"> Service</tspan></tspan></text></g></g></g><g transform="translate(1120.34375, 305.5)" id="flowchart-AUTH-1" class="node default"><rect height="49" width="151.046875" y="-24.5" x="-75.5234375" style="" class="basic label-container"/><g transform="translate(0, -9.5)" style="" class="label"><rect/><g><rect style="stroke: none" class="background"/><text style="" y="-10.1"><tspan dy="1.1em" y="-0.1em" x="0" class="text-outer-tspan"><tspan font-weight="normal" class="text-inner-tspan" font-style="normal">Auth</tspan><tspan font-weight="normal" class="text-inner-tspan" font-style="normal"> Service</tspan></tspan></text></g></g></g><g transform="translate(1120.34375, 404.5)" id="flowchart-PERM-2" class="node default"><rect height="49" width="192.59375" y="-24.5" x="-96.296875" style="" class="basic label-container"/><g transform="translate(0, -9.5)" style="" class="label"><rect/><g><rect style="stroke: none" class="background"/><text style="" y="-10.1"><tspan dy="1.1em" y="-0.1em" x="0" class="text-outer-tspan"><tspan font-weight="normal" class="text-inner-tspan" font-style="normal">Permission</tspan><tspan font-weight="normal" class="text-inner-tspan" font-style="normal"> Service</tspan></tspan></text></g></g></g><g transform="translate(117.2890625, 305.5)" id="flowchart-USER-3" class="node default"><rect height="49" width="148.578125" y="-24.5" x="-74.2890625" style="" class="basic label-container"/><g transform="translate(0, -9.5)" style="" class="label"><rect/><g><rect style="stroke: none" class="background"/><text style="" y="-10.1"><tspan dy="1.1em" y="-0.1em" x="0" class="text-outer-tspan"><tspan font-weight="normal" class="text-inner-tspan" font-style="normal">User</tspan><tspan font-weight="normal" class="text-inner-tspan" font-style="normal"> Service</tspan></tspan></text></g></g></g><g transform="translate(556.41796875, 305.5)" id="flowchart-ORDER-4" class="node default"><rect height="49" width="157.640625" y="-24.5" x="-78.8203125" style="" class="basic label-container"/><g transform="translate(0, -9.5)" style="" class="label"><rect/><g><rect style="stroke: none" class="background"/><text style="" y="-10.1"><tspan dy="1.1em" y="-0.1em" x="0" class="text-outer-tspan"><tspan font-weight="normal" class="text-inner-tspan" font-style="normal">Order</tspan><tspan font-weight="normal" class="text-inner-tspan" font-style="normal"> Service</tspan></tspan></text></g></g></g><g transform="translate(338.42578125, 305.5)" id="flowchart-PAYMENT-5" class="node default"><rect height="49" width="178.34375" y="-24.5" x="-89.171875" style="" class="basic label-container"/><g transform="translate(0, -9.5)" style="" class="label"><rect/><g><rect style="stroke: none" class="background"/><text style="" y="-10.1"><tspan dy="1.1em" y="-0.1em" x="0" class="text-outer-tspan"><tspan font-weight="normal" class="text-inner-tspan" font-style="normal">Payment</tspan><tspan font-weight="normal" class="text-inner-tspan" font-style="normal"> Service</tspan></tspan></text></g></g></g><g transform="translate(841.8828125, 404.5)" id="flowchart-INVENTORY-6" class="node default"><rect height="49" width="184.328125" y="-24.5" x="-92.1640625" style="" class="basic label-container"/><g transform="translate(0, -9.5)" style="" class="label"><rect/><g><rect style="stroke: none" class="background"/><text style="" y="-10.1"><tspan dy="1.1em" y="-0.1em" x="0" class="text-outer-tspan"><tspan font-weight="normal" class="text-inner-tspan" font-style="normal">Inventory</tspan><tspan font-weight="normal" class="text-inner-tspan" font-style="normal"> Service</tspan></tspan></text></g></g></g><g transform="translate(338.42578125, 404.5)" id="flowchart-NOTIFICATION-7" class="node default"><rect height="49" width="201.53125" y="-24.5" x="-100.765625" style="" class="basic label-container"/><g transform="translate(0, -9.5)" style="" class="label"><rect/><g><rect style="stroke: none" class="background"/><text style="" y="-10.1"><tspan dy="1.1em" y="-0.1em" x="0" class="text-outer-tspan"><tspan font-weight="normal" class="text-inner-tspan" font-style="normal">Notification</tspan><tspan font-weight="normal" class="text-inner-tspan" font-style="normal"> Service</tspan></tspan></text></g></g></g><g transform="translate(117.2890625, 563.2283592224121)" id="flowchart-USERDB-8" class="node default"><path transform="translate(-35.2421875, -30.521101430740945)" style="" class="basic label-container" d="M0,9.014067620493964 a35.2421875,9.014067620493964 0,0,0 70.484375,0 a35.2421875,9.014067620493964 0,0,0 -70.484375,0 l0,43.01406762049396 a35.2421875,9.014067620493964 0,0,0 70.484375,0 l0,-43.01406762049396"/><g transform="translate(0, -0.5)" style="" class="label"><rect/><g><rect style="stroke: none" class="background"/><text style="" y="-10.1"><tspan dy="1.1em" y="-0.1em" x="0" class="text-outer-tspan"><tspan font-weight="normal" class="text-inner-tspan" font-style="normal">User</tspan><tspan font-weight="normal" class="text-inner-tspan" font-style="normal"> DB</tspan></tspan></text></g></g></g><g transform="translate(548.7421875, 563.2283592224121)" id="flowchart-ORDERDB-9" class="node default"><path transform="translate(-39.7734375, -31.5834924757467)" style="" class="basic label-container" d="M0,9.722328317164465 a39.7734375,9.722328317164465 0,0,0 79.546875,0 a39.7734375,9.722328317164465 0,0,0 -79.546875,0 l0,43.72232831716447 a39.7734375,9.722328317164465 0,0,0 79.546875,0 l0,-43.72232831716447"/><g transform="translate(0, -0.5)" style="" class="label"><rect/><g><rect style="stroke: none" class="background"/><text style="" y="-10.1"><tspan dy="1.1em" y="-0.1em" x="0" class="text-outer-tspan"><tspan font-weight="normal" class="text-inner-tspan" font-style="normal">Order</tspan><tspan font-weight="normal" class="text-inner-tspan" font-style="normal"> DB</tspan></tspan></text></g></g></g><g transform="translate(688.640625, 563.2283592224121)" id="flowchart-PAYMENTDB-10" class="node default"><path transform="translate(-50.125, -33.68978912319645)" style="" class="basic label-container" d="M0,11.126526082130965 a50.125,11.126526082130965 0,0,0 100.25,0 a50.125,11.126526082130965 0,0,0 -100.25,0 l0,45.126526082130965 a50.125,11.126526082130965 0,0,0 100.25,0 l0,-45.126526082130965"/><g transform="translate(0, -0.5)" style="" class="label"><rect/><g><rect style="stroke: none" class="background"/><text style="" y="-10.1"><tspan dy="1.1em" y="-0.1em" x="0" class="text-outer-tspan"><tspan font-weight="normal" class="text-inner-tspan" font-style="normal">Payment</tspan><tspan font-weight="normal" class="text-inner-tspan" font-style="normal"> DB</tspan></tspan></text></g></g></g><g transform="translate(841.8828125, 563.2283592224121)" id="flowchart-INVENTORYDB-11" class="node default"><path transform="translate(-53.1171875, -34.228360024325966)" style="" class="basic label-container" d="M0,11.485573349550645 a53.1171875,11.485573349550645 0,0,0 106.234375,0 a53.1171875,11.485573349550645 0,0,0 -106.234375,0 l0,45.48557334955065 a53.1171875,11.485573349550645 0,0,0 106.234375,0 l0,-45.48557334955065"/><g transform="translate(0, -0.5)" style="" class="label"><rect/><g><rect style="stroke: none" class="background"/><text style="" y="-10.1"><tspan dy="1.1em" y="-0.1em" x="0" class="text-outer-tspan"><tspan font-weight="normal" class="text-inner-tspan" font-style="normal">Inventory</tspan><tspan font-weight="normal" class="text-inner-tspan" font-style="normal"> DB</tspan></tspan></text></g></g></g><g transform="translate(548.7421875, 32.5)" id="flowchart-CLIENT-12" class="node default"><rect height="49" width="187.9765625" y="-24.5" x="-93.98828125" style="" class="basic label-container"/><g transform="translate(0, -9.5)" style="" class="label"><rect/><g><rect style="stroke: none" class="background"/><text style="" y="-10.1"><tspan dy="1.1em" y="-0.1em" x="0" class="text-outer-tspan"><tspan font-weight="normal" class="text-inner-tspan" font-style="normal">Client</tspan><tspan font-weight="normal" class="text-inner-tspan" font-style="normal"> Application</tspan></tspan></text></g></g></g></g></g></g></svg>