<svg aria-roledescription="class" role="graphics-document document" viewBox="0 0 2253.765625 896.5999755859375" style="max-width: 2253.77px; background-color: white;" class="classDiagram" xmlns:xlink="http://www.w3.org/1999/xlink" xmlns="http://www.w3.org/2000/svg" width="100%" id="my-svg"><style>#my-svg{font-family:"trebuchet ms",verdana,arial,sans-serif;font-size:16px;fill:#333;}@keyframes edge-animation-frame{from{stroke-dashoffset:0;}}@keyframes dash{to{stroke-dashoffset:0;}}#my-svg .edge-animation-slow{stroke-dasharray:9,5!important;stroke-dashoffset:900;animation:dash 50s linear infinite;stroke-linecap:round;}#my-svg .edge-animation-fast{stroke-dasharray:9,5!important;stroke-dashoffset:900;animation:dash 20s linear infinite;stroke-linecap:round;}#my-svg .error-icon{fill:#552222;}#my-svg .error-text{fill:#552222;stroke:#552222;}#my-svg .edge-thickness-normal{stroke-width:1px;}#my-svg .edge-thickness-thick{stroke-width:3.5px;}#my-svg .edge-pattern-solid{stroke-dasharray:0;}#my-svg .edge-thickness-invisible{stroke-width:0;fill:none;}#my-svg .edge-pattern-dashed{stroke-dasharray:3;}#my-svg .edge-pattern-dotted{stroke-dasharray:2;}#my-svg .marker{fill:#333333;stroke:#333333;}#my-svg .marker.cross{stroke:#333333;}#my-svg svg{font-family:"trebuchet ms",verdana,arial,sans-serif;font-size:16px;}#my-svg p{margin:0;}#my-svg g.classGroup text{fill:#9370DB;stroke:none;font-family:"trebuchet ms",verdana,arial,sans-serif;font-size:10px;}#my-svg g.classGroup text .title{font-weight:bolder;}#my-svg .nodeLabel,#my-svg .edgeLabel{color:#131300;}#my-svg .edgeLabel .label rect{fill:#ECECFF;}#my-svg .label text{fill:#131300;}#my-svg .labelBkg{background:#ECECFF;}#my-svg .edgeLabel .label span{background:#ECECFF;}#my-svg .classTitle{font-weight:bolder;}#my-svg .node rect,#my-svg .node circle,#my-svg .node ellipse,#my-svg .node polygon,#my-svg .node path{fill:#ECECFF;stroke:#9370DB;stroke-width:1px;}#my-svg .divider{stroke:#9370DB;stroke-width:1;}#my-svg g.clickable{cursor:pointer;}#my-svg g.classGroup rect{fill:#ECECFF;stroke:#9370DB;}#my-svg g.classGroup line{stroke:#9370DB;stroke-width:1;}#my-svg .classLabel .box{stroke:none;stroke-width:0;fill:#ECECFF;opacity:0.5;}#my-svg .classLabel .label{fill:#9370DB;font-size:10px;}#my-svg .relation{stroke:#333333;stroke-width:1;fill:none;}#my-svg .dashed-line{stroke-dasharray:3;}#my-svg .dotted-line{stroke-dasharray:1 2;}#my-svg #compositionStart,#my-svg .composition{fill:#333333!important;stroke:#333333!important;stroke-width:1;}#my-svg #compositionEnd,#my-svg .composition{fill:#333333!important;stroke:#333333!important;stroke-width:1;}#my-svg #dependencyStart,#my-svg .dependency{fill:#333333!important;stroke:#333333!important;stroke-width:1;}#my-svg #dependencyStart,#my-svg .dependency{fill:#333333!important;stroke:#333333!important;stroke-width:1;}#my-svg #extensionStart,#my-svg .extension{fill:transparent!important;stroke:#333333!important;stroke-width:1;}#my-svg #extensionEnd,#my-svg .extension{fill:transparent!important;stroke:#333333!important;stroke-width:1;}#my-svg #aggregationStart,#my-svg .aggregation{fill:transparent!important;stroke:#333333!important;stroke-width:1;}#my-svg #aggregationEnd,#my-svg .aggregation{fill:transparent!important;stroke:#333333!important;stroke-width:1;}#my-svg #lollipopStart,#my-svg .lollipop{fill:#ECECFF!important;stroke:#333333!important;stroke-width:1;}#my-svg #lollipopEnd,#my-svg .lollipop{fill:#ECECFF!important;stroke:#333333!important;stroke-width:1;}#my-svg .edgeTerminals{font-size:11px;line-height:initial;}#my-svg .classTitleText{text-anchor:middle;font-size:18px;fill:#333;}#my-svg .label-icon{display:inline-block;height:1em;overflow:visible;vertical-align:-0.125em;}#my-svg .node .label-icon path{fill:currentColor;stroke:revert;stroke-width:revert;}#my-svg :root{--mermaid-font-family:"trebuchet ms",verdana,arial,sans-serif;}</style><g><defs><marker orient="auto" markerHeight="240" markerWidth="190" refY="7" refX="18" class="marker aggregation class" id="my-svg_class-aggregationStart"><path d="M 18,7 L9,13 L1,7 L9,1 Z"/></marker></defs><defs><marker orient="auto" markerHeight="28" markerWidth="20" refY="7" refX="1" class="marker aggregation class" id="my-svg_class-aggregationEnd"><path d="M 18,7 L9,13 L1,7 L9,1 Z"/></marker></defs><defs><marker orient="auto" markerHeight="240" markerWidth="190" refY="7" refX="18" class="marker extension class" id="my-svg_class-extensionStart"><path d="M 1,7 L18,13 V 1 Z"/></marker></defs><defs><marker orient="auto" markerHeight="28" markerWidth="20" refY="7" refX="1" class="marker extension class" id="my-svg_class-extensionEnd"><path d="M 1,1 V 13 L18,7 Z"/></marker></defs><defs><marker orient="auto" markerHeight="240" markerWidth="190" refY="7" refX="18" class="marker composition class" id="my-svg_class-compositionStart"><path d="M 18,7 L9,13 L1,7 L9,1 Z"/></marker></defs><defs><marker orient="auto" markerHeight="28" markerWidth="20" refY="7" refX="1" class="marker composition class" id="my-svg_class-compositionEnd"><path d="M 18,7 L9,13 L1,7 L9,1 Z"/></marker></defs><defs><marker orient="auto" markerHeight="240" markerWidth="190" refY="7" refX="6" class="marker dependency class" id="my-svg_class-dependencyStart"><path d="M 5,7 L9,13 L1,7 L9,1 Z"/></marker></defs><defs><marker orient="auto" markerHeight="28" markerWidth="20" refY="7" refX="13" class="marker dependency class" id="my-svg_class-dependencyEnd"><path d="M 18,7 L9,13 L14,7 L9,1 Z"/></marker></defs><defs><marker orient="auto" markerHeight="240" markerWidth="190" refY="7" refX="13" class="marker lollipop class" id="my-svg_class-lollipopStart"><circle r="6" cy="7" cx="7" fill="transparent" stroke="black"/></marker></defs><defs><marker orient="auto" markerHeight="240" markerWidth="190" refY="7" refX="1" class="marker lollipop class" id="my-svg_class-lollipopEnd"><circle r="6" cy="7" cx="7" fill="transparent" stroke="black"/></marker></defs><g class="root"><g class="clusters"/><g class="edgePaths"><path marker-end="url(#my-svg_class-dependencyEnd)" style="" class="edge-thickness-normal edge-pattern-solid relation" id="id_OrderService_ProductService_1" d="M1090.066,237.434L1044.036,251.712C998.007,265.99,905.947,294.545,859.917,315.739C813.887,336.933,813.887,350.767,813.887,357.683L813.887,364.6"/><path marker-end="url(#my-svg_class-dependencyEnd)" style="" class="edge-thickness-normal edge-pattern-solid relation" id="id_OrderService_InventoryService_2" d="M1380.652,286.6L1380.652,292.683C1380.652,298.767,1380.652,310.933,1380.652,323.933C1380.652,336.933,1380.652,350.767,1380.652,357.683L1380.652,364.6"/><path marker-end="url(#my-svg_class-dependencyEnd)" style="" class="edge-thickness-normal edge-pattern-solid relation" id="id_OrderService_PaymentService_3" d="M1671.238,234.941L1719.956,249.634C1768.673,264.327,1866.108,293.714,1914.826,317.157C1963.543,340.6,1963.543,358.1,1963.543,366.85L1963.543,375.6"/><path marker-end="url(#my-svg_class-dependencyEnd)" style="" class="edge-thickness-normal edge-pattern-solid relation" id="id_UserService_NotificationService_4" d="M252.895,598.6L252.895,604.683C252.895,610.767,252.895,622.933,400.282,647.967C547.669,673,842.443,710.9,989.83,729.851L1137.217,748.801"/><path marker-end="url(#my-svg_class-dependencyEnd)" style="" class="edge-thickness-normal edge-pattern-solid relation" id="id_InventoryService_NotificationService_5" d="M1380.652,587.6L1380.652,595.517C1380.652,603.433,1380.652,619.267,1380.652,632.267C1380.652,645.267,1380.652,655.433,1380.652,660.517L1380.652,665.6"/><path marker-end="url(#my-svg_class-dependencyEnd)" style="" class="edge-thickness-normal edge-pattern-solid relation" id="id_PaymentService_NotificationService_6" d="M1963.543,576.6L1963.543,586.35C1963.543,596.1,1963.543,615.6,1906.946,639.429C1850.348,663.258,1737.154,691.417,1680.557,705.496L1623.959,719.575"/></g><g class="edgeLabels"><g transform="translate(813.88671875, 323.1000061035156)" class="edgeLabel"><g transform="translate(-17.47265625, -11.5)" class="label"><g><rect height="23" width="34.9453125" y="-1" x="-2" style=";display: inline-block" class="background"/><text style=";display: inline-block" y="-10.1"><tspan dy="1.1em" y="-0.1em" x="0" class="text-outer-tspan"><tspan font-weight="normal" class="text-inner-tspan" font-style="normal">uses</tspan></tspan></text></g></g></g><g transform="translate(1380.65234375, 323.1000061035156)" class="edgeLabel"><g transform="translate(-17.47265625, -11.5)" class="label"><g><rect height="23" width="34.9453125" y="-1" x="-2" style=";display: inline-block" class="background"/><text style=";display: inline-block" y="-10.1"><tspan dy="1.1em" y="-0.1em" x="0" class="text-outer-tspan"><tspan font-weight="normal" class="text-inner-tspan" font-style="normal">uses</tspan></tspan></text></g></g></g><g transform="translate(1963.54296875, 323.1000061035156)" class="edgeLabel"><g transform="translate(-17.47265625, -11.5)" class="label"><g><rect height="23" width="34.9453125" y="-1" x="-2" style=";display: inline-block" class="background"/><text style=";display: inline-block" y="-10.1"><tspan dy="1.1em" y="-0.1em" x="0" class="text-outer-tspan"><tspan font-weight="normal" class="text-inner-tspan" font-style="normal">uses</tspan></tspan></text></g></g></g><g transform="translate(252.89453125, 635.1000061035156)" class="edgeLabel"><g transform="translate(-17.47265625, -11.5)" class="label"><g><rect height="23" width="34.9453125" y="-1" x="-2" style=";display: inline-block" class="background"/><text style=";display: inline-block" y="-10.1"><tspan dy="1.1em" y="-0.1em" x="0" class="text-outer-tspan"><tspan font-weight="normal" class="text-inner-tspan" font-style="normal">uses</tspan></tspan></text></g></g></g><g transform="translate(1380.65234375, 635.1000061035156)" class="edgeLabel"><g transform="translate(-17.47265625, -11.5)" class="label"><g><rect height="23" width="34.9453125" y="-1" x="-2" style=";display: inline-block" class="background"/><text style=";display: inline-block" y="-10.1"><tspan dy="1.1em" y="-0.1em" x="0" class="text-outer-tspan"><tspan font-weight="normal" class="text-inner-tspan" font-style="normal">uses</tspan></tspan></text></g></g></g><g transform="translate(1963.54296875, 635.1000061035156)" class="edgeLabel"><g transform="translate(-17.47265625, -11.5)" class="label"><g><rect height="23" width="34.9453125" y="-1" x="-2" style=";display: inline-block" class="background"/><text style=";display: inline-block" y="-10.1"><tspan dy="1.1em" y="-0.1em" x="0" class="text-outer-tspan"><tspan font-weight="normal" class="text-inner-tspan" font-style="normal">uses</tspan></tspan></text></g></g></g></g><g class="nodes"><g transform="translate(252.89453125, 479.1000061035156)" id="classId-UserService-0" class="node default"><g class="basic label-container"><path style="" fill="#ECECFF" stroke-width="0" stroke="none" d="M-244.89453125 -119.5 L244.89453125 -119.5 L244.89453125 119.5 L-244.89453125 119.5"/><path style="" fill="none" stroke-width="1.3" stroke="#9370DB" d="M-244.89453125 -119.5 C-76.19906269155041 -119.5, 92.49640586689918 -119.5, 244.89453125 -119.5 M-244.89453125 -119.5 C-120.60076656185771 -119.5, 3.6929981262845786 -119.5, 244.89453125 -119.5 M244.89453125 -119.5 C244.89453125 -52.75706407336848, 244.89453125 13.985871853263035, 244.89453125 119.5 M244.89453125 -119.5 C244.89453125 -28.704789089742846, 244.89453125 62.09042182051431, 244.89453125 119.5 M244.89453125 119.5 C102.85418012976788 119.5, -39.186170990464234 119.5, -244.89453125 119.5 M244.89453125 119.5 C85.06595394017282 119.5, -74.76262336965436 119.5, -244.89453125 119.5 M-244.89453125 119.5 C-244.89453125 39.392446063387624, -244.89453125 -40.71510787322475, -244.89453125 -119.5 M-244.89453125 119.5 C-244.89453125 39.32742249071693, -244.89453125 -40.845155018566146, -244.89453125 -119.5"/></g><g transform="translate(0, -99.5)" class="annotation-group text"/><g transform="translate(-44.5390625, -99.5)" class="label-group text"><g transform="translate(0,-9.5)" style="font-weight: bolder" class="label"><g><rect style="stroke: none" class="background"/><text style="" y="-10.1"><tspan font-weight="" dy="1.1em" y="-0.1em" x="0" class="text-outer-tspan"><tspan font-weight="" class="text-inner-tspan" font-style="normal">UserService</tspan></tspan></text></g></g></g><g transform="translate(-232.89453125, -56.5)" class="members-group text"><g transform="translate(0,-9.5)" style="" class="label"><g><rect style="stroke: none" class="background"/><text style="" y="-10.1"><tspan dy="1.1em" y="-0.1em" x="0" class="text-outer-tspan"><tspan font-weight="normal" class="text-inner-tspan" font-style="normal">-UserRepository</tspan><tspan font-weight="normal" class="text-inner-tspan" font-style="normal"> userRepository</tspan></tspan></text></g></g><g transform="translate(0,12.5)" style="" class="label"><g><rect style="stroke: none" class="background"/><text style="" y="-10.1"><tspan dy="1.1em" y="-0.1em" x="0" class="text-outer-tspan"><tspan font-weight="normal" class="text-inner-tspan" font-style="normal">-PasswordEncoder</tspan><tspan font-weight="normal" class="text-inner-tspan" font-style="normal"> passwordEncoder</tspan></tspan></text></g></g><g transform="translate(0,34.5)" style="" class="label"><g><rect style="stroke: none" class="background"/><text style="" y="-10.1"><tspan dy="1.1em" y="-0.1em" x="0" class="text-outer-tspan"><tspan font-weight="normal" class="text-inner-tspan" font-style="normal">-EmailService</tspan><tspan font-weight="normal" class="text-inner-tspan" font-style="normal"> emailService</tspan></tspan></text></g></g></g><g transform="translate(-232.89453125, 30.5)" class="methods-group text"><g transform="translate(0,-9.5)" style="" class="label"><g><rect style="stroke: none" class="background"/><text style="" y="-10.1"><tspan dy="1.1em" y="-0.1em" x="0" class="text-outer-tspan"><tspan font-weight="normal" class="text-inner-tspan" font-style="normal">+createUser(userData:</tspan><tspan font-weight="normal" class="text-inner-tspan" font-style="normal"> CreateUserRequest)</tspan><tspan font-weight="normal" class="text-inner-tspan" font-style="normal"> :</tspan><tspan font-weight="normal" class="text-inner-tspan" font-style="normal"> User</tspan></tspan></text></g></g><g transform="translate(0,12.5)" style="" class="label"><g><rect style="stroke: none" class="background"/><text style="" y="-10.1"><tspan dy="1.1em" y="-0.1em" x="0" class="text-outer-tspan"><tspan font-weight="normal" class="text-inner-tspan" font-style="normal">+authenticateUser(credentials:</tspan><tspan font-weight="normal" class="text-inner-tspan" font-style="normal"> LoginRequest)</tspan><tspan font-weight="normal" class="text-inner-tspan" font-style="normal"> :</tspan><tspan font-weight="normal" class="text-inner-tspan" font-style="normal"> AuthResult</tspan></tspan></text></g></g><g transform="translate(0,34.5)" style="" class="label"><g><rect style="stroke: none" class="background"/><text style="" y="-10.1"><tspan dy="1.1em" y="-0.1em" x="0" class="text-outer-tspan"><tspan font-weight="normal" class="text-inner-tspan" font-style="normal">+updateUserProfile(userId:</tspan><tspan font-weight="normal" class="text-inner-tspan" font-style="normal"> int,</tspan><tspan font-weight="normal" class="text-inner-tspan" font-style="normal"> profile:</tspan><tspan font-weight="normal" class="text-inner-tspan" font-style="normal"> UserProfile)</tspan><tspan font-weight="normal" class="text-inner-tspan" font-style="normal"> :</tspan><tspan font-weight="normal" class="text-inner-tspan" font-style="normal"> void</tspan></tspan></text></g></g><g transform="translate(0,56.5)" style="" class="label"><g><rect style="stroke: none" class="background"/><text style="" y="-10.1"><tspan dy="1.1em" y="-0.1em" x="0" class="text-outer-tspan"><tspan font-weight="normal" class="text-inner-tspan" font-style="normal">+resetPassword(email:</tspan><tspan font-weight="normal" class="text-inner-tspan" font-style="normal"> string)</tspan><tspan font-weight="normal" class="text-inner-tspan" font-style="normal"> :</tspan><tspan font-weight="normal" class="text-inner-tspan" font-style="normal"> void</tspan></tspan></text></g></g></g><g style="" class="divider"><path style="" fill="none" stroke-width="1.3" stroke="#9370DB" d="M-244.89453125 -76.5 C-78.74095499653484 -76.5, 87.41262125693032 -76.5, 244.89453125 -76.5 M-244.89453125 -76.5 C-114.02000777464545 -76.5, 16.8545157007091 -76.5, 244.89453125 -76.5"/></g><g style="" class="divider"><path style="" fill="none" stroke-width="1.3" stroke="#9370DB" d="M-244.89453125 10.5 C-62.229940897756364 10.5, 120.43464945448727 10.5, 244.89453125 10.5 M-244.89453125 10.5 C-97.47060770038141 10.5, 49.953315849237185 10.5, 244.89453125 10.5"/></g></g><g transform="translate(1380.65234375, 147.3000030517578)" id="classId-OrderService-1" class="node default"><g class="basic label-container"><path style="" fill="#ECECFF" stroke-width="0" stroke="none" d="M-290.5859375 -139.3000030517578 L290.5859375 -139.3000030517578 L290.5859375 139.3000030517578 L-290.5859375 139.3000030517578"/><path style="" fill="none" stroke-width="1.3" stroke="#9370DB" d="M-290.5859375 -139.3000030517578 C-115.49898551962488 -139.3000030517578, 59.58796646075024 -139.3000030517578, 290.5859375 -139.3000030517578 M-290.5859375 -139.3000030517578 C-108.33989484469052 -139.3000030517578, 73.90614781061896 -139.3000030517578, 290.5859375 -139.3000030517578 M290.5859375 -139.3000030517578 C290.5859375 -59.16474651519822, 290.5859375 20.970510021361378, 290.5859375 139.3000030517578 M290.5859375 -139.3000030517578 C290.5859375 -57.405034016053435, 290.5859375 24.489935019650943, 290.5859375 139.3000030517578 M290.5859375 139.3000030517578 C113.57030384540303 139.3000030517578, -63.445329809193936 139.3000030517578, -290.5859375 139.3000030517578 M290.5859375 139.3000030517578 C112.5637047164279 139.3000030517578, -65.45852806714419 139.3000030517578, -290.5859375 139.3000030517578 M-290.5859375 139.3000030517578 C-290.5859375 79.99156158427304, -290.5859375 20.683120116788274, -290.5859375 -139.3000030517578 M-290.5859375 139.3000030517578 C-290.5859375 68.08704321379366, -290.5859375 -3.125916624170486, -290.5859375 -139.3000030517578"/></g><g transform="translate(0, -119.30000305175781)" class="annotation-group text"/><g transform="translate(-49.359375, -119.30000305175781)" class="label-group text"><g transform="translate(0,-9.5)" style="font-weight: bolder" class="label"><g><rect style="stroke: none" class="background"/><text style="" y="-10.1"><tspan font-weight="" dy="1.1em" y="-0.1em" x="0" class="text-outer-tspan"><tspan font-weight="" class="text-inner-tspan" font-style="normal">OrderService</tspan></tspan></text></g></g></g><g transform="translate(-278.5859375, -76.30000305175781)" class="members-group text"><g transform="translate(0,-9.5)" style="" class="label"><g><rect style="stroke: none" class="background"/><text style="" y="-10.1"><tspan dy="1.1em" y="-0.1em" x="0" class="text-outer-tspan"><tspan font-weight="normal" class="text-inner-tspan" font-style="normal">-OrderRepository</tspan><tspan font-weight="normal" class="text-inner-tspan" font-style="normal"> orderRepository</tspan></tspan></text></g></g><g transform="translate(0,12.5)" style="" class="label"><g><rect style="stroke: none" class="background"/><text style="" y="-10.1"><tspan dy="1.1em" y="-0.1em" x="0" class="text-outer-tspan"><tspan font-weight="normal" class="text-inner-tspan" font-style="normal">-ProductService</tspan><tspan font-weight="normal" class="text-inner-tspan" font-style="normal"> productService</tspan></tspan></text></g></g><g transform="translate(0,34.5)" style="" class="label"><g><rect style="stroke: none" class="background"/><text style="" y="-10.1"><tspan dy="1.1em" y="-0.1em" x="0" class="text-outer-tspan"><tspan font-weight="normal" class="text-inner-tspan" font-style="normal">-InventoryService</tspan><tspan font-weight="normal" class="text-inner-tspan" font-style="normal"> inventoryService</tspan></tspan></text></g></g><g transform="translate(0,56.5)" style="" class="label"><g><rect style="stroke: none" class="background"/><text style="" y="-10.1"><tspan dy="1.1em" y="-0.1em" x="0" class="text-outer-tspan"><tspan font-weight="normal" class="text-inner-tspan" font-style="normal">-PaymentService</tspan><tspan font-weight="normal" class="text-inner-tspan" font-style="normal"> paymentService</tspan></tspan></text></g></g></g><g transform="translate(-278.5859375, 32.69999694824219)" class="methods-group text"><g transform="translate(0,-9.149999618530273)" style="" class="label"><g><rect style="stroke: none" class="background"/><text style="" y="-10.1"><tspan dy="1.1em" y="-0.1em" x="0" class="text-outer-tspan">+createOrder(customerId: int, items: List&lt;OrderItemRequest&gt;) : Order</tspan><tspan dy="1.1em" y="1em" x="0" class="text-outer-tspan"><tspan font-weight="normal" class="text-inner-tspan" font-style="normal">Order</tspan></tspan></text></g></g><g transform="translate(0,30.099998474121094)" style="" class="label"><g><rect style="stroke: none" class="background"/><text style="" y="-10.1"><tspan dy="1.1em" y="-0.1em" x="0" class="text-outer-tspan"><tspan font-weight="normal" class="text-inner-tspan" font-style="normal">+updateOrderStatus(orderId:</tspan><tspan font-weight="normal" class="text-inner-tspan" font-style="normal"> int,</tspan><tspan font-weight="normal" class="text-inner-tspan" font-style="normal"> status:</tspan><tspan font-weight="normal" class="text-inner-tspan" font-style="normal"> OrderStatus)</tspan><tspan font-weight="normal" class="text-inner-tspan" font-style="normal"> :</tspan><tspan font-weight="normal" class="text-inner-tspan" font-style="normal"> void</tspan></tspan></text></g></g><g transform="translate(0,52.099998474121094)" style="" class="label"><g><rect style="stroke: none" class="background"/><text style="" y="-10.1"><tspan dy="1.1em" y="-0.1em" x="0" class="text-outer-tspan"><tspan font-weight="normal" class="text-inner-tspan" font-style="normal">+cancelOrder(orderId:</tspan><tspan font-weight="normal" class="text-inner-tspan" font-style="normal"> int)</tspan><tspan font-weight="normal" class="text-inner-tspan" font-style="normal"> :</tspan><tspan font-weight="normal" class="text-inner-tspan" font-style="normal"> boolean</tspan></tspan></text></g></g><g transform="translate(0,74.0999984741211)" style="" class="label"><g><rect style="stroke: none" class="background"/><text style="" y="-10.1"><tspan dy="1.1em" y="-0.1em" x="0" class="text-outer-tspan">+getOrdersByCustomer(customerId: int) : List&lt;Order&gt;</tspan></text></g></g></g><g style="" class="divider"><path style="" fill="none" stroke-width="1.3" stroke="#9370DB" d="M-290.5859375 -96.30000305175781 C-143.20972180718942 -96.30000305175781, 4.166493885621151 -96.30000305175781, 290.5859375 -96.30000305175781 M-290.5859375 -96.30000305175781 C-82.6993696630208 -96.30000305175781, 125.1871981739584 -96.30000305175781, 290.5859375 -96.30000305175781"/></g><g style="" class="divider"><path style="" fill="none" stroke-width="1.3" stroke="#9370DB" d="M-290.5859375 12.699996948242188 C-172.30782482071527 12.699996948242188, -54.029712141430565 12.699996948242188, 290.5859375 12.699996948242188 M-290.5859375 12.699996948242188 C-127.53150153227367 12.699996948242188, 35.52293443545267 12.699996948242188, 290.5859375 12.699996948242188"/></g></g><g transform="translate(813.88671875, 479.1000061035156)" id="classId-ProductService-2" class="node default"><g class="basic label-container"><path style="" fill="#ECECFF" stroke-width="0" stroke="none" d="M-266.09765625 -108.5 L266.09765625 -108.5 L266.09765625 108.5 L-266.09765625 108.5"/><path style="" fill="none" stroke-width="1.3" stroke="#9370DB" d="M-266.09765625 -108.5 C-110.02514933059197 -108.5, 46.047357588816055 -108.5, 266.09765625 -108.5 M-266.09765625 -108.5 C-63.613386237598746 -108.5, 138.8708837748025 -108.5, 266.09765625 -108.5 M266.09765625 -108.5 C266.09765625 -34.4838408865144, 266.09765625 39.5323182269712, 266.09765625 108.5 M266.09765625 -108.5 C266.09765625 -63.91309824976462, 266.09765625 -19.326196499529246, 266.09765625 108.5 M266.09765625 108.5 C142.80364335529225 108.5, 19.509630460584475 108.5, -266.09765625 108.5 M266.09765625 108.5 C149.96294030148192 108.5, 33.828224352963815 108.5, -266.09765625 108.5 M-266.09765625 108.5 C-266.09765625 37.86185501180947, -266.09765625 -32.776289976381065, -266.09765625 -108.5 M-266.09765625 108.5 C-266.09765625 55.07877364585856, -266.09765625 1.6575472917171226, -266.09765625 -108.5"/></g><g transform="translate(0, -88.5)" class="annotation-group text"/><g transform="translate(-56.9296875, -88.5)" class="label-group text"><g transform="translate(0,-9.5)" style="font-weight: bolder" class="label"><g><rect style="stroke: none" class="background"/><text style="" y="-10.1"><tspan font-weight="" dy="1.1em" y="-0.1em" x="0" class="text-outer-tspan"><tspan font-weight="" class="text-inner-tspan" font-style="normal">ProductService</tspan></tspan></text></g></g></g><g transform="translate(-254.09765625, -45.5)" class="members-group text"><g transform="translate(0,-9.5)" style="" class="label"><g><rect style="stroke: none" class="background"/><text style="" y="-10.1"><tspan dy="1.1em" y="-0.1em" x="0" class="text-outer-tspan"><tspan font-weight="normal" class="text-inner-tspan" font-style="normal">-ProductRepository</tspan><tspan font-weight="normal" class="text-inner-tspan" font-style="normal"> productRepository</tspan></tspan></text></g></g><g transform="translate(0,12.5)" style="" class="label"><g><rect style="stroke: none" class="background"/><text style="" y="-10.1"><tspan dy="1.1em" y="-0.1em" x="0" class="text-outer-tspan"><tspan font-weight="normal" class="text-inner-tspan" font-style="normal">-CategoryRepository</tspan><tspan font-weight="normal" class="text-inner-tspan" font-style="normal"> categoryRepository</tspan></tspan></text></g></g></g><g transform="translate(-254.09765625, 19.5)" class="methods-group text"><g transform="translate(0,-9.5)" style="" class="label"><g><rect style="stroke: none" class="background"/><text style="" y="-10.1"><tspan dy="1.1em" y="-0.1em" x="0" class="text-outer-tspan"><tspan font-weight="normal" class="text-inner-tspan" font-style="normal">+createProduct(productData:</tspan><tspan font-weight="normal" class="text-inner-tspan" font-style="normal"> CreateProductRequest)</tspan><tspan font-weight="normal" class="text-inner-tspan" font-style="normal"> :</tspan><tspan font-weight="normal" class="text-inner-tspan" font-style="normal"> Product</tspan></tspan></text></g></g><g transform="translate(0,12.5)" style="" class="label"><g><rect style="stroke: none" class="background"/><text style="" y="-10.1"><tspan dy="1.1em" y="-0.1em" x="0" class="text-outer-tspan"><tspan font-weight="normal" class="text-inner-tspan" font-style="normal">+updateProductPrice(productId:</tspan><tspan font-weight="normal" class="text-inner-tspan" font-style="normal"> int,</tspan><tspan font-weight="normal" class="text-inner-tspan" font-style="normal"> price:</tspan><tspan font-weight="normal" class="text-inner-tspan" font-style="normal"> decimal)</tspan><tspan font-weight="normal" class="text-inner-tspan" font-style="normal"> :</tspan><tspan font-weight="normal" class="text-inner-tspan" font-style="normal"> void</tspan></tspan></text></g></g><g transform="translate(0,34.5)" style="" class="label"><g><rect style="stroke: none" class="background"/><text style="" y="-10.1"><tspan dy="1.1em" y="-0.1em" x="0" class="text-outer-tspan">+searchProducts(criteria: SearchCriteria) : List&lt;Product&gt;</tspan></text></g></g><g transform="translate(0,56.5)" style="" class="label"><g><rect style="stroke: none" class="background"/><text style="" y="-10.1"><tspan dy="1.1em" y="-0.1em" x="0" class="text-outer-tspan">+getProductsByCategory(categoryId: int) : List&lt;Product&gt;</tspan></text></g></g></g><g style="" class="divider"><path style="" fill="none" stroke-width="1.3" stroke="#9370DB" d="M-266.09765625 -65.5 C-75.38061103058857 -65.5, 115.33643418882286 -65.5, 266.09765625 -65.5 M-266.09765625 -65.5 C-61.63205272954704 -65.5, 142.83355079090592 -65.5, 266.09765625 -65.5"/></g><g style="" class="divider"><path style="" fill="none" stroke-width="1.3" stroke="#9370DB" d="M-266.09765625 -0.5 C-128.8398157661984 -0.5, 8.418024717603203 -0.5, 266.09765625 -0.5 M-266.09765625 -0.5 C-134.23727805954204 -0.5, -2.3768998690840704 -0.5, 266.09765625 -0.5"/></g></g><g transform="translate(1380.65234375, 479.1000061035156)" id="classId-InventoryService-3" class="node default"><g class="basic label-container"><path style="" fill="#ECECFF" stroke-width="0" stroke="none" d="M-250.66796875 -108.5 L250.66796875 -108.5 L250.66796875 108.5 L-250.66796875 108.5"/><path style="" fill="none" stroke-width="1.3" stroke="#9370DB" d="M-250.66796875 -108.5 C-69.90405430008863 -108.5, 110.85986014982274 -108.5, 250.66796875 -108.5 M-250.66796875 -108.5 C-69.31227204563501 -108.5, 112.04342465872998 -108.5, 250.66796875 -108.5 M250.66796875 -108.5 C250.66796875 -47.02400151088723, 250.66796875 14.451996978225537, 250.66796875 108.5 M250.66796875 -108.5 C250.66796875 -59.952482458168156, 250.66796875 -11.404964916336311, 250.66796875 108.5 M250.66796875 108.5 C82.55168461899572 108.5, -85.56459951200856 108.5, -250.66796875 108.5 M250.66796875 108.5 C103.20578376754298 108.5, -44.256401214914035 108.5, -250.66796875 108.5 M-250.66796875 108.5 C-250.66796875 29.099565463815054, -250.66796875 -50.30086907236989, -250.66796875 -108.5 M-250.66796875 108.5 C-250.66796875 33.333259652625316, -250.66796875 -41.83348069474937, -250.66796875 -108.5"/></g><g transform="translate(0, -88.5)" class="annotation-group text"/><g transform="translate(-63.53125, -88.5)" class="label-group text"><g transform="translate(0,-9.5)" style="font-weight: bolder" class="label"><g><rect style="stroke: none" class="background"/><text style="" y="-10.1"><tspan font-weight="" dy="1.1em" y="-0.1em" x="0" class="text-outer-tspan"><tspan font-weight="" class="text-inner-tspan" font-style="normal">InventoryService</tspan></tspan></text></g></g></g><g transform="translate(-238.66796875, -45.5)" class="members-group text"><g transform="translate(0,-9.5)" style="" class="label"><g><rect style="stroke: none" class="background"/><text style="" y="-10.1"><tspan dy="1.1em" y="-0.1em" x="0" class="text-outer-tspan"><tspan font-weight="normal" class="text-inner-tspan" font-style="normal">-InventoryRepository</tspan><tspan font-weight="normal" class="text-inner-tspan" font-style="normal"> inventoryRepository</tspan></tspan></text></g></g><g transform="translate(0,12.5)" style="" class="label"><g><rect style="stroke: none" class="background"/><text style="" y="-10.1"><tspan dy="1.1em" y="-0.1em" x="0" class="text-outer-tspan"><tspan font-weight="normal" class="text-inner-tspan" font-style="normal">-NotificationService</tspan><tspan font-weight="normal" class="text-inner-tspan" font-style="normal"> notificationService</tspan></tspan></text></g></g></g><g transform="translate(-238.66796875, 19.5)" class="methods-group text"><g transform="translate(0,-9.5)" style="" class="label"><g><rect style="stroke: none" class="background"/><text style="" y="-10.1"><tspan dy="1.1em" y="-0.1em" x="0" class="text-outer-tspan"><tspan font-weight="normal" class="text-inner-tspan" font-style="normal">+checkAvailability(productId:</tspan><tspan font-weight="normal" class="text-inner-tspan" font-style="normal"> int,</tspan><tspan font-weight="normal" class="text-inner-tspan" font-style="normal"> quantity:</tspan><tspan font-weight="normal" class="text-inner-tspan" font-style="normal"> int)</tspan><tspan font-weight="normal" class="text-inner-tspan" font-style="normal"> :</tspan><tspan font-weight="normal" class="text-inner-tspan" font-style="normal"> boolean</tspan></tspan></text></g></g><g transform="translate(0,12.5)" style="" class="label"><g><rect style="stroke: none" class="background"/><text style="" y="-10.1"><tspan dy="1.1em" y="-0.1em" x="0" class="text-outer-tspan"><tspan font-weight="normal" class="text-inner-tspan" font-style="normal">+reserveStock(productId:</tspan><tspan font-weight="normal" class="text-inner-tspan" font-style="normal"> int,</tspan><tspan font-weight="normal" class="text-inner-tspan" font-style="normal"> quantity:</tspan><tspan font-weight="normal" class="text-inner-tspan" font-style="normal"> int)</tspan><tspan font-weight="normal" class="text-inner-tspan" font-style="normal"> :</tspan><tspan font-weight="normal" class="text-inner-tspan" font-style="normal"> boolean</tspan></tspan></text></g></g><g transform="translate(0,34.5)" style="" class="label"><g><rect style="stroke: none" class="background"/><text style="" y="-10.1"><tspan dy="1.1em" y="-0.1em" x="0" class="text-outer-tspan"><tspan font-weight="normal" class="text-inner-tspan" font-style="normal">+adjustStock(productId:</tspan><tspan font-weight="normal" class="text-inner-tspan" font-style="normal"> int,</tspan><tspan font-weight="normal" class="text-inner-tspan" font-style="normal"> adjustment:</tspan><tspan font-weight="normal" class="text-inner-tspan" font-style="normal"> int)</tspan><tspan font-weight="normal" class="text-inner-tspan" font-style="normal"> :</tspan><tspan font-weight="normal" class="text-inner-tspan" font-style="normal"> void</tspan></tspan></text></g></g><g transform="translate(0,56.5)" style="" class="label"><g><rect style="stroke: none" class="background"/><text style="" y="-10.1"><tspan dy="1.1em" y="-0.1em" x="0" class="text-outer-tspan"><tspan font-weight="normal" class="text-inner-tspan" font-style="normal">+getStockLevel(productId:</tspan><tspan font-weight="normal" class="text-inner-tspan" font-style="normal"> int)</tspan><tspan font-weight="normal" class="text-inner-tspan" font-style="normal"> :</tspan><tspan font-weight="normal" class="text-inner-tspan" font-style="normal"> int</tspan></tspan></text></g></g></g><g style="" class="divider"><path style="" fill="none" stroke-width="1.3" stroke="#9370DB" d="M-250.66796875 -65.5 C-133.9079321232655 -65.5, -17.14789549653102 -65.5, 250.66796875 -65.5 M-250.66796875 -65.5 C-129.35579003814192 -65.5, -8.043611326283838 -65.5, 250.66796875 -65.5"/></g><g style="" class="divider"><path style="" fill="none" stroke-width="1.3" stroke="#9370DB" d="M-250.66796875 -0.5 C-70.52448692859878 -0.5, 109.61899489280245 -0.5, 250.66796875 -0.5 M-250.66796875 -0.5 C-114.14727179871574 -0.5, 22.37342515256853 -0.5, 250.66796875 -0.5"/></g></g><g transform="translate(1963.54296875, 479.1000061035156)" id="classId-PaymentService-4" class="node default"><g class="basic label-container"><path style="" fill="#ECECFF" stroke-width="0" stroke="none" d="M-282.22265625 -97.5 L282.22265625 -97.5 L282.22265625 97.5 L-282.22265625 97.5"/><path style="" fill="none" stroke-width="1.3" stroke="#9370DB" d="M-282.22265625 -97.5 C-56.494189656083904 -97.5, 169.2342769378322 -97.5, 282.22265625 -97.5 M-282.22265625 -97.5 C-90.63362142421695 -97.5, 100.95541340156609 -97.5, 282.22265625 -97.5 M282.22265625 -97.5 C282.22265625 -30.029232398438538, 282.22265625 37.441535203122925, 282.22265625 97.5 M282.22265625 -97.5 C282.22265625 -52.56857495279397, 282.22265625 -7.637149905587947, 282.22265625 97.5 M282.22265625 97.5 C129.38718389611867 97.5, -23.448288457762658 97.5, -282.22265625 97.5 M282.22265625 97.5 C57.770617005695954 97.5, -166.6814222386081 97.5, -282.22265625 97.5 M-282.22265625 97.5 C-282.22265625 42.33151517254574, -282.22265625 -12.836969654908515, -282.22265625 -97.5 M-282.22265625 97.5 C-282.22265625 52.83843950895753, -282.22265625 8.176879017915056, -282.22265625 -97.5"/></g><g transform="translate(0, -77.5)" class="annotation-group text"/><g transform="translate(-59.875, -77.5)" class="label-group text"><g transform="translate(0,-9.5)" style="font-weight: bolder" class="label"><g><rect style="stroke: none" class="background"/><text style="" y="-10.1"><tspan font-weight="" dy="1.1em" y="-0.1em" x="0" class="text-outer-tspan"><tspan font-weight="" class="text-inner-tspan" font-style="normal">PaymentService</tspan></tspan></text></g></g></g><g transform="translate(-270.22265625, -34.5)" class="members-group text"><g transform="translate(0,-9.5)" style="" class="label"><g><rect style="stroke: none" class="background"/><text style="" y="-10.1"><tspan dy="1.1em" y="-0.1em" x="0" class="text-outer-tspan"><tspan font-weight="normal" class="text-inner-tspan" font-style="normal">-PaymentGateway</tspan><tspan font-weight="normal" class="text-inner-tspan" font-style="normal"> paymentGateway</tspan></tspan></text></g></g><g transform="translate(0,12.5)" style="" class="label"><g><rect style="stroke: none" class="background"/><text style="" y="-10.1"><tspan dy="1.1em" y="-0.1em" x="0" class="text-outer-tspan"><tspan font-weight="normal" class="text-inner-tspan" font-style="normal">-PaymentRepository</tspan><tspan font-weight="normal" class="text-inner-tspan" font-style="normal"> paymentRepository</tspan></tspan></text></g></g></g><g transform="translate(-270.22265625, 30.5)" class="methods-group text"><g transform="translate(0,-9.5)" style="" class="label"><g><rect style="stroke: none" class="background"/><text style="" y="-10.1"><tspan dy="1.1em" y="-0.1em" x="0" class="text-outer-tspan"><tspan font-weight="normal" class="text-inner-tspan" font-style="normal">+processPayment(paymentData:</tspan><tspan font-weight="normal" class="text-inner-tspan" font-style="normal"> PaymentRequest)</tspan><tspan font-weight="normal" class="text-inner-tspan" font-style="normal"> :</tspan><tspan font-weight="normal" class="text-inner-tspan" font-style="normal"> PaymentResult</tspan></tspan></text></g></g><g transform="translate(0,12.5)" style="" class="label"><g><rect style="stroke: none" class="background"/><text style="" y="-10.1"><tspan dy="1.1em" y="-0.1em" x="0" class="text-outer-tspan"><tspan font-weight="normal" class="text-inner-tspan" font-style="normal">+refundPayment(paymentId:</tspan><tspan font-weight="normal" class="text-inner-tspan" font-style="normal"> string)</tspan><tspan font-weight="normal" class="text-inner-tspan" font-style="normal"> :</tspan><tspan font-weight="normal" class="text-inner-tspan" font-style="normal"> RefundResult</tspan></tspan></text></g></g><g transform="translate(0,34.5)" style="" class="label"><g><rect style="stroke: none" class="background"/><text style="" y="-10.1"><tspan dy="1.1em" y="-0.1em" x="0" class="text-outer-tspan"><tspan font-weight="normal" class="text-inner-tspan" font-style="normal">+getPaymentStatus(paymentId:</tspan><tspan font-weight="normal" class="text-inner-tspan" font-style="normal"> string)</tspan><tspan font-weight="normal" class="text-inner-tspan" font-style="normal"> :</tspan><tspan font-weight="normal" class="text-inner-tspan" font-style="normal"> PaymentStatus</tspan></tspan></text></g></g></g><g style="" class="divider"><path style="" fill="none" stroke-width="1.3" stroke="#9370DB" d="M-282.22265625 -54.5 C-73.93832504252853 -54.5, 134.34600616494293 -54.5, 282.22265625 -54.5 M-282.22265625 -54.5 C-153.17417069916655 -54.5, -24.125685148333105 -54.5, 282.22265625 -54.5"/></g><g style="" class="divider"><path style="" fill="none" stroke-width="1.3" stroke="#9370DB" d="M-282.22265625 10.5 C-57.6035121505341 10.5, 167.0156319489318 10.5, 282.22265625 10.5 M-282.22265625 10.5 C-118.27180488895013 10.5, 45.67904647209974 10.5, 282.22265625 10.5"/></g></g><g transform="translate(1380.65234375, 780.1000061035156)" id="classId-NotificationService-5" class="node default"><g class="basic label-container"><path style="" fill="#ECECFF" stroke-width="0" stroke="none" d="M-237.484375 -108.5 L237.484375 -108.5 L237.484375 108.5 L-237.484375 108.5"/><path style="" fill="none" stroke-width="1.3" stroke="#9370DB" d="M-237.484375 -108.5 C-121.76543327988091 -108.5, -6.046491559761819 -108.5, 237.484375 -108.5 M-237.484375 -108.5 C-131.77909163639123 -108.5, -26.073808272782486 -108.5, 237.484375 -108.5 M237.484375 -108.5 C237.484375 -23.214436496415317, 237.484375 62.071127007169366, 237.484375 108.5 M237.484375 -108.5 C237.484375 -39.49679774769844, 237.484375 29.506404504603125, 237.484375 108.5 M237.484375 108.5 C103.08820037664987 108.5, -31.30797424670027 108.5, -237.484375 108.5 M237.484375 108.5 C137.61777798402932 108.5, 37.751180968058634 108.5, -237.484375 108.5 M-237.484375 108.5 C-237.484375 59.37348144594393, -237.484375 10.246962891887861, -237.484375 -108.5 M-237.484375 108.5 C-237.484375 37.799866256085906, -237.484375 -32.90026748782819, -237.484375 -108.5"/></g><g transform="translate(0, -88.5)" class="annotation-group text"/><g transform="translate(-71.5859375, -88.5)" class="label-group text"><g transform="translate(0,-9.5)" style="font-weight: bolder" class="label"><g><rect style="stroke: none" class="background"/><text style="" y="-10.1"><tspan font-weight="" dy="1.1em" y="-0.1em" x="0" class="text-outer-tspan"><tspan font-weight="" class="text-inner-tspan" font-style="normal">NotificationService</tspan></tspan></text></g></g></g><g transform="translate(-225.484375, -45.5)" class="members-group text"><g transform="translate(0,-9.5)" style="" class="label"><g><rect style="stroke: none" class="background"/><text style="" y="-10.1"><tspan dy="1.1em" y="-0.1em" x="0" class="text-outer-tspan"><tspan font-weight="normal" class="text-inner-tspan" font-style="normal">-EmailSender</tspan><tspan font-weight="normal" class="text-inner-tspan" font-style="normal"> emailSender</tspan></tspan></text></g></g><g transform="translate(0,12.5)" style="" class="label"><g><rect style="stroke: none" class="background"/><text style="" y="-10.1"><tspan dy="1.1em" y="-0.1em" x="0" class="text-outer-tspan"><tspan font-weight="normal" class="text-inner-tspan" font-style="normal">-SmsSender</tspan><tspan font-weight="normal" class="text-inner-tspan" font-style="normal"> smsSender</tspan></tspan></text></g></g><g transform="translate(0,34.5)" style="" class="label"><g><rect style="stroke: none" class="background"/><text style="" y="-10.1"><tspan dy="1.1em" y="-0.1em" x="0" class="text-outer-tspan"><tspan font-weight="normal" class="text-inner-tspan" font-style="normal">-NotificationRepository</tspan><tspan font-weight="normal" class="text-inner-tspan" font-style="normal"> notificationRepository</tspan></tspan></text></g></g></g><g transform="translate(-225.484375, 41.5)" class="methods-group text"><g transform="translate(0,-9.5)" style="" class="label"><g><rect style="stroke: none" class="background"/><text style="" y="-10.1"><tspan dy="1.1em" y="-0.1em" x="0" class="text-outer-tspan"><tspan font-weight="normal" class="text-inner-tspan" font-style="normal">+sendOrderConfirmation(order:</tspan><tspan font-weight="normal" class="text-inner-tspan" font-style="normal"> Order)</tspan><tspan font-weight="normal" class="text-inner-tspan" font-style="normal"> :</tspan><tspan font-weight="normal" class="text-inner-tspan" font-style="normal"> void</tspan></tspan></text></g></g><g transform="translate(0,12.5)" style="" class="label"><g><rect style="stroke: none" class="background"/><text style="" y="-10.1"><tspan dy="1.1em" y="-0.1em" x="0" class="text-outer-tspan"><tspan font-weight="normal" class="text-inner-tspan" font-style="normal">+sendStockAlert(product:</tspan><tspan font-weight="normal" class="text-inner-tspan" font-style="normal"> Product,</tspan><tspan font-weight="normal" class="text-inner-tspan" font-style="normal"> level:</tspan><tspan font-weight="normal" class="text-inner-tspan" font-style="normal"> int)</tspan><tspan font-weight="normal" class="text-inner-tspan" font-style="normal"> :</tspan><tspan font-weight="normal" class="text-inner-tspan" font-style="normal"> void</tspan></tspan></text></g></g><g transform="translate(0,34.5)" style="" class="label"><g><rect style="stroke: none" class="background"/><text style="" y="-10.1"><tspan dy="1.1em" y="-0.1em" x="0" class="text-outer-tspan"><tspan font-weight="normal" class="text-inner-tspan" font-style="normal">+sendPaymentNotification(payment:</tspan><tspan font-weight="normal" class="text-inner-tspan" font-style="normal"> Payment)</tspan><tspan font-weight="normal" class="text-inner-tspan" font-style="normal"> :</tspan><tspan font-weight="normal" class="text-inner-tspan" font-style="normal"> void</tspan></tspan></text></g></g></g><g style="" class="divider"><path style="" fill="none" stroke-width="1.3" stroke="#9370DB" d="M-237.484375 -65.5 C-132.84115908052632 -65.5, -28.19794316105262 -65.5, 237.484375 -65.5 M-237.484375 -65.5 C-96.00488517576639 -65.5, 45.47460464846722 -65.5, 237.484375 -65.5"/></g><g style="" class="divider"><path style="" fill="none" stroke-width="1.3" stroke="#9370DB" d="M-237.484375 21.5 C-103.35440016405019 21.5, 30.77557467189962 21.5, 237.484375 21.5 M-237.484375 21.5 C-53.89769302392821 21.5, 129.68898895214357 21.5, 237.484375 21.5"/></g></g></g></g></g></svg>