<svg aria-roledescription="class" role="graphics-document document" viewBox="0 0 1790.48828125 722" style="max-width: 1790.49px; background-color: white;" class="classDiagram" xmlns:xlink="http://www.w3.org/1999/xlink" xmlns="http://www.w3.org/2000/svg" width="100%" id="my-svg"><style>#my-svg{font-family:"trebuchet ms",verdana,arial,sans-serif;font-size:16px;fill:#333;}@keyframes edge-animation-frame{from{stroke-dashoffset:0;}}@keyframes dash{to{stroke-dashoffset:0;}}#my-svg .edge-animation-slow{stroke-dasharray:9,5!important;stroke-dashoffset:900;animation:dash 50s linear infinite;stroke-linecap:round;}#my-svg .edge-animation-fast{stroke-dasharray:9,5!important;stroke-dashoffset:900;animation:dash 20s linear infinite;stroke-linecap:round;}#my-svg .error-icon{fill:#552222;}#my-svg .error-text{fill:#552222;stroke:#552222;}#my-svg .edge-thickness-normal{stroke-width:1px;}#my-svg .edge-thickness-thick{stroke-width:3.5px;}#my-svg .edge-pattern-solid{stroke-dasharray:0;}#my-svg .edge-thickness-invisible{stroke-width:0;fill:none;}#my-svg .edge-pattern-dashed{stroke-dasharray:3;}#my-svg .edge-pattern-dotted{stroke-dasharray:2;}#my-svg .marker{fill:#333333;stroke:#333333;}#my-svg .marker.cross{stroke:#333333;}#my-svg svg{font-family:"trebuchet ms",verdana,arial,sans-serif;font-size:16px;}#my-svg p{margin:0;}#my-svg g.classGroup text{fill:#9370DB;stroke:none;font-family:"trebuchet ms",verdana,arial,sans-serif;font-size:10px;}#my-svg g.classGroup text .title{font-weight:bolder;}#my-svg .nodeLabel,#my-svg .edgeLabel{color:#131300;}#my-svg .edgeLabel .label rect{fill:#ECECFF;}#my-svg .label text{fill:#131300;}#my-svg .labelBkg{background:#ECECFF;}#my-svg .edgeLabel .label span{background:#ECECFF;}#my-svg .classTitle{font-weight:bolder;}#my-svg .node rect,#my-svg .node circle,#my-svg .node ellipse,#my-svg .node polygon,#my-svg .node path{fill:#ECECFF;stroke:#9370DB;stroke-width:1px;}#my-svg .divider{stroke:#9370DB;stroke-width:1;}#my-svg g.clickable{cursor:pointer;}#my-svg g.classGroup rect{fill:#ECECFF;stroke:#9370DB;}#my-svg g.classGroup line{stroke:#9370DB;stroke-width:1;}#my-svg .classLabel .box{stroke:none;stroke-width:0;fill:#ECECFF;opacity:0.5;}#my-svg .classLabel .label{fill:#9370DB;font-size:10px;}#my-svg .relation{stroke:#333333;stroke-width:1;fill:none;}#my-svg .dashed-line{stroke-dasharray:3;}#my-svg .dotted-line{stroke-dasharray:1 2;}#my-svg #compositionStart,#my-svg .composition{fill:#333333!important;stroke:#333333!important;stroke-width:1;}#my-svg #compositionEnd,#my-svg .composition{fill:#333333!important;stroke:#333333!important;stroke-width:1;}#my-svg #dependencyStart,#my-svg .dependency{fill:#333333!important;stroke:#333333!important;stroke-width:1;}#my-svg #dependencyStart,#my-svg .dependency{fill:#333333!important;stroke:#333333!important;stroke-width:1;}#my-svg #extensionStart,#my-svg .extension{fill:transparent!important;stroke:#333333!important;stroke-width:1;}#my-svg #extensionEnd,#my-svg .extension{fill:transparent!important;stroke:#333333!important;stroke-width:1;}#my-svg #aggregationStart,#my-svg .aggregation{fill:transparent!important;stroke:#333333!important;stroke-width:1;}#my-svg #aggregationEnd,#my-svg .aggregation{fill:transparent!important;stroke:#333333!important;stroke-width:1;}#my-svg #lollipopStart,#my-svg .lollipop{fill:#ECECFF!important;stroke:#333333!important;stroke-width:1;}#my-svg #lollipopEnd,#my-svg .lollipop{fill:#ECECFF!important;stroke:#333333!important;stroke-width:1;}#my-svg .edgeTerminals{font-size:11px;line-height:initial;}#my-svg .classTitleText{text-anchor:middle;font-size:18px;fill:#333;}#my-svg .label-icon{display:inline-block;height:1em;overflow:visible;vertical-align:-0.125em;}#my-svg .node .label-icon path{fill:currentColor;stroke:revert;stroke-width:revert;}#my-svg :root{--mermaid-font-family:"trebuchet ms",verdana,arial,sans-serif;}</style><g><defs><marker orient="auto" markerHeight="240" markerWidth="190" refY="7" refX="18" class="marker aggregation class" id="my-svg_class-aggregationStart"><path d="M 18,7 L9,13 L1,7 L9,1 Z"/></marker></defs><defs><marker orient="auto" markerHeight="28" markerWidth="20" refY="7" refX="1" class="marker aggregation class" id="my-svg_class-aggregationEnd"><path d="M 18,7 L9,13 L1,7 L9,1 Z"/></marker></defs><defs><marker orient="auto" markerHeight="240" markerWidth="190" refY="7" refX="18" class="marker extension class" id="my-svg_class-extensionStart"><path d="M 1,7 L18,13 V 1 Z"/></marker></defs><defs><marker orient="auto" markerHeight="28" markerWidth="20" refY="7" refX="1" class="marker extension class" id="my-svg_class-extensionEnd"><path d="M 1,1 V 13 L18,7 Z"/></marker></defs><defs><marker orient="auto" markerHeight="240" markerWidth="190" refY="7" refX="18" class="marker composition class" id="my-svg_class-compositionStart"><path d="M 18,7 L9,13 L1,7 L9,1 Z"/></marker></defs><defs><marker orient="auto" markerHeight="28" markerWidth="20" refY="7" refX="1" class="marker composition class" id="my-svg_class-compositionEnd"><path d="M 18,7 L9,13 L1,7 L9,1 Z"/></marker></defs><defs><marker orient="auto" markerHeight="240" markerWidth="190" refY="7" refX="6" class="marker dependency class" id="my-svg_class-dependencyStart"><path d="M 5,7 L9,13 L1,7 L9,1 Z"/></marker></defs><defs><marker orient="auto" markerHeight="28" markerWidth="20" refY="7" refX="13" class="marker dependency class" id="my-svg_class-dependencyEnd"><path d="M 18,7 L9,13 L14,7 L9,1 Z"/></marker></defs><defs><marker orient="auto" markerHeight="240" markerWidth="190" refY="7" refX="13" class="marker lollipop class" id="my-svg_class-lollipopStart"><circle r="6" cy="7" cx="7" fill="transparent" stroke="black"/></marker></defs><defs><marker orient="auto" markerHeight="240" markerWidth="190" refY="7" refX="1" class="marker lollipop class" id="my-svg_class-lollipopEnd"><circle r="6" cy="7" cx="7" fill="transparent" stroke="black"/></marker></defs><g class="root"><g class="clusters"/><g class="edgePaths"><path marker-start="url(#my-svg_class-extensionStart)" style="" class="edge-thickness-normal edge-pattern-solid relation" id="id_Repository_UserRepository_1" d="M631.611,154.337L561.04,171.281C490.468,188.225,349.326,222.112,278.755,245.056C208.184,268,208.184,280,208.184,286L208.184,292"/><path marker-start="url(#my-svg_class-extensionStart)" style="" class="edge-thickness-normal edge-pattern-solid relation" id="id_Repository_OrderRepository_2" d="M776.707,249L776.707,250.167C776.707,251.333,776.707,253.667,776.707,259.338C776.707,265.008,776.707,274.017,776.707,278.521L776.707,283.025"/><path marker-start="url(#my-svg_class-extensionStart)" style="" class="edge-thickness-normal edge-pattern-solid relation" id="id_Repository_ProductRepository_3" d="M921.956,148.357L1012.258,166.297C1102.56,184.238,1283.164,220.119,1373.466,242.226C1463.768,264.333,1463.768,272.667,1463.768,276.833L1463.768,281"/><path marker-start="url(#my-svg_class-extensionStart)" style="" class="edge-thickness-normal edge-pattern-dashed relation" id="id_UserRepository_JpaUserRepository_4" d="M208.184,489L208.184,492C208.184,495,208.184,501,208.184,510C208.184,519,208.184,531,208.184,537L208.184,543"/><path marker-start="url(#my-svg_class-extensionStart)" style="" class="edge-thickness-normal edge-pattern-dashed relation" id="id_OrderRepository_JpaOrderRepository_5" d="M776.707,497.975L776.707,499.479C776.707,500.983,776.707,503.992,776.707,510C776.707,516.008,776.707,525.017,776.707,529.521L776.707,534.025"/><path marker-start="url(#my-svg_class-extensionStart)" style="" class="edge-thickness-normal edge-pattern-dashed relation" id="id_ProductRepository_JpaProductRepository_6" d="M1463.768,500L1463.768,501.167C1463.768,502.333,1463.768,504.667,1463.768,510C1463.768,515.333,1463.768,523.667,1463.768,527.833L1463.768,532"/></g><g class="edgeLabels"><g><rect style="stroke: none" class="background"/></g><g><rect style="stroke: none" class="background"/></g><g><rect style="stroke: none" class="background"/></g><g><rect style="stroke: none" class="background"/></g><g><rect style="stroke: none" class="background"/></g><g><rect style="stroke: none" class="background"/></g><g class="edgeLabel"><g transform="translate(0, 0)" class="label"><text y="-10.1"><tspan dy="1.1em" y="-0.1em" x="0" class="text-outer-tspan"/></text></g></g><g class="edgeLabel"><g transform="translate(0, 0)" class="label"><text y="-10.1"><tspan dy="1.1em" y="-0.1em" x="0" class="text-outer-tspan"/></text></g></g><g class="edgeLabel"><g transform="translate(0, 0)" class="label"><text y="-10.1"><tspan dy="1.1em" y="-0.1em" x="0" class="text-outer-tspan"/></text></g></g><g class="edgeLabel"><g transform="translate(0, 0)" class="label"><text y="-10.1"><tspan dy="1.1em" y="-0.1em" x="0" class="text-outer-tspan"/></text></g></g><g class="edgeLabel"><g transform="translate(0, 0)" class="label"><text y="-10.1"><tspan dy="1.1em" y="-0.1em" x="0" class="text-outer-tspan"/></text></g></g><g class="edgeLabel"><g transform="translate(0, 0)" class="label"><text y="-10.1"><tspan dy="1.1em" y="-0.1em" x="0" class="text-outer-tspan"/></text></g></g></g><g class="nodes"><g transform="translate(776.70703125, 119.5)" id="classId-Repository-0" class="node default"><g class="basic label-container"><path style="" fill="#ECECFF" stroke-width="0" stroke="none" d="M-127.59375 -111.5 L127.59375 -111.5 L127.59375 111.5 L-127.59375 111.5"/><path style="" fill="none" stroke-width="1.3" stroke="#9370DB" d="M-127.59375 -111.5 C-66.7169579042505 -111.5, -5.840165808501027 -111.5, 127.59375 -111.5 M-127.59375 -111.5 C-75.0790537598858 -111.5, -22.564357519771605 -111.5, 127.59375 -111.5 M127.59375 -111.5 C127.59375 -29.270995451220116, 127.59375 52.95800909755977, 127.59375 111.5 M127.59375 -111.5 C127.59375 -44.66209702357243, 127.59375 22.175805952855143, 127.59375 111.5 M127.59375 111.5 C52.61180836753081 111.5, -22.370133264938374 111.5, -127.59375 111.5 M127.59375 111.5 C39.452428135456145 111.5, -48.68889372908771 111.5, -127.59375 111.5 M-127.59375 111.5 C-127.59375 29.88218549282874, -127.59375 -51.73562901434252, -127.59375 -111.5 M-127.59375 111.5 C-127.59375 25.84315880353398, -127.59375 -59.81368239293204, -127.59375 -111.5"/></g><g transform="translate(-41.171875, -91.5)" class="annotation-group text"><g transform="translate(0,-9.5)" style="" class="label"><g><rect style="stroke: none" class="background"/><text style="" y="-10.1"><tspan dy="1.1em" y="-0.1em" x="0" class="text-outer-tspan"><tspan font-weight="normal" class="text-inner-tspan" font-style="normal">«interface»</tspan></tspan></text></g></g></g><g transform="translate(-54.1640625, -72.5)" class="label-group text"><g transform="translate(0,-9.5)" style="font-weight: bolder" class="label"><g><rect style="stroke: none" class="background"/><text style="" y="-10.1"><tspan font-weight="" dy="1.1em" y="-0.1em" x="0" class="text-outer-tspan">Repository&lt;T&gt;</tspan></text></g></g></g><g transform="translate(-115.59375, -29.5)" class="members-group text"/><g transform="translate(-115.59375, 0.5)" class="methods-group text"><g transform="translate(0,-9.5)" style="" class="label"><g><rect style="stroke: none" class="background"/><text style="" y="-10.1"><tspan dy="1.1em" y="-0.1em" x="0" class="text-outer-tspan"><tspan font-weight="normal" class="text-inner-tspan" font-style="normal">+findById(id:</tspan><tspan font-weight="normal" class="text-inner-tspan" font-style="normal"> int)</tspan><tspan font-weight="normal" class="text-inner-tspan" font-style="normal"> :</tspan><tspan font-weight="normal" class="text-inner-tspan" font-style="normal"> T</tspan></tspan></text></g></g><g transform="translate(0,12.5)" style="" class="label"><g><rect style="stroke: none" class="background"/><text style="" y="-10.1"><tspan dy="1.1em" y="-0.1em" x="0" class="text-outer-tspan">+findAll() : List&lt;T&gt;</tspan></text></g></g><g transform="translate(0,34.5)" style="" class="label"><g><rect style="stroke: none" class="background"/><text style="" y="-10.1"><tspan dy="1.1em" y="-0.1em" x="0" class="text-outer-tspan"><tspan font-weight="normal" class="text-inner-tspan" font-style="normal">+save(entity:</tspan><tspan font-weight="normal" class="text-inner-tspan" font-style="normal"> T)</tspan><tspan font-weight="normal" class="text-inner-tspan" font-style="normal"> :</tspan><tspan font-weight="normal" class="text-inner-tspan" font-style="normal"> T</tspan></tspan></text></g></g><g transform="translate(0,56.5)" style="" class="label"><g><rect style="stroke: none" class="background"/><text style="" y="-10.1"><tspan dy="1.1em" y="-0.1em" x="0" class="text-outer-tspan"><tspan font-weight="normal" class="text-inner-tspan" font-style="normal">+delete(id:</tspan><tspan font-weight="normal" class="text-inner-tspan" font-style="normal"> int)</tspan><tspan font-weight="normal" class="text-inner-tspan" font-style="normal"> :</tspan><tspan font-weight="normal" class="text-inner-tspan" font-style="normal"> void</tspan></tspan></text></g></g><g transform="translate(0,78.5)" style="" class="label"><g><rect style="stroke: none" class="background"/><text style="" y="-10.1"><tspan dy="1.1em" y="-0.1em" x="0" class="text-outer-tspan"><tspan font-weight="normal" class="text-inner-tspan" font-style="normal">+exists(id:</tspan><tspan font-weight="normal" class="text-inner-tspan" font-style="normal"> int)</tspan><tspan font-weight="normal" class="text-inner-tspan" font-style="normal"> :</tspan><tspan font-weight="normal" class="text-inner-tspan" font-style="normal"> boolean</tspan></tspan></text></g></g></g><g style="" class="divider"><path style="" fill="none" stroke-width="1.3" stroke="#9370DB" d="M-127.59375 -49.5 C-52.014023876241524 -49.5, 23.565702247516953 -49.5, 127.59375 -49.5 M-127.59375 -49.5 C-75.69465005791238 -49.5, -23.795550115824753 -49.5, 127.59375 -49.5"/></g><g style="" class="divider"><path style="" fill="none" stroke-width="1.3" stroke="#9370DB" d="M-127.59375 -25.5 C-30.958266745986535 -25.5, 65.67721650802693 -25.5, 127.59375 -25.5 M-127.59375 -25.5 C-62.32298155375889 -25.5, 2.9477868924822133 -25.5, 127.59375 -25.5"/></g></g><g transform="translate(208.18359375, 381.5)" id="classId-UserRepository-1" class="node default"><g class="basic label-container"><path style="" fill="#ECECFF" stroke-width="0" stroke="none" d="M-192.841796875 -89.5 L192.841796875 -89.5 L192.841796875 89.5 L-192.841796875 89.5"/><path style="" fill="none" stroke-width="1.3" stroke="#9370DB" d="M-192.841796875 -89.5 C-79.04172008903846 -89.5, 34.75835669692307 -89.5, 192.841796875 -89.5 M-192.841796875 -89.5 C-113.94461798211705 -89.5, -35.0474390892341 -89.5, 192.841796875 -89.5 M192.841796875 -89.5 C192.841796875 -33.16157400397044, 192.841796875 23.176851992059113, 192.841796875 89.5 M192.841796875 -89.5 C192.841796875 -34.30432503464695, 192.841796875 20.8913499307061, 192.841796875 89.5 M192.841796875 89.5 C41.59228465667181 89.5, -109.65722756165638 89.5, -192.841796875 89.5 M192.841796875 89.5 C53.276909532302966 89.5, -86.28797781039407 89.5, -192.841796875 89.5 M-192.841796875 89.5 C-192.841796875 31.248620267055585, -192.841796875 -27.00275946588883, -192.841796875 -89.5 M-192.841796875 89.5 C-192.841796875 42.68065828994413, -192.841796875 -4.138683420111747, -192.841796875 -89.5"/></g><g transform="translate(-41.171875, -69.5)" class="annotation-group text"><g transform="translate(0,-9.5)" style="" class="label"><g><rect style="stroke: none" class="background"/><text style="" y="-10.1"><tspan dy="1.1em" y="-0.1em" x="0" class="text-outer-tspan"><tspan font-weight="normal" class="text-inner-tspan" font-style="normal">«interface»</tspan></tspan></text></g></g></g><g transform="translate(-57.00390625, -50.5)" class="label-group text"><g transform="translate(0,-9.5)" style="font-weight: bolder" class="label"><g><rect style="stroke: none" class="background"/><text style="" y="-10.1"><tspan font-weight="" dy="1.1em" y="-0.1em" x="0" class="text-outer-tspan"><tspan font-weight="" class="text-inner-tspan" font-style="normal">UserRepository</tspan></tspan></text></g></g></g><g transform="translate(-180.841796875, -7.5)" class="members-group text"/><g transform="translate(-180.841796875, 22.5)" class="methods-group text"><g transform="translate(0,-9.5)" style="" class="label"><g><rect style="stroke: none" class="background"/><text style="" y="-10.1"><tspan dy="1.1em" y="-0.1em" x="0" class="text-outer-tspan"><tspan font-weight="normal" class="text-inner-tspan" font-style="normal">+findByUsername(username:</tspan><tspan font-weight="normal" class="text-inner-tspan" font-style="normal"> string)</tspan><tspan font-weight="normal" class="text-inner-tspan" font-style="normal"> :</tspan><tspan font-weight="normal" class="text-inner-tspan" font-style="normal"> User</tspan></tspan></text></g></g><g transform="translate(0,12.5)" style="" class="label"><g><rect style="stroke: none" class="background"/><text style="" y="-10.1"><tspan dy="1.1em" y="-0.1em" x="0" class="text-outer-tspan"><tspan font-weight="normal" class="text-inner-tspan" font-style="normal">+findByEmail(email:</tspan><tspan font-weight="normal" class="text-inner-tspan" font-style="normal"> string)</tspan><tspan font-weight="normal" class="text-inner-tspan" font-style="normal"> :</tspan><tspan font-weight="normal" class="text-inner-tspan" font-style="normal"> User</tspan></tspan></text></g></g><g transform="translate(0,34.5)" style="" class="label"><g><rect style="stroke: none" class="background"/><text style="" y="-10.1"><tspan dy="1.1em" y="-0.1em" x="0" class="text-outer-tspan">+findActiveUsers() : List&lt;User&gt;</tspan></text></g></g></g><g style="" class="divider"><path style="" fill="none" stroke-width="1.3" stroke="#9370DB" d="M-192.841796875 -27.5 C-49.34386582185826 -27.5, 94.15406523128348 -27.5, 192.841796875 -27.5 M-192.841796875 -27.5 C-114.11240152558632 -27.5, -35.38300617617264 -27.5, 192.841796875 -27.5"/></g><g style="" class="divider"><path style="" fill="none" stroke-width="1.3" stroke="#9370DB" d="M-192.841796875 -3.5 C-52.737164519878206 -3.5, 87.36746783524359 -3.5, 192.841796875 -3.5 M-192.841796875 -3.5 C-105.6861293834389 -3.5, -18.530461891877792 -3.5, 192.841796875 -3.5"/></g></g><g transform="translate(776.70703125, 381.5)" id="classId-OrderRepository-2" class="node default"><g class="basic label-container"><path style="" fill="#ECECFF" stroke-width="0" stroke="none" d="M-310.998046875 -98.4749984741211 L310.998046875 -98.4749984741211 L310.998046875 98.4749984741211 L-310.998046875 98.4749984741211"/><path style="" fill="none" stroke-width="1.3" stroke="#9370DB" d="M-310.998046875 -98.4749984741211 C-153.18852664757426 -98.4749984741211, 4.620993579851472 -98.4749984741211, 310.998046875 -98.4749984741211 M-310.998046875 -98.4749984741211 C-147.41745089404318 -98.4749984741211, 16.16314508691363 -98.4749984741211, 310.998046875 -98.4749984741211 M310.998046875 -98.4749984741211 C310.998046875 -36.53132534207755, 310.998046875 25.41234778996599, 310.998046875 98.4749984741211 M310.998046875 -98.4749984741211 C310.998046875 -26.692923035035477, 310.998046875 45.08915240405014, 310.998046875 98.4749984741211 M310.998046875 98.4749984741211 C94.83684203070646 98.4749984741211, -121.32436281358707 98.4749984741211, -310.998046875 98.4749984741211 M310.998046875 98.4749984741211 C81.85443286098635 98.4749984741211, -147.2891811530273 98.4749984741211, -310.998046875 98.4749984741211 M-310.998046875 98.4749984741211 C-310.998046875 37.35652077620262, -310.998046875 -23.76195692171585, -310.998046875 -98.4749984741211 M-310.998046875 98.4749984741211 C-310.998046875 51.057800883117785, -310.998046875 3.640603292114477, -310.998046875 -98.4749984741211"/></g><g transform="translate(-41.171875, -78.4749984741211)" class="annotation-group text"><g transform="translate(0,-9.5)" style="" class="label"><g><rect style="stroke: none" class="background"/><text style="" y="-10.1"><tspan dy="1.1em" y="-0.1em" x="0" class="text-outer-tspan"><tspan font-weight="normal" class="text-inner-tspan" font-style="normal">«interface»</tspan></tspan></text></g></g></g><g transform="translate(-61.82421875, -59.474998474121094)" class="label-group text"><g transform="translate(0,-9.5)" style="font-weight: bolder" class="label"><g><rect style="stroke: none" class="background"/><text style="" y="-10.1"><tspan font-weight="" dy="1.1em" y="-0.1em" x="0" class="text-outer-tspan"><tspan font-weight="" class="text-inner-tspan" font-style="normal">OrderRepository</tspan></tspan></text></g></g></g><g transform="translate(-298.998046875, -16.474998474121094)" class="members-group text"/><g transform="translate(-298.998046875, 13.525001525878906)" class="methods-group text"><g transform="translate(0,-9.5)" style="" class="label"><g><rect style="stroke: none" class="background"/><text style="" y="-10.1"><tspan dy="1.1em" y="-0.1em" x="0" class="text-outer-tspan">+findByCustomerId(customerId: int) : List&lt;Order&gt;</tspan></text></g></g><g transform="translate(0,12.5)" style="" class="label"><g><rect style="stroke: none" class="background"/><text style="" y="-10.1"><tspan dy="1.1em" y="-0.1em" x="0" class="text-outer-tspan">+findByStatus(status: OrderStatus) : List&lt;Order&gt;</tspan></text></g></g><g transform="translate(0,34.85000038146973)" style="" class="label"><g><rect style="stroke: none" class="background"/><text style="" y="-10.1"><tspan dy="1.1em" y="-0.1em" x="0" class="text-outer-tspan">+findByDateRange(startDate: DateTime, endDate: DateTime) : List&lt;Order&gt;</tspan><tspan dy="1.1em" y="1em" x="0" class="text-outer-tspan"><tspan font-weight="normal" class="text-inner-tspan" font-style="normal">List&amp;lt;Order&amp;gt;</tspan></tspan></text></g></g></g><g style="" class="divider"><path style="" fill="none" stroke-width="1.3" stroke="#9370DB" d="M-310.998046875 -36.474998474121094 C-171.7707749510366 -36.474998474121094, -32.5435030270732 -36.474998474121094, 310.998046875 -36.474998474121094 M-310.998046875 -36.474998474121094 C-137.8409469264042 -36.474998474121094, 35.3161530221916 -36.474998474121094, 310.998046875 -36.474998474121094"/></g><g style="" class="divider"><path style="" fill="none" stroke-width="1.3" stroke="#9370DB" d="M-310.998046875 -12.474998474121094 C-154.77424197740888 -12.474998474121094, 1.4495629201822453 -12.474998474121094, 310.998046875 -12.474998474121094 M-310.998046875 -12.474998474121094 C-178.01946958775673 -12.474998474121094, -45.04089230051346 -12.474998474121094, 310.998046875 -12.474998474121094"/></g></g><g transform="translate(1463.767578125, 381.5)" id="classId-ProductRepository-3" class="node default"><g class="basic label-container"><path style="" fill="#ECECFF" stroke-width="0" stroke="none" d="M-311.37890625 -100.5 L311.37890625 -100.5 L311.37890625 100.5 L-311.37890625 100.5"/><path style="" fill="none" stroke-width="1.3" stroke="#9370DB" d="M-311.37890625 -100.5 C-105.23057433925803 -100.5, 100.91775757148395 -100.5, 311.37890625 -100.5 M-311.37890625 -100.5 C-79.80898045339566 -100.5, 151.76094534320868 -100.5, 311.37890625 -100.5 M311.37890625 -100.5 C311.37890625 -46.012375137091055, 311.37890625 8.47524972581789, 311.37890625 100.5 M311.37890625 -100.5 C311.37890625 -22.67862006177748, 311.37890625 55.14275987644504, 311.37890625 100.5 M311.37890625 100.5 C178.76012502940102 100.5, 46.14134380880205 100.5, -311.37890625 100.5 M311.37890625 100.5 C115.67902476349849 100.5, -80.02085672300302 100.5, -311.37890625 100.5 M-311.37890625 100.5 C-311.37890625 57.94896898529245, -311.37890625 15.397937970584906, -311.37890625 -100.5 M-311.37890625 100.5 C-311.37890625 35.38270856978231, -311.37890625 -29.73458286043538, -311.37890625 -100.5"/></g><g transform="translate(-41.171875, -80.5)" class="annotation-group text"><g transform="translate(0,-9.5)" style="" class="label"><g><rect style="stroke: none" class="background"/><text style="" y="-10.1"><tspan dy="1.1em" y="-0.1em" x="0" class="text-outer-tspan"><tspan font-weight="normal" class="text-inner-tspan" font-style="normal">«interface»</tspan></tspan></text></g></g></g><g transform="translate(-69.3984375, -61.5)" class="label-group text"><g transform="translate(0,-9.5)" style="font-weight: bolder" class="label"><g><rect style="stroke: none" class="background"/><text style="" y="-10.1"><tspan font-weight="" dy="1.1em" y="-0.1em" x="0" class="text-outer-tspan"><tspan font-weight="" class="text-inner-tspan" font-style="normal">ProductRepository</tspan></tspan></text></g></g></g><g transform="translate(-299.37890625, -18.5)" class="members-group text"/><g transform="translate(-299.37890625, 11.5)" class="methods-group text"><g transform="translate(0,-9.5)" style="" class="label"><g><rect style="stroke: none" class="background"/><text style="" y="-10.1"><tspan dy="1.1em" y="-0.1em" x="0" class="text-outer-tspan">+findByCategory(categoryId: int) : List&lt;Product&gt;</tspan></text></g></g><g transform="translate(0,12.5)" style="" class="label"><g><rect style="stroke: none" class="background"/><text style="" y="-10.1"><tspan dy="1.1em" y="-0.1em" x="0" class="text-outer-tspan">+findByPriceRange(minPrice: decimal, maxPrice: decimal) : List&lt;Product&gt;</tspan></text></g></g><g transform="translate(0,34.5)" style="" class="label"><g><rect style="stroke: none" class="background"/><text style="" y="-10.1"><tspan dy="1.1em" y="-0.1em" x="0" class="text-outer-tspan">+findByKeyword(keyword: string) : List&lt;Product&gt;</tspan></text></g></g><g transform="translate(0,56.5)" style="" class="label"><g><rect style="stroke: none" class="background"/><text style="" y="-10.1"><tspan dy="1.1em" y="-0.1em" x="0" class="text-outer-tspan">+findLowStockProducts(threshold: int) : List&lt;Product&gt;</tspan></text></g></g></g><g style="" class="divider"><path style="" fill="none" stroke-width="1.3" stroke="#9370DB" d="M-311.37890625 -38.5 C-142.8013520753133 -38.5, 25.776202099373393 -38.5, 311.37890625 -38.5 M-311.37890625 -38.5 C-160.60166807306882 -38.5, -9.824429896137644 -38.5, 311.37890625 -38.5"/></g><g style="" class="divider"><path style="" fill="none" stroke-width="1.3" stroke="#9370DB" d="M-311.37890625 -14.5 C-115.93244970452105 -14.5, 79.5140068409579 -14.5, 311.37890625 -14.5 M-311.37890625 -14.5 C-89.65671367730044 -14.5, 132.0654788953991 -14.5, 311.37890625 -14.5"/></g></g><g transform="translate(208.18359375, 623)" id="classId-JpaUserRepository-4" class="node default"><g class="basic label-container"><path style="" fill="#ECECFF" stroke-width="0" stroke="none" d="M-200.18359375 -80 L200.18359375 -80 L200.18359375 80 L-200.18359375 80"/><path style="" fill="none" stroke-width="1.3" stroke="#9370DB" d="M-200.18359375 -80 C-118.08511886331992 -80, -35.98664397663984 -80, 200.18359375 -80 M-200.18359375 -80 C-94.07412208897809 -80, 12.035349572043827 -80, 200.18359375 -80 M200.18359375 -80 C200.18359375 -26.35532334292499, 200.18359375 27.28935331415002, 200.18359375 80 M200.18359375 -80 C200.18359375 -27.107674606069182, 200.18359375 25.784650787861636, 200.18359375 80 M200.18359375 80 C77.98019132047042 80, -44.22321110905915 80, -200.18359375 80 M200.18359375 80 C55.64669633451132 80, -88.89020108097736 80, -200.18359375 80 M-200.18359375 80 C-200.18359375 39.696380797631754, -200.18359375 -0.607238404736492, -200.18359375 -80 M-200.18359375 80 C-200.18359375 20.02924404924301, -200.18359375 -39.94151190151398, -200.18359375 -80"/></g><g transform="translate(0, -60)" class="annotation-group text"/><g transform="translate(-70.6875, -60)" class="label-group text"><g transform="translate(0,-9.5)" style="font-weight: bolder" class="label"><g><rect style="stroke: none" class="background"/><text style="" y="-10.1"><tspan font-weight="" dy="1.1em" y="-0.1em" x="0" class="text-outer-tspan"><tspan font-weight="" class="text-inner-tspan" font-style="normal">JpaUserRepository</tspan></tspan></text></g></g></g><g transform="translate(-188.18359375, -17)" class="members-group text"/><g transform="translate(-188.18359375, 13)" class="methods-group text"><g transform="translate(0,-9.5)" style="" class="label"><g><rect style="stroke: none" class="background"/><text style="" y="-10.1"><tspan dy="1.1em" y="-0.1em" x="0" class="text-outer-tspan"><tspan font-weight="normal" class="text-inner-tspan" font-style="normal">+findByUsername(username:</tspan><tspan font-weight="normal" class="text-inner-tspan" font-style="normal"> string)</tspan><tspan font-weight="normal" class="text-inner-tspan" font-style="normal"> :</tspan><tspan font-weight="normal" class="text-inner-tspan" font-style="normal"> User</tspan></tspan></text></g></g><g transform="translate(0,12.5)" style="" class="label"><g><rect style="stroke: none" class="background"/><text style="" y="-10.1"><tspan dy="1.1em" y="-0.1em" x="0" class="text-outer-tspan"><tspan font-weight="normal" class="text-inner-tspan" font-style="normal">+findByEmail(email:</tspan><tspan font-weight="normal" class="text-inner-tspan" font-style="normal"> string)</tspan><tspan font-weight="normal" class="text-inner-tspan" font-style="normal"> :</tspan><tspan font-weight="normal" class="text-inner-tspan" font-style="normal"> User</tspan></tspan></text></g></g><g transform="translate(0,34.5)" style="" class="label"><g><rect style="stroke: none" class="background"/><text style="" y="-10.1"><tspan dy="1.1em" y="-0.1em" x="0" class="text-outer-tspan">+findActiveUsers() : List&lt;User&gt;</tspan></text></g></g></g><g style="" class="divider"><path style="" fill="none" stroke-width="1.3" stroke="#9370DB" d="M-200.18359375 -37 C-101.01339286852613 -37, -1.8431919870522506 -37, 200.18359375 -37 M-200.18359375 -37 C-58.75491431755691 -37, 82.67376511488618 -37, 200.18359375 -37"/></g><g style="" class="divider"><path style="" fill="none" stroke-width="1.3" stroke="#9370DB" d="M-200.18359375 -13 C-112.31544991046249 -13, -24.44730607092498 -13, 200.18359375 -13 M-200.18359375 -13 C-50.494798776843 -13, 99.193996196314 -13, 200.18359375 -13"/></g></g><g transform="translate(776.70703125, 623)" id="classId-JpaOrderRepository-5" class="node default"><g class="basic label-container"><path style="" fill="#ECECFF" stroke-width="0" stroke="none" d="M-318.33984375 -88.9749984741211 L318.33984375 -88.9749984741211 L318.33984375 88.9749984741211 L-318.33984375 88.9749984741211"/><path style="" fill="none" stroke-width="1.3" stroke="#9370DB" d="M-318.33984375 -88.9749984741211 C-81.66461195717 -88.9749984741211, 155.01061983566 -88.9749984741211, 318.33984375 -88.9749984741211 M-318.33984375 -88.9749984741211 C-181.96413263277532 -88.9749984741211, -45.588421515550635 -88.9749984741211, 318.33984375 -88.9749984741211 M318.33984375 -88.9749984741211 C318.33984375 -22.967239440677176, 318.33984375 43.04051959276674, 318.33984375 88.9749984741211 M318.33984375 -88.9749984741211 C318.33984375 -35.2569863459346, 318.33984375 18.461025782251895, 318.33984375 88.9749984741211 M318.33984375 88.9749984741211 C175.5877367248033 88.9749984741211, 32.83562969960661 88.9749984741211, -318.33984375 88.9749984741211 M318.33984375 88.9749984741211 C183.76275849379576 88.9749984741211, 49.185673237591516 88.9749984741211, -318.33984375 88.9749984741211 M-318.33984375 88.9749984741211 C-318.33984375 40.749730067278996, -318.33984375 -7.475538339563101, -318.33984375 -88.9749984741211 M-318.33984375 88.9749984741211 C-318.33984375 22.035932196691377, -318.33984375 -44.90313408073834, -318.33984375 -88.9749984741211"/></g><g transform="translate(0, -68.9749984741211)" class="annotation-group text"/><g transform="translate(-75.5078125, -68.9749984741211)" class="label-group text"><g transform="translate(0,-9.5)" style="font-weight: bolder" class="label"><g><rect style="stroke: none" class="background"/><text style="" y="-10.1"><tspan font-weight="" dy="1.1em" y="-0.1em" x="0" class="text-outer-tspan"><tspan font-weight="" class="text-inner-tspan" font-style="normal">JpaOrderRepository</tspan></tspan></text></g></g></g><g transform="translate(-306.33984375, -25.974998474121094)" class="members-group text"/><g transform="translate(-306.33984375, 4.025001525878906)" class="methods-group text"><g transform="translate(0,-9.5)" style="" class="label"><g><rect style="stroke: none" class="background"/><text style="" y="-10.1"><tspan dy="1.1em" y="-0.1em" x="0" class="text-outer-tspan">+findByCustomerId(customerId: int) : List&lt;Order&gt;</tspan></text></g></g><g transform="translate(0,12.5)" style="" class="label"><g><rect style="stroke: none" class="background"/><text style="" y="-10.1"><tspan dy="1.1em" y="-0.1em" x="0" class="text-outer-tspan">+findByStatus(status: OrderStatus) : List&lt;Order&gt;</tspan></text></g></g><g transform="translate(0,34.85000038146973)" style="" class="label"><g><rect style="stroke: none" class="background"/><text style="" y="-10.1"><tspan dy="1.1em" y="-0.1em" x="0" class="text-outer-tspan">+findByDateRange(startDate: DateTime, endDate: DateTime) : List&lt;Order&gt;</tspan><tspan dy="1.1em" y="1em" x="0" class="text-outer-tspan"><tspan font-weight="normal" class="text-inner-tspan" font-style="normal">List&amp;lt;Order&amp;gt;</tspan></tspan></text></g></g></g><g style="" class="divider"><path style="" fill="none" stroke-width="1.3" stroke="#9370DB" d="M-318.33984375 -45.974998474121094 C-74.38489489636359 -45.974998474121094, 169.57005395727282 -45.974998474121094, 318.33984375 -45.974998474121094 M-318.33984375 -45.974998474121094 C-72.60243423242522 -45.974998474121094, 173.13497528514955 -45.974998474121094, 318.33984375 -45.974998474121094"/></g><g style="" class="divider"><path style="" fill="none" stroke-width="1.3" stroke="#9370DB" d="M-318.33984375 -21.974998474121094 C-111.62708058807607 -21.974998474121094, 95.08568257384786 -21.974998474121094, 318.33984375 -21.974998474121094 M-318.33984375 -21.974998474121094 C-166.61549755706895 -21.974998474121094, -14.891151364137897 -21.974998474121094, 318.33984375 -21.974998474121094"/></g></g><g transform="translate(1463.767578125, 623)" id="classId-JpaProductRepository-6" class="node default"><g class="basic label-container"><path style="" fill="#ECECFF" stroke-width="0" stroke="none" d="M-318.720703125 -91 L318.720703125 -91 L318.720703125 91 L-318.720703125 91"/><path style="" fill="none" stroke-width="1.3" stroke="#9370DB" d="M-318.720703125 -91 C-98.6198837793088 -91, 121.48093556638241 -91, 318.720703125 -91 M-318.720703125 -91 C-90.77678922365047 -91, 137.16712467769906 -91, 318.720703125 -91 M318.720703125 -91 C318.720703125 -49.23275490951438, 318.720703125 -7.465509819028753, 318.720703125 91 M318.720703125 -91 C318.720703125 -34.438190962401855, 318.720703125 22.12361807519629, 318.720703125 91 M318.720703125 91 C97.6353676204879 91, -123.4499678840242 91, -318.720703125 91 M318.720703125 91 C151.03856017325464 91, -16.643582778490725 91, -318.720703125 91 M-318.720703125 91 C-318.720703125 38.63840297259856, -318.720703125 -13.723194054802875, -318.720703125 -91 M-318.720703125 91 C-318.720703125 22.16959088530126, -318.720703125 -46.66081822939748, -318.720703125 -91"/></g><g transform="translate(0, -71)" class="annotation-group text"/><g transform="translate(-83.08203125, -71)" class="label-group text"><g transform="translate(0,-9.5)" style="font-weight: bolder" class="label"><g><rect style="stroke: none" class="background"/><text style="" y="-10.1"><tspan font-weight="" dy="1.1em" y="-0.1em" x="0" class="text-outer-tspan"><tspan font-weight="" class="text-inner-tspan" font-style="normal">JpaProductRepository</tspan></tspan></text></g></g></g><g transform="translate(-306.720703125, -28)" class="members-group text"/><g transform="translate(-306.720703125, 2)" class="methods-group text"><g transform="translate(0,-9.5)" style="" class="label"><g><rect style="stroke: none" class="background"/><text style="" y="-10.1"><tspan dy="1.1em" y="-0.1em" x="0" class="text-outer-tspan">+findByCategory(categoryId: int) : List&lt;Product&gt;</tspan></text></g></g><g transform="translate(0,12.5)" style="" class="label"><g><rect style="stroke: none" class="background"/><text style="" y="-10.1"><tspan dy="1.1em" y="-0.1em" x="0" class="text-outer-tspan">+findByPriceRange(minPrice: decimal, maxPrice: decimal) : List&lt;Product&gt;</tspan></text></g></g><g transform="translate(0,34.5)" style="" class="label"><g><rect style="stroke: none" class="background"/><text style="" y="-10.1"><tspan dy="1.1em" y="-0.1em" x="0" class="text-outer-tspan">+findByKeyword(keyword: string) : List&lt;Product&gt;</tspan></text></g></g><g transform="translate(0,56.5)" style="" class="label"><g><rect style="stroke: none" class="background"/><text style="" y="-10.1"><tspan dy="1.1em" y="-0.1em" x="0" class="text-outer-tspan">+findLowStockProducts(threshold: int) : List&lt;Product&gt;</tspan></text></g></g></g><g style="" class="divider"><path style="" fill="none" stroke-width="1.3" stroke="#9370DB" d="M-318.720703125 -48 C-146.72932842953205 -48, 25.262046265935908 -48, 318.720703125 -48 M-318.720703125 -48 C-82.36387505022816 -48, 153.99295302454368 -48, 318.720703125 -48"/></g><g style="" class="divider"><path style="" fill="none" stroke-width="1.3" stroke="#9370DB" d="M-318.720703125 -24 C-175.07780463958582 -24, -31.434906154171642 -24, 318.720703125 -24 M-318.720703125 -24 C-132.6381840578437 -24, 53.444335009312624 -24, 318.720703125 -24"/></g></g></g></g></g></svg>