<svg aria-roledescription="class" role="graphics-document document" viewBox="0 0 2572.759765625 671.949951171875" style="max-width: 2572.76px; background-color: white;" class="classDiagram" xmlns:xlink="http://www.w3.org/1999/xlink" xmlns="http://www.w3.org/2000/svg" width="100%" id="my-svg"><style>#my-svg{font-family:"trebuchet ms",verdana,arial,sans-serif;font-size:16px;fill:#333;}@keyframes edge-animation-frame{from{stroke-dashoffset:0;}}@keyframes dash{to{stroke-dashoffset:0;}}#my-svg .edge-animation-slow{stroke-dasharray:9,5!important;stroke-dashoffset:900;animation:dash 50s linear infinite;stroke-linecap:round;}#my-svg .edge-animation-fast{stroke-dasharray:9,5!important;stroke-dashoffset:900;animation:dash 20s linear infinite;stroke-linecap:round;}#my-svg .error-icon{fill:#552222;}#my-svg .error-text{fill:#552222;stroke:#552222;}#my-svg .edge-thickness-normal{stroke-width:1px;}#my-svg .edge-thickness-thick{stroke-width:3.5px;}#my-svg .edge-pattern-solid{stroke-dasharray:0;}#my-svg .edge-thickness-invisible{stroke-width:0;fill:none;}#my-svg .edge-pattern-dashed{stroke-dasharray:3;}#my-svg .edge-pattern-dotted{stroke-dasharray:2;}#my-svg .marker{fill:#333333;stroke:#333333;}#my-svg .marker.cross{stroke:#333333;}#my-svg svg{font-family:"trebuchet ms",verdana,arial,sans-serif;font-size:16px;}#my-svg p{margin:0;}#my-svg g.classGroup text{fill:#9370DB;stroke:none;font-family:"trebuchet ms",verdana,arial,sans-serif;font-size:10px;}#my-svg g.classGroup text .title{font-weight:bolder;}#my-svg .nodeLabel,#my-svg .edgeLabel{color:#131300;}#my-svg .edgeLabel .label rect{fill:#ECECFF;}#my-svg .label text{fill:#131300;}#my-svg .labelBkg{background:#ECECFF;}#my-svg .edgeLabel .label span{background:#ECECFF;}#my-svg .classTitle{font-weight:bolder;}#my-svg .node rect,#my-svg .node circle,#my-svg .node ellipse,#my-svg .node polygon,#my-svg .node path{fill:#ECECFF;stroke:#9370DB;stroke-width:1px;}#my-svg .divider{stroke:#9370DB;stroke-width:1;}#my-svg g.clickable{cursor:pointer;}#my-svg g.classGroup rect{fill:#ECECFF;stroke:#9370DB;}#my-svg g.classGroup line{stroke:#9370DB;stroke-width:1;}#my-svg .classLabel .box{stroke:none;stroke-width:0;fill:#ECECFF;opacity:0.5;}#my-svg .classLabel .label{fill:#9370DB;font-size:10px;}#my-svg .relation{stroke:#333333;stroke-width:1;fill:none;}#my-svg .dashed-line{stroke-dasharray:3;}#my-svg .dotted-line{stroke-dasharray:1 2;}#my-svg #compositionStart,#my-svg .composition{fill:#333333!important;stroke:#333333!important;stroke-width:1;}#my-svg #compositionEnd,#my-svg .composition{fill:#333333!important;stroke:#333333!important;stroke-width:1;}#my-svg #dependencyStart,#my-svg .dependency{fill:#333333!important;stroke:#333333!important;stroke-width:1;}#my-svg #dependencyStart,#my-svg .dependency{fill:#333333!important;stroke:#333333!important;stroke-width:1;}#my-svg #extensionStart,#my-svg .extension{fill:transparent!important;stroke:#333333!important;stroke-width:1;}#my-svg #extensionEnd,#my-svg .extension{fill:transparent!important;stroke:#333333!important;stroke-width:1;}#my-svg #aggregationStart,#my-svg .aggregation{fill:transparent!important;stroke:#333333!important;stroke-width:1;}#my-svg #aggregationEnd,#my-svg .aggregation{fill:transparent!important;stroke:#333333!important;stroke-width:1;}#my-svg #lollipopStart,#my-svg .lollipop{fill:#ECECFF!important;stroke:#333333!important;stroke-width:1;}#my-svg #lollipopEnd,#my-svg .lollipop{fill:#ECECFF!important;stroke:#333333!important;stroke-width:1;}#my-svg .edgeTerminals{font-size:11px;line-height:initial;}#my-svg .classTitleText{text-anchor:middle;font-size:18px;fill:#333;}#my-svg .label-icon{display:inline-block;height:1em;overflow:visible;vertical-align:-0.125em;}#my-svg .node .label-icon path{fill:currentColor;stroke:revert;stroke-width:revert;}#my-svg :root{--mermaid-font-family:"trebuchet ms",verdana,arial,sans-serif;}</style><g><defs><marker orient="auto" markerHeight="240" markerWidth="190" refY="7" refX="18" class="marker aggregation class" id="my-svg_class-aggregationStart"><path d="M 18,7 L9,13 L1,7 L9,1 Z"/></marker></defs><defs><marker orient="auto" markerHeight="28" markerWidth="20" refY="7" refX="1" class="marker aggregation class" id="my-svg_class-aggregationEnd"><path d="M 18,7 L9,13 L1,7 L9,1 Z"/></marker></defs><defs><marker orient="auto" markerHeight="240" markerWidth="190" refY="7" refX="18" class="marker extension class" id="my-svg_class-extensionStart"><path d="M 1,7 L18,13 V 1 Z"/></marker></defs><defs><marker orient="auto" markerHeight="28" markerWidth="20" refY="7" refX="1" class="marker extension class" id="my-svg_class-extensionEnd"><path d="M 1,1 V 13 L18,7 Z"/></marker></defs><defs><marker orient="auto" markerHeight="240" markerWidth="190" refY="7" refX="18" class="marker composition class" id="my-svg_class-compositionStart"><path d="M 18,7 L9,13 L1,7 L9,1 Z"/></marker></defs><defs><marker orient="auto" markerHeight="28" markerWidth="20" refY="7" refX="1" class="marker composition class" id="my-svg_class-compositionEnd"><path d="M 18,7 L9,13 L1,7 L9,1 Z"/></marker></defs><defs><marker orient="auto" markerHeight="240" markerWidth="190" refY="7" refX="6" class="marker dependency class" id="my-svg_class-dependencyStart"><path d="M 5,7 L9,13 L1,7 L9,1 Z"/></marker></defs><defs><marker orient="auto" markerHeight="28" markerWidth="20" refY="7" refX="13" class="marker dependency class" id="my-svg_class-dependencyEnd"><path d="M 18,7 L9,13 L14,7 L9,1 Z"/></marker></defs><defs><marker orient="auto" markerHeight="240" markerWidth="190" refY="7" refX="13" class="marker lollipop class" id="my-svg_class-lollipopStart"><circle r="6" cy="7" cx="7" fill="transparent" stroke="black"/></marker></defs><defs><marker orient="auto" markerHeight="240" markerWidth="190" refY="7" refX="1" class="marker lollipop class" id="my-svg_class-lollipopEnd"><circle r="6" cy="7" cx="7" fill="transparent" stroke="black"/></marker></defs><g class="root"><g class="clusters"/><g class="edgePaths"><path marker-start="url(#my-svg_class-extensionStart)" style="" class="edge-thickness-normal edge-pattern-solid relation" id="id_ApplicationException_BusinessException_1" d="M1207.614,159.495L1116.331,174.079C1025.048,188.663,842.482,217.832,751.199,239.499C659.916,261.167,659.916,275.333,659.916,282.417L659.916,289.5"/><path marker-start="url(#my-svg_class-extensionStart)" style="" class="edge-thickness-normal edge-pattern-solid relation" id="id_ApplicationException_ValidationException_2" d="M1226.162,229.242L1219.427,232.202C1212.693,235.161,1199.225,241.081,1192.49,248.207C1185.756,255.333,1185.756,263.667,1185.756,267.833L1185.756,272"/><path marker-start="url(#my-svg_class-extensionStart)" style="" class="edge-thickness-normal edge-pattern-solid relation" id="id_ApplicationException_ResourceNotFoundException_3" d="M1746.053,229.242L1752.787,232.202C1759.522,235.161,1772.99,241.081,1779.725,248.207C1786.459,255.333,1786.459,263.667,1786.459,267.833L1786.459,272"/><path marker-start="url(#my-svg_class-extensionStart)" style="" class="edge-thickness-normal edge-pattern-solid relation" id="id_ApplicationException_UnauthorizedException_4" d="M1764.624,157.076L1863.832,172.063C1963.039,187.051,2161.454,217.025,2260.662,239.096C2359.869,261.167,2359.869,275.333,2359.869,282.417L2359.869,289.5"/><path marker-start="url(#my-svg_class-extensionStart)" style="" class="edge-thickness-normal edge-pattern-solid relation" id="id_BusinessException_InsufficientStockException_5" d="M445.787,410.587L424.623,416.823C403.458,423.058,361.13,435.529,339.965,445.931C318.801,456.333,318.801,464.667,318.801,468.833L318.801,473"/><path marker-start="url(#my-svg_class-extensionStart)" style="" class="edge-thickness-normal edge-pattern-solid relation" id="id_BusinessException_PaymentProcessingException_6" d="M874.045,410.587L895.209,416.823C916.374,423.058,958.702,435.529,979.867,449.26C1001.031,462.992,1001.031,477.983,1001.031,485.479L1001.031,492.975"/></g><g class="edgeLabels"><g><rect style="stroke: none" class="background"/></g><g><rect style="stroke: none" class="background"/></g><g><rect style="stroke: none" class="background"/></g><g><rect style="stroke: none" class="background"/></g><g><rect style="stroke: none" class="background"/></g><g><rect style="stroke: none" class="background"/></g><g class="edgeLabel"><g transform="translate(0, 0)" class="label"><text y="-10.1"><tspan dy="1.1em" y="-0.1em" x="0" class="text-outer-tspan"/></text></g></g><g class="edgeLabel"><g transform="translate(0, 0)" class="label"><text y="-10.1"><tspan dy="1.1em" y="-0.1em" x="0" class="text-outer-tspan"/></text></g></g><g class="edgeLabel"><g transform="translate(0, 0)" class="label"><text y="-10.1"><tspan dy="1.1em" y="-0.1em" x="0" class="text-outer-tspan"/></text></g></g><g class="edgeLabel"><g transform="translate(0, 0)" class="label"><text y="-10.1"><tspan dy="1.1em" y="-0.1em" x="0" class="text-outer-tspan"/></text></g></g><g class="edgeLabel"><g transform="translate(0, 0)" class="label"><text y="-10.1"><tspan dy="1.1em" y="-0.1em" x="0" class="text-outer-tspan"/></text></g></g><g class="edgeLabel"><g transform="translate(0, 0)" class="label"><text y="-10.1"><tspan dy="1.1em" y="-0.1em" x="0" class="text-outer-tspan"/></text></g></g></g><g class="nodes"><g transform="translate(1486.107421875, 115)" id="classId-ApplicationException-0" class="node default"><g class="basic label-container"><path style="" fill="#ECECFF" stroke-width="0" stroke="none" d="M-260.71875 -107 L260.71875 -107 L260.71875 107 L-260.71875 107"/><path style="" fill="none" stroke-width="1.3" stroke="#9370DB" d="M-260.71875 -107 C-104.32040408606451 -107, 52.07794182787097 -107, 260.71875 -107 M-260.71875 -107 C-104.04971439963873 -107, 52.61932120072254 -107, 260.71875 -107 M260.71875 -107 C260.71875 -50.855901134458215, 260.71875 5.288197731083571, 260.71875 107 M260.71875 -107 C260.71875 -41.21513007611753, 260.71875 24.569739847764936, 260.71875 107 M260.71875 107 C93.00068951592434 107, -74.71737096815133 107, -260.71875 107 M260.71875 107 C75.49462996758754 107, -109.72949006482492 107, -260.71875 107 M-260.71875 107 C-260.71875 51.57759930299376, -260.71875 -3.844801394012478, -260.71875 -107 M-260.71875 107 C-260.71875 45.58803793255786, -260.71875 -15.82392413488428, -260.71875 -107"/></g><g transform="translate(-37.90625, -87)" class="annotation-group text"><g transform="translate(0,-9.5)" style="" class="label"><g><rect style="stroke: none" class="background"/><text style="" y="-10.1"><tspan dy="1.1em" y="-0.1em" x="0" class="text-outer-tspan"><tspan font-weight="normal" class="text-inner-tspan" font-style="normal">«abstract»</tspan></tspan></text></g></g></g><g transform="translate(-79.9296875, -68)" class="label-group text"><g transform="translate(0,-9.5)" style="font-weight: bolder" class="label"><g><rect style="stroke: none" class="background"/><text style="" y="-10.1"><tspan font-weight="" dy="1.1em" y="-0.1em" x="0" class="text-outer-tspan"><tspan font-weight="" class="text-inner-tspan" font-style="normal">ApplicationException</tspan></tspan></text></g></g></g><g transform="translate(-248.71875, -25)" class="members-group text"><g transform="translate(0,-9.5)" style="" class="label"><g><rect style="stroke: none" class="background"/><text style="" y="-10.1"><tspan dy="1.1em" y="-0.1em" x="0" class="text-outer-tspan"><tspan font-weight="normal" class="text-inner-tspan" font-style="normal">-string</tspan><tspan font-weight="normal" class="text-inner-tspan" font-style="normal"> message</tspan></tspan></text></g></g><g transform="translate(0,12.5)" style="" class="label"><g><rect style="stroke: none" class="background"/><text style="" y="-10.1"><tspan dy="1.1em" y="-0.1em" x="0" class="text-outer-tspan"><tspan font-weight="normal" class="text-inner-tspan" font-style="normal">-string</tspan><tspan font-weight="normal" class="text-inner-tspan" font-style="normal"> errorCode</tspan></tspan></text></g></g><g transform="translate(0,34.5)" style="" class="label"><g><rect style="stroke: none" class="background"/><text style="" y="-10.1"><tspan dy="1.1em" y="-0.1em" x="0" class="text-outer-tspan"><tspan font-weight="normal" class="text-inner-tspan" font-style="normal">-DateTime</tspan><tspan font-weight="normal" class="text-inner-tspan" font-style="normal"> timestamp</tspan></tspan></text></g></g></g><g transform="translate(-248.71875, 62)" class="methods-group text"><g transform="translate(0,-9.5)" style="" class="label"><g><rect style="stroke: none" class="background"/><text style="" y="-10.1"><tspan dy="1.1em" y="-0.1em" x="0" class="text-outer-tspan"><tspan font-weight="normal" class="text-inner-tspan" font-style="normal">+ApplicationException(message:</tspan><tspan font-weight="normal" class="text-inner-tspan" font-style="normal"> string,</tspan><tspan font-weight="normal" class="text-inner-tspan" font-style="normal"> errorCode:</tspan><tspan font-weight="normal" class="text-inner-tspan" font-style="normal"> string)</tspan></tspan></text></g></g><g transform="translate(0,12.5)" style="" class="label"><g><rect style="stroke: none" class="background"/><text style="" y="-10.1"><tspan dy="1.1em" y="-0.1em" x="0" class="text-outer-tspan"><tspan font-weight="normal" class="text-inner-tspan" font-style="normal">+getErrorDetails()</tspan><tspan font-weight="normal" class="text-inner-tspan" font-style="normal"> :</tspan><tspan font-weight="normal" class="text-inner-tspan" font-style="normal"> ErrorDetails</tspan></tspan></text></g></g></g><g style="" class="divider"><path style="" fill="none" stroke-width="1.3" stroke="#9370DB" d="M-260.71875 -45 C-131.36359064821775 -45, -2.0084312964355036 -45, 260.71875 -45 M-260.71875 -45 C-147.09999872026202 -45, -33.481247440524015 -45, 260.71875 -45"/></g><g style="" class="divider"><path style="" fill="none" stroke-width="1.3" stroke="#9370DB" d="M-260.71875 42 C-132.8353577204122 42, -4.951965440824381 42, 260.71875 42 M-260.71875 42 C-58.50960864709711 42, 143.69953270580578 42, 260.71875 42"/></g></g><g transform="translate(659.916015625, 347.5)" id="classId-BusinessException-1" class="node default"><g class="basic label-container"><path style="" fill="#ECECFF" stroke-width="0" stroke="none" d="M-243.65625 -58 L243.65625 -58 L243.65625 58 L-243.65625 58"/><path style="" fill="none" stroke-width="1.3" stroke="#9370DB" d="M-243.65625 -58 C-134.60227821902475 -58, -25.54830643804948 -58, 243.65625 -58 M-243.65625 -58 C-60.72216626371761 -58, 122.21191747256478 -58, 243.65625 -58 M243.65625 -58 C243.65625 -28.710527522745508, 243.65625 0.5789449545089838, 243.65625 58 M243.65625 -58 C243.65625 -15.56854980435483, 243.65625 26.86290039129034, 243.65625 58 M243.65625 58 C80.18844037645067 58, -83.27936924709866 58, -243.65625 58 M243.65625 58 C117.97551460082322 58, -7.705220798353565 58, -243.65625 58 M-243.65625 58 C-243.65625 11.672305600485373, -243.65625 -34.655388799029254, -243.65625 -58 M-243.65625 58 C-243.65625 23.811001325446924, -243.65625 -10.377997349106153, -243.65625 -58"/></g><g transform="translate(0, -38)" class="annotation-group text"/><g transform="translate(-68.6640625, -38)" class="label-group text"><g transform="translate(0,-9.5)" style="font-weight: bolder" class="label"><g><rect style="stroke: none" class="background"/><text style="" y="-10.1"><tspan font-weight="" dy="1.1em" y="-0.1em" x="0" class="text-outer-tspan"><tspan font-weight="" class="text-inner-tspan" font-style="normal">BusinessException</tspan></tspan></text></g></g></g><g transform="translate(-231.65625, 5)" class="members-group text"/><g transform="translate(-231.65625, 35)" class="methods-group text"><g transform="translate(0,-9.5)" style="" class="label"><g><rect style="stroke: none" class="background"/><text style="" y="-10.1"><tspan dy="1.1em" y="-0.1em" x="0" class="text-outer-tspan"><tspan font-weight="normal" class="text-inner-tspan" font-style="normal">+BusinessException(message:</tspan><tspan font-weight="normal" class="text-inner-tspan" font-style="normal"> string,</tspan><tspan font-weight="normal" class="text-inner-tspan" font-style="normal"> errorCode:</tspan><tspan font-weight="normal" class="text-inner-tspan" font-style="normal"> string)</tspan></tspan></text></g></g></g><g style="" class="divider"><path style="" fill="none" stroke-width="1.3" stroke="#9370DB" d="M-243.65625 -15 C-129.87944736299264 -15, -16.10264472598527 -15, 243.65625 -15 M-243.65625 -15 C-106.3741096486007 -15, 30.908030702798612 -15, 243.65625 -15"/></g><g style="" class="divider"><path style="" fill="none" stroke-width="1.3" stroke="#9370DB" d="M-243.65625 9 C-120.32687643050862 9, 3.0024971389827613 9, 243.65625 9 M-243.65625 9 C-58.43804191906986 9, 126.78016616186028 9, 243.65625 9"/></g></g><g transform="translate(1185.755859375, 347.5)" id="classId-ValidationException-2" class="node default"><g class="basic label-container"><path style="" fill="#ECECFF" stroke-width="0" stroke="none" d="M-232.18359375 -75.5 L232.18359375 -75.5 L232.18359375 75.5 L-232.18359375 75.5"/><path style="" fill="none" stroke-width="1.3" stroke="#9370DB" d="M-232.18359375 -75.5 C-81.74309360924408 -75.5, 68.69740653151183 -75.5, 232.18359375 -75.5 M-232.18359375 -75.5 C-112.47736856377922 -75.5, 7.228856622441555 -75.5, 232.18359375 -75.5 M232.18359375 -75.5 C232.18359375 -37.08985047736872, 232.18359375 1.3202990452625585, 232.18359375 75.5 M232.18359375 -75.5 C232.18359375 -22.79196205749421, 232.18359375 29.91607588501158, 232.18359375 75.5 M232.18359375 75.5 C78.49000359961772 75.5, -75.20358655076456 75.5, -232.18359375 75.5 M232.18359375 75.5 C54.370903372616795 75.5, -123.44178700476641 75.5, -232.18359375 75.5 M-232.18359375 75.5 C-232.18359375 38.461319633408394, -232.18359375 1.4226392668167875, -232.18359375 -75.5 M-232.18359375 75.5 C-232.18359375 45.03403040110151, -232.18359375 14.568060802203021, -232.18359375 -75.5"/></g><g transform="translate(0, -55.5)" class="annotation-group text"/><g transform="translate(-74.734375, -55.5)" class="label-group text"><g transform="translate(0,-9.5)" style="font-weight: bolder" class="label"><g><rect style="stroke: none" class="background"/><text style="" y="-10.1"><tspan font-weight="" dy="1.1em" y="-0.1em" x="0" class="text-outer-tspan"><tspan font-weight="" class="text-inner-tspan" font-style="normal">ValidationException</tspan></tspan></text></g></g></g><g transform="translate(-220.18359375, -12.5)" class="members-group text"><g transform="translate(0,-9.5)" style="" class="label"><g><rect style="stroke: none" class="background"/><text style="" y="-10.1"><tspan dy="1.1em" y="-0.1em" x="0" class="text-outer-tspan">-List&lt;ValidationError&gt; validationErrors</tspan></text></g></g></g><g transform="translate(-220.18359375, 30.5)" class="methods-group text"><g transform="translate(0,-9.5)" style="" class="label"><g><rect style="stroke: none" class="background"/><text style="" y="-10.1"><tspan dy="1.1em" y="-0.1em" x="0" class="text-outer-tspan">+ValidationException(errors: List&lt;ValidationError&gt;)</tspan></text></g></g><g transform="translate(0,12.5)" style="" class="label"><g><rect style="stroke: none" class="background"/><text style="" y="-10.1"><tspan dy="1.1em" y="-0.1em" x="0" class="text-outer-tspan">+getValidationErrors() : List&lt;ValidationError&gt;</tspan></text></g></g></g><g style="" class="divider"><path style="" fill="none" stroke-width="1.3" stroke="#9370DB" d="M-232.18359375 -32.5 C-104.95245820939488 -32.5, 22.278677331210247 -32.5, 232.18359375 -32.5 M-232.18359375 -32.5 C-69.20990817563722 -32.5, 93.76377739872555 -32.5, 232.18359375 -32.5"/></g><g style="" class="divider"><path style="" fill="none" stroke-width="1.3" stroke="#9370DB" d="M-232.18359375 10.5 C-87.22654014200901 10.5, 57.73051346598197 10.5, 232.18359375 10.5 M-232.18359375 10.5 C-130.06078839246726 10.5, -27.937983034934547 10.5, 232.18359375 10.5"/></g></g><g transform="translate(1786.458984375, 347.5)" id="classId-ResourceNotFoundException-3" class="node default"><g class="basic label-container"><path style="" fill="#ECECFF" stroke-width="0" stroke="none" d="M-318.51953125 -75.5 L318.51953125 -75.5 L318.51953125 75.5 L-318.51953125 75.5"/><path style="" fill="none" stroke-width="1.3" stroke="#9370DB" d="M-318.51953125 -75.5 C-157.93569806263275 -75.5, 2.6481351247344946 -75.5, 318.51953125 -75.5 M-318.51953125 -75.5 C-153.16428915047274 -75.5, 12.19095294905452 -75.5, 318.51953125 -75.5 M318.51953125 -75.5 C318.51953125 -36.7759177203593, 318.51953125 1.9481645592813948, 318.51953125 75.5 M318.51953125 -75.5 C318.51953125 -20.17353043407318, 318.51953125 35.15293913185364, 318.51953125 75.5 M318.51953125 75.5 C79.65138195438183 75.5, -159.21676734123633 75.5, -318.51953125 75.5 M318.51953125 75.5 C75.02463703927793 75.5, -168.47025717144413 75.5, -318.51953125 75.5 M-318.51953125 75.5 C-318.51953125 21.18622249899451, -318.51953125 -33.12755500201098, -318.51953125 -75.5 M-318.51953125 75.5 C-318.51953125 19.261690513954044, -318.51953125 -36.97661897209191, -318.51953125 -75.5"/></g><g transform="translate(0, -55.5)" class="annotation-group text"/><g transform="translate(-107.375, -55.5)" class="label-group text"><g transform="translate(0,-9.5)" style="font-weight: bolder" class="label"><g><rect style="stroke: none" class="background"/><text style="" y="-10.1"><tspan font-weight="" dy="1.1em" y="-0.1em" x="0" class="text-outer-tspan"><tspan font-weight="" class="text-inner-tspan" font-style="normal">ResourceNotFoundException</tspan></tspan></text></g></g></g><g transform="translate(-306.51953125, -12.5)" class="members-group text"><g transform="translate(0,-9.5)" style="" class="label"><g><rect style="stroke: none" class="background"/><text style="" y="-10.1"><tspan dy="1.1em" y="-0.1em" x="0" class="text-outer-tspan"><tspan font-weight="normal" class="text-inner-tspan" font-style="normal">-string</tspan><tspan font-weight="normal" class="text-inner-tspan" font-style="normal"> resourceType</tspan></tspan></text></g></g><g transform="translate(0,12.5)" style="" class="label"><g><rect style="stroke: none" class="background"/><text style="" y="-10.1"><tspan dy="1.1em" y="-0.1em" x="0" class="text-outer-tspan"><tspan font-weight="normal" class="text-inner-tspan" font-style="normal">-string</tspan><tspan font-weight="normal" class="text-inner-tspan" font-style="normal"> resourceId</tspan></tspan></text></g></g></g><g transform="translate(-306.51953125, 52.5)" class="methods-group text"><g transform="translate(0,-9.5)" style="" class="label"><g><rect style="stroke: none" class="background"/><text style="" y="-10.1"><tspan dy="1.1em" y="-0.1em" x="0" class="text-outer-tspan"><tspan font-weight="normal" class="text-inner-tspan" font-style="normal">+ResourceNotFoundException(resourceType:</tspan><tspan font-weight="normal" class="text-inner-tspan" font-style="normal"> string,</tspan><tspan font-weight="normal" class="text-inner-tspan" font-style="normal"> resourceId:</tspan><tspan font-weight="normal" class="text-inner-tspan" font-style="normal"> string)</tspan></tspan></text></g></g></g><g style="" class="divider"><path style="" fill="none" stroke-width="1.3" stroke="#9370DB" d="M-318.51953125 -32.5 C-77.95773762272441 -32.5, 162.60405600455118 -32.5, 318.51953125 -32.5 M-318.51953125 -32.5 C-117.7750970385618 -32.5, 82.96933717287641 -32.5, 318.51953125 -32.5"/></g><g style="" class="divider"><path style="" fill="none" stroke-width="1.3" stroke="#9370DB" d="M-318.51953125 32.5 C-188.33115476528118 32.5, -58.14277828056237 32.5, 318.51953125 32.5 M-318.51953125 32.5 C-166.0621182447958 32.5, -13.604705239591624 32.5, 318.51953125 32.5"/></g></g><g transform="translate(2359.869140625, 347.5)" id="classId-UnauthorizedException-4" class="node default"><g class="basic label-container"><path style="" fill="#ECECFF" stroke-width="0" stroke="none" d="M-204.890625 -58 L204.890625 -58 L204.890625 58 L-204.890625 58"/><path style="" fill="none" stroke-width="1.3" stroke="#9370DB" d="M-204.890625 -58 C-103.85073286954129 -58, -2.810840739082579 -58, 204.890625 -58 M-204.890625 -58 C-42.43511016917071 -58, 120.02040466165857 -58, 204.890625 -58 M204.890625 -58 C204.890625 -15.256284487770081, 204.890625 27.487431024459838, 204.890625 58 M204.890625 -58 C204.890625 -28.44617967185315, 204.890625 1.1076406562936967, 204.890625 58 M204.890625 58 C95.50452314120477 58, -13.881578717590457 58, -204.890625 58 M204.890625 58 C87.30857065806714 58, -30.27348368386572 58, -204.890625 58 M-204.890625 58 C-204.890625 21.62519297084036, -204.890625 -14.749614058319281, -204.890625 -58 M-204.890625 58 C-204.890625 15.006087164379466, -204.890625 -27.98782567124107, -204.890625 -58"/></g><g transform="translate(0, -38)" class="annotation-group text"/><g transform="translate(-87.9765625, -38)" class="label-group text"><g transform="translate(0,-9.5)" style="font-weight: bolder" class="label"><g><rect style="stroke: none" class="background"/><text style="" y="-10.1"><tspan font-weight="" dy="1.1em" y="-0.1em" x="0" class="text-outer-tspan"><tspan font-weight="" class="text-inner-tspan" font-style="normal">UnauthorizedException</tspan></tspan></text></g></g></g><g transform="translate(-192.890625, 5)" class="members-group text"/><g transform="translate(-192.890625, 35)" class="methods-group text"><g transform="translate(0,-9.5)" style="" class="label"><g><rect style="stroke: none" class="background"/><text style="" y="-10.1"><tspan dy="1.1em" y="-0.1em" x="0" class="text-outer-tspan"><tspan font-weight="normal" class="text-inner-tspan" font-style="normal">+UnauthorizedException(message:</tspan><tspan font-weight="normal" class="text-inner-tspan" font-style="normal"> string)</tspan></tspan></text></g></g></g><g style="" class="divider"><path style="" fill="none" stroke-width="1.3" stroke="#9370DB" d="M-204.890625 -15 C-97.22626171599052 -15, 10.438101568018965 -15, 204.890625 -15 M-204.890625 -15 C-72.62239898273785 -15, 59.6458270345243 -15, 204.890625 -15"/></g><g style="" class="divider"><path style="" fill="none" stroke-width="1.3" stroke="#9370DB" d="M-204.890625 9 C-83.8306785621922 9, 37.22926787561559 9, 204.890625 9 M-204.890625 9 C-94.5076047608127 9, 15.875415478374606 9, 204.890625 9"/></g></g><g transform="translate(318.80078125, 568.4749984741211)" id="classId-InsufficientStockException-5" class="node default"><g class="basic label-container"><path style="" fill="#ECECFF" stroke-width="0" stroke="none" d="M-310.80078125 -95.4749984741211 L310.80078125 -95.4749984741211 L310.80078125 95.4749984741211 L-310.80078125 95.4749984741211"/><path style="" fill="none" stroke-width="1.3" stroke="#9370DB" d="M-310.80078125 -95.4749984741211 C-125.11818057188859 -95.4749984741211, 60.564420106222826 -95.4749984741211, 310.80078125 -95.4749984741211 M-310.80078125 -95.4749984741211 C-140.51164384830452 -95.4749984741211, 29.77749355339097 -95.4749984741211, 310.80078125 -95.4749984741211 M310.80078125 -95.4749984741211 C310.80078125 -36.25400345951966, 310.80078125 22.966991555081776, 310.80078125 95.4749984741211 M310.80078125 -95.4749984741211 C310.80078125 -26.862914556938506, 310.80078125 41.74916936024408, 310.80078125 95.4749984741211 M310.80078125 95.4749984741211 C110.93446262287108 95.4749984741211, -88.93185600425784 95.4749984741211, -310.80078125 95.4749984741211 M310.80078125 95.4749984741211 C71.3540994210077 95.4749984741211, -168.0925824079846 95.4749984741211, -310.80078125 95.4749984741211 M-310.80078125 95.4749984741211 C-310.80078125 51.241165382212294, -310.80078125 7.007332290303495, -310.80078125 -95.4749984741211 M-310.80078125 95.4749984741211 C-310.80078125 37.82182744391145, -310.80078125 -19.83134358629819, -310.80078125 -95.4749984741211"/></g><g transform="translate(0, -75.4749984741211)" class="annotation-group text"/><g transform="translate(-99.7890625, -75.4749984741211)" class="label-group text"><g transform="translate(0,-9.5)" style="font-weight: bolder" class="label"><g><rect style="stroke: none" class="background"/><text style="" y="-10.1"><tspan font-weight="" dy="1.1em" y="-0.1em" x="0" class="text-outer-tspan"><tspan font-weight="" class="text-inner-tspan" font-style="normal">InsufficientStockException</tspan></tspan></text></g></g></g><g transform="translate(-298.80078125, -32.474998474121094)" class="members-group text"><g transform="translate(0,-9.5)" style="" class="label"><g><rect style="stroke: none" class="background"/><text style="" y="-10.1"><tspan dy="1.1em" y="-0.1em" x="0" class="text-outer-tspan"><tspan font-weight="normal" class="text-inner-tspan" font-style="normal">-int</tspan><tspan font-weight="normal" class="text-inner-tspan" font-style="normal"> productId</tspan></tspan></text></g></g><g transform="translate(0,12.5)" style="" class="label"><g><rect style="stroke: none" class="background"/><text style="" y="-10.1"><tspan dy="1.1em" y="-0.1em" x="0" class="text-outer-tspan"><tspan font-weight="normal" class="text-inner-tspan" font-style="normal">-int</tspan><tspan font-weight="normal" class="text-inner-tspan" font-style="normal"> requestedQuantity</tspan></tspan></text></g></g><g transform="translate(0,34.5)" style="" class="label"><g><rect style="stroke: none" class="background"/><text style="" y="-10.1"><tspan dy="1.1em" y="-0.1em" x="0" class="text-outer-tspan"><tspan font-weight="normal" class="text-inner-tspan" font-style="normal">-int</tspan><tspan font-weight="normal" class="text-inner-tspan" font-style="normal"> availableQuantity</tspan></tspan></text></g></g></g><g transform="translate(-298.80078125, 54.525001525878906)" class="methods-group text"><g transform="translate(0,-9.149999618530273)" style="" class="label"><g><rect style="stroke: none" class="background"/><text style="" y="-10.1"><tspan dy="1.1em" y="-0.1em" x="0" class="text-outer-tspan"><tspan font-weight="normal" class="text-inner-tspan" font-style="normal">+InsufficientStockException(productId:</tspan><tspan font-weight="normal" class="text-inner-tspan" font-style="normal"> int,</tspan><tspan font-weight="normal" class="text-inner-tspan" font-style="normal"> requested:</tspan><tspan font-weight="normal" class="text-inner-tspan" font-style="normal"> int,</tspan><tspan font-weight="normal" class="text-inner-tspan" font-style="normal"> available:</tspan></tspan><tspan dy="1.1em" y="1em" x="0" class="text-outer-tspan"><tspan font-weight="normal" class="text-inner-tspan" font-style="normal">int)</tspan></tspan></text></g></g></g><g style="" class="divider"><path style="" fill="none" stroke-width="1.3" stroke="#9370DB" d="M-310.80078125 -52.474998474121094 C-89.75473757333006 -52.474998474121094, 131.29130610333988 -52.474998474121094, 310.80078125 -52.474998474121094 M-310.80078125 -52.474998474121094 C-183.65798137915448 -52.474998474121094, -56.515181508308984 -52.474998474121094, 310.80078125 -52.474998474121094"/></g><g style="" class="divider"><path style="" fill="none" stroke-width="1.3" stroke="#9370DB" d="M-310.80078125 34.525001525878906 C-162.65873217575896 34.525001525878906, -14.516683101517913 34.525001525878906, 310.80078125 34.525001525878906 M-310.80078125 34.525001525878906 C-134.10190342209413 34.525001525878906, 42.59697440581175 34.525001525878906, 310.80078125 34.525001525878906"/></g></g><g transform="translate(1001.03125, 568.4749984741211)" id="classId-PaymentProcessingException-6" class="node default"><g class="basic label-container"><path style="" fill="#ECECFF" stroke-width="0" stroke="none" d="M-321.4296875 -75.5 L321.4296875 -75.5 L321.4296875 75.5 L-321.4296875 75.5"/><path style="" fill="none" stroke-width="1.3" stroke="#9370DB" d="M-321.4296875 -75.5 C-64.39960722309377 -75.5, 192.63047305381247 -75.5, 321.4296875 -75.5 M-321.4296875 -75.5 C-153.01786592747916 -75.5, 15.393955645041672 -75.5, 321.4296875 -75.5 M321.4296875 -75.5 C321.4296875 -35.0385306249062, 321.4296875 5.422938750187598, 321.4296875 75.5 M321.4296875 -75.5 C321.4296875 -38.18453528900576, 321.4296875 -0.8690705780115167, 321.4296875 75.5 M321.4296875 75.5 C134.90332391382466 75.5, -51.62303967235067 75.5, -321.4296875 75.5 M321.4296875 75.5 C137.0319325237536 75.5, -47.36582245249281 75.5, -321.4296875 75.5 M-321.4296875 75.5 C-321.4296875 31.908593446825655, -321.4296875 -11.68281310634869, -321.4296875 -75.5 M-321.4296875 75.5 C-321.4296875 34.70730033848061, -321.4296875 -6.085399323038786, -321.4296875 -75.5"/></g><g transform="translate(0, -55.5)" class="annotation-group text"/><g transform="translate(-108.6953125, -55.5)" class="label-group text"><g transform="translate(0,-9.5)" style="font-weight: bolder" class="label"><g><rect style="stroke: none" class="background"/><text style="" y="-10.1"><tspan font-weight="" dy="1.1em" y="-0.1em" x="0" class="text-outer-tspan"><tspan font-weight="" class="text-inner-tspan" font-style="normal">PaymentProcessingException</tspan></tspan></text></g></g></g><g transform="translate(-309.4296875, -12.5)" class="members-group text"><g transform="translate(0,-9.5)" style="" class="label"><g><rect style="stroke: none" class="background"/><text style="" y="-10.1"><tspan dy="1.1em" y="-0.1em" x="0" class="text-outer-tspan"><tspan font-weight="normal" class="text-inner-tspan" font-style="normal">-string</tspan><tspan font-weight="normal" class="text-inner-tspan" font-style="normal"> paymentId</tspan></tspan></text></g></g><g transform="translate(0,12.5)" style="" class="label"><g><rect style="stroke: none" class="background"/><text style="" y="-10.1"><tspan dy="1.1em" y="-0.1em" x="0" class="text-outer-tspan"><tspan font-weight="normal" class="text-inner-tspan" font-style="normal">-string</tspan><tspan font-weight="normal" class="text-inner-tspan" font-style="normal"> gatewayError</tspan></tspan></text></g></g></g><g transform="translate(-309.4296875, 52.5)" class="methods-group text"><g transform="translate(0,-9.5)" style="" class="label"><g><rect style="stroke: none" class="background"/><text style="" y="-10.1"><tspan dy="1.1em" y="-0.1em" x="0" class="text-outer-tspan"><tspan font-weight="normal" class="text-inner-tspan" font-style="normal">+PaymentProcessingException(paymentId:</tspan><tspan font-weight="normal" class="text-inner-tspan" font-style="normal"> string,</tspan><tspan font-weight="normal" class="text-inner-tspan" font-style="normal"> gatewayError:</tspan><tspan font-weight="normal" class="text-inner-tspan" font-style="normal"> string)</tspan></tspan></text></g></g></g><g style="" class="divider"><path style="" fill="none" stroke-width="1.3" stroke="#9370DB" d="M-321.4296875 -32.5 C-106.3287284538093 -32.5, 108.77223059238139 -32.5, 321.4296875 -32.5 M-321.4296875 -32.5 C-132.09985145174184 -32.5, 57.22998459651632 -32.5, 321.4296875 -32.5"/></g><g style="" class="divider"><path style="" fill="none" stroke-width="1.3" stroke="#9370DB" d="M-321.4296875 32.5 C-138.35527379559937 32.5, 44.71913990880125 32.5, 321.4296875 32.5 M-321.4296875 32.5 C-182.0317317039403 32.5, -42.63377590788059 32.5, 321.4296875 32.5"/></g></g></g></g></g></svg>