<svg aria-roledescription="er" role="graphics-document document" viewBox="0 0 1338.7578125 760.75" style="max-width: 1338.76px; background-color: white;" class="erDiagram" xmlns:xlink="http://www.w3.org/1999/xlink" xmlns="http://www.w3.org/2000/svg" width="100%" id="my-svg"><style>#my-svg{font-family:"trebuchet ms",verdana,arial,sans-serif;font-size:16px;fill:#333;}@keyframes edge-animation-frame{from{stroke-dashoffset:0;}}@keyframes dash{to{stroke-dashoffset:0;}}#my-svg .edge-animation-slow{stroke-dasharray:9,5!important;stroke-dashoffset:900;animation:dash 50s linear infinite;stroke-linecap:round;}#my-svg .edge-animation-fast{stroke-dasharray:9,5!important;stroke-dashoffset:900;animation:dash 20s linear infinite;stroke-linecap:round;}#my-svg .error-icon{fill:#552222;}#my-svg .error-text{fill:#552222;stroke:#552222;}#my-svg .edge-thickness-normal{stroke-width:1px;}#my-svg .edge-thickness-thick{stroke-width:3.5px;}#my-svg .edge-pattern-solid{stroke-dasharray:0;}#my-svg .edge-thickness-invisible{stroke-width:0;fill:none;}#my-svg .edge-pattern-dashed{stroke-dasharray:3;}#my-svg .edge-pattern-dotted{stroke-dasharray:2;}#my-svg .marker{fill:#333333;stroke:#333333;}#my-svg .marker.cross{stroke:#333333;}#my-svg svg{font-family:"trebuchet ms",verdana,arial,sans-serif;font-size:16px;}#my-svg p{margin:0;}#my-svg .entityBox{fill:#ECECFF;stroke:#9370DB;}#my-svg .relationshipLabelBox{fill:hsl(80, 100%, 96.2745098039%);opacity:0.7;background-color:hsl(80, 100%, 96.2745098039%);}#my-svg .relationshipLabelBox rect{opacity:0.5;}#my-svg .labelBkg{background-color:rgba(248.6666666666, 255, 235.9999999999, 0.5);}#my-svg .edgeLabel .label{fill:#9370DB;font-size:14px;}#my-svg .label{font-family:"trebuchet ms",verdana,arial,sans-serif;color:#333;}#my-svg .edge-pattern-dashed{stroke-dasharray:8,8;}#my-svg .node rect,#my-svg .node circle,#my-svg .node ellipse,#my-svg .node polygon{fill:#ECECFF;stroke:#9370DB;stroke-width:1px;}#my-svg .relationshipLine{stroke:#333333;stroke-width:1;fill:none;}#my-svg .marker{fill:none!important;stroke:#333333!important;stroke-width:1;}#my-svg :root{--mermaid-font-family:"trebuchet ms",verdana,arial,sans-serif;}</style><g><defs><marker orient="auto" markerHeight="18" markerWidth="18" refY="9" refX="0" class="marker onlyOne er" id="my-svg_er-onlyOneStart"><path d="M9,0 L9,18 M15,0 L15,18"/></marker></defs><defs><marker orient="auto" markerHeight="18" markerWidth="18" refY="9" refX="18" class="marker onlyOne er" id="my-svg_er-onlyOneEnd"><path d="M3,0 L3,18 M9,0 L9,18"/></marker></defs><defs><marker orient="auto" markerHeight="18" markerWidth="30" refY="9" refX="0" class="marker zeroOrOne er" id="my-svg_er-zeroOrOneStart"><circle r="6" cy="9" cx="21" fill="white"/><path d="M9,0 L9,18"/></marker></defs><defs><marker orient="auto" markerHeight="18" markerWidth="30" refY="9" refX="30" class="marker zeroOrOne er" id="my-svg_er-zeroOrOneEnd"><circle r="6" cy="9" cx="9" fill="white"/><path d="M21,0 L21,18"/></marker></defs><defs><marker orient="auto" markerHeight="36" markerWidth="45" refY="18" refX="18" class="marker oneOrMore er" id="my-svg_er-oneOrMoreStart"><path d="M0,18 Q 18,0 36,18 Q 18,36 0,18 M42,9 L42,27"/></marker></defs><defs><marker orient="auto" markerHeight="36" markerWidth="45" refY="18" refX="27" class="marker oneOrMore er" id="my-svg_er-oneOrMoreEnd"><path d="M3,9 L3,27 M9,18 Q27,0 45,18 Q27,36 9,18"/></marker></defs><defs><marker orient="auto" markerHeight="36" markerWidth="57" refY="18" refX="18" class="marker zeroOrMore er" id="my-svg_er-zeroOrMoreStart"><circle r="6" cy="18" cx="48" fill="white"/><path d="M0,18 Q18,0 36,18 Q18,36 0,18"/></marker></defs><defs><marker orient="auto" markerHeight="36" markerWidth="57" refY="18" refX="39" class="marker zeroOrMore er" id="my-svg_er-zeroOrMoreEnd"><circle r="6" cy="18" cx="9" fill="white"/><path d="M21,18 Q39,0 57,18 Q39,36 21,18"/></marker></defs><g class="root"><g class="clusters"/><g class="edgePaths"><path marker-end="url(#my-svg_er-zeroOrMoreEnd)" marker-start="url(#my-svg_er-onlyOneStart)" style="" class="edge-thickness-normal edge-pattern-solid relationshipLine" id="id_entity-USER-0_entity-USER_ROLE-3_0" d="M186.139,336.913L170.199,353.594C154.259,370.275,122.38,403.638,109.604,435.194C96.827,466.75,103.155,496.5,106.319,511.375L109.482,526.25"/><path marker-end="url(#my-svg_er-zeroOrMoreEnd)" marker-start="url(#my-svg_er-onlyOneStart)" style="" class="edge-thickness-normal edge-pattern-solid relationshipLine" id="id_entity-ROLE-1_entity-USER_ROLE-3_1" d="M594.006,271.462L549.474,299.052C504.943,326.641,415.88,381.821,355.368,424.285C294.857,466.75,262.898,496.5,246.918,511.375L230.938,526.25"/><path marker-end="url(#my-svg_er-zeroOrMoreEnd)" marker-start="url(#my-svg_er-onlyOneStart)" style="" class="edge-thickness-normal edge-pattern-solid relationshipLine" id="id_entity-ROLE-1_entity-ROLE_PERMISSION-4_2" d="M809.054,291.125L833.388,315.438C857.722,339.75,906.391,388.375,949.894,430.708C993.397,473.042,1031.735,509.083,1050.904,527.104L1070.073,545.125"/><path marker-end="url(#my-svg_er-zeroOrMoreEnd)" marker-start="url(#my-svg_er-onlyOneStart)" style="" class="edge-thickness-normal edge-pattern-solid relationshipLine" id="id_entity-PERMISSION-2_entity-ROLE_PERMISSION-4_3" d="M1188.199,310L1188.199,331.167C1188.199,352.333,1188.199,394.667,1184.488,433.854C1180.777,473.042,1173.354,509.083,1169.643,527.104L1165.932,545.125"/><path marker-end="url(#my-svg_er-zeroOrMoreEnd)" marker-start="url(#my-svg_er-onlyOneStart)" style="" class="edge-thickness-normal edge-pattern-solid relationshipLine" id="id_entity-USER-0_entity-SESSION-5_4" d="M454.006,328.833L472.286,346.861C490.566,364.889,527.127,400.944,545.407,427.556C563.688,454.167,563.688,471.333,563.688,479.917L563.688,488.5"/></g><g class="edgeLabels"><g transform="translate(90.5, 437)" class="edgeLabel"><g transform="translate(-14.07421875, -11.5)" class="label"><g><rect height="23" width="28.1484375" y="-1" x="-2" style="" class="background"/><text style="" y="-10.1"><tspan dy="1.1em" y="-0.1em" x="0" class="text-outer-tspan"><tspan font-weight="normal" class="text-inner-tspan" font-style="normal">has</tspan></tspan></text></g></g></g><g transform="translate(326.81640625, 437)" class="edgeLabel"><g transform="translate(-44.03515625, -11.5)" class="label"><g><rect height="23" width="88.0703125" y="-1" x="-2" style="" class="background"/><text style="" y="-10.1"><tspan dy="1.1em" y="-0.1em" x="0" class="text-outer-tspan"><tspan font-weight="normal" class="text-inner-tspan" font-style="normal">assigned_to</tspan></tspan></text></g></g></g><g transform="translate(955.05859375, 437)" class="edgeLabel"><g transform="translate(-14.07421875, -11.5)" class="label"><g><rect height="23" width="28.1484375" y="-1" x="-2" style="" class="background"/><text style="" y="-10.1"><tspan dy="1.1em" y="-0.1em" x="0" class="text-outer-tspan"><tspan font-weight="normal" class="text-inner-tspan" font-style="normal">has</tspan></tspan></text></g></g></g><g transform="translate(1188.19921875, 437)" class="edgeLabel"><g transform="translate(-41.55859375, -11.5)" class="label"><g><rect height="23" width="83.1171875" y="-1" x="-2" style="" class="background"/><text style="" y="-10.1"><tspan dy="1.1em" y="-0.1em" x="0" class="text-outer-tspan"><tspan font-weight="normal" class="text-inner-tspan" font-style="normal">granted_to</tspan></tspan></text></g></g></g><g transform="translate(563.6875, 437)" class="edgeLabel"><g transform="translate(-28.671875, -11.5)" class="label"><g><rect height="23" width="57.34375" y="-1" x="-2" style="" class="background"/><text style="" y="-10.1"><tspan dy="1.1em" y="-0.1em" x="0" class="text-outer-tspan"><tspan font-weight="normal" class="text-inner-tspan" font-style="normal">creates</tspan></tspan></text></g></g></g></g><g class="nodes"><g transform="translate(320.072265625, 196.75)" id="entity-USER-0" class="node default"><g style=""><path fill="#ECECFF" stroke-width="0" stroke="none" d="M-133.93359375 -188.75 L133.93359375 -188.75 L133.93359375 188.75 L-133.93359375 188.75"/><path fill="none" stroke-width="1.3" stroke="#9370DB" d="M-133.93359375 -188.75 C-68.81268224532224 -188.75, -3.691770740644472 -188.75, 133.93359375 -188.75 M-133.93359375 -188.75 C-32.345435222166515 -188.75, 69.24272330566697 -188.75, 133.93359375 -188.75 M133.93359375 -188.75 C133.93359375 -53.52968039847133, 133.93359375 81.69063920305734, 133.93359375 188.75 M133.93359375 -188.75 C133.93359375 -90.64450748972322, 133.93359375 7.460985020553551, 133.93359375 188.75 M133.93359375 188.75 C31.910502329721226 188.75, -70.11258909055755 188.75, -133.93359375 188.75 M133.93359375 188.75 C45.45248815677577 188.75, -43.02861743644846 188.75, -133.93359375 188.75 M-133.93359375 188.75 C-133.93359375 82.26989233796594, -133.93359375 -24.210215324068116, -133.93359375 -188.75 M-133.93359375 188.75 C-133.93359375 43.93354517206373, -133.93359375 -100.88290965587254, -133.93359375 -188.75"/></g><g class="row-rect-odd" style=""><path fill="hsl(240, 100%, 100%)" stroke-width="0" stroke="none" d="M-133.93359375 -151 L133.93359375 -151 L133.93359375 -113.25 L-133.93359375 -113.25"/><path fill="none" stroke-width="1.3" stroke="#9370DB" d="M-133.93359375 -151 C-72.90967066295019 -151, -11.885747575900382 -151, 133.93359375 -151 M-133.93359375 -151 C-32.818002327073714 -151, 68.29758909585257 -151, 133.93359375 -151 M133.93359375 -151 C133.93359375 -138.00083498447492, 133.93359375 -125.00166996894987, 133.93359375 -113.25 M133.93359375 -151 C133.93359375 -140.42447125316914, 133.93359375 -129.8489425063383, 133.93359375 -113.25 M133.93359375 -113.25 C69.08432910582187 -113.25, 4.235064461643731 -113.25, -133.93359375 -113.25 M133.93359375 -113.25 C71.62587281735317 -113.25, 9.318151884706339 -113.25, -133.93359375 -113.25 M-133.93359375 -113.25 C-133.93359375 -123.02178757183123, -133.93359375 -132.79357514366245, -133.93359375 -151 M-133.93359375 -113.25 C-133.93359375 -127.30236561302587, -133.93359375 -141.35473122605174, -133.93359375 -151"/></g><g class="row-rect-even" style=""><path fill="hsl(240, 100%, 97.2745098039%)" stroke-width="0" stroke="none" d="M-133.93359375 -113.25 L133.93359375 -113.25 L133.93359375 -75.5 L-133.93359375 -75.5"/><path fill="none" stroke-width="1.3" stroke="#9370DB" d="M-133.93359375 -113.25 C-68.85997945478589 -113.25, -3.7863651595717727 -113.25, 133.93359375 -113.25 M-133.93359375 -113.25 C-80.01924923452691 -113.25, -26.10490471905382 -113.25, 133.93359375 -113.25 M133.93359375 -113.25 C133.93359375 -100.24246158332014, 133.93359375 -87.23492316664027, 133.93359375 -75.5 M133.93359375 -113.25 C133.93359375 -101.87945319462001, 133.93359375 -90.50890638924002, 133.93359375 -75.5 M133.93359375 -75.5 C30.10162630351273 -75.5, -73.73034114297454 -75.5, -133.93359375 -75.5 M133.93359375 -75.5 C78.76034255653002 -75.5, 23.58709136306004 -75.5, -133.93359375 -75.5 M-133.93359375 -75.5 C-133.93359375 -87.0856677108198, -133.93359375 -98.67133542163961, -133.93359375 -113.25 M-133.93359375 -75.5 C-133.93359375 -87.85841012508507, -133.93359375 -100.21682025017016, -133.93359375 -113.25"/></g><g class="row-rect-odd" style=""><path fill="hsl(240, 100%, 100%)" stroke-width="0" stroke="none" d="M-133.93359375 -75.5 L133.93359375 -75.5 L133.93359375 -37.75 L-133.93359375 -37.75"/><path fill="none" stroke-width="1.3" stroke="#9370DB" d="M-133.93359375 -75.5 C-70.77572796319097 -75.5, -7.617862176381934 -75.5, 133.93359375 -75.5 M-133.93359375 -75.5 C-79.52830531893562 -75.5, -25.12301688787126 -75.5, 133.93359375 -75.5 M133.93359375 -75.5 C133.93359375 -64.33605027539808, 133.93359375 -53.172100550796166, 133.93359375 -37.75 M133.93359375 -75.5 C133.93359375 -64.31413255004655, 133.93359375 -53.128265100093095, 133.93359375 -37.75 M133.93359375 -37.75 C41.00087959294352 -37.75, -51.93183456411296 -37.75, -133.93359375 -37.75 M133.93359375 -37.75 C66.88298915169064 -37.75, -0.16761544661872563 -37.75, -133.93359375 -37.75 M-133.93359375 -37.75 C-133.93359375 -46.61575513570952, -133.93359375 -55.48151027141905, -133.93359375 -75.5 M-133.93359375 -37.75 C-133.93359375 -46.926126964126226, -133.93359375 -56.10225392825246, -133.93359375 -75.5"/></g><g class="row-rect-even" style=""><path fill="hsl(240, 100%, 97.2745098039%)" stroke-width="0" stroke="none" d="M-133.93359375 -37.75 L133.93359375 -37.75 L133.93359375 0 L-133.93359375 0"/><path fill="none" stroke-width="1.3" stroke="#9370DB" d="M-133.93359375 -37.75 C-61.446246630630355 -37.75, 11.04110048873929 -37.75, 133.93359375 -37.75 M-133.93359375 -37.75 C-35.27925267578854 -37.75, 63.37508839842292 -37.75, 133.93359375 -37.75 M133.93359375 -37.75 C133.93359375 -23.960105336941403, 133.93359375 -10.170210673882806, 133.93359375 0 M133.93359375 -37.75 C133.93359375 -29.71294273641822, 133.93359375 -21.675885472836445, 133.93359375 0 M133.93359375 0 C59.999596846348695 0, -13.93440005730261 0, -133.93359375 0 M133.93359375 0 C27.60528253162049 0, -78.72302868675902 0, -133.93359375 0 M-133.93359375 0 C-133.93359375 -8.898151607152355, -133.93359375 -17.79630321430471, -133.93359375 -37.75 M-133.93359375 0 C-133.93359375 -10.707806048728974, -133.93359375 -21.41561209745795, -133.93359375 -37.75"/></g><g class="row-rect-odd" style=""><path fill="hsl(240, 100%, 100%)" stroke-width="0" stroke="none" d="M-133.93359375 0 L133.93359375 0 L133.93359375 37.75 L-133.93359375 37.75"/><path fill="none" stroke-width="1.3" stroke="#9370DB" d="M-133.93359375 0 C-53.94677482333407 0, 26.040044103331866 0, 133.93359375 0 M-133.93359375 0 C-45.33180235648129 0, 43.26998903703742 0, 133.93359375 0 M133.93359375 0 C133.93359375 13.483914287295724, 133.93359375 26.967828574591447, 133.93359375 37.75 M133.93359375 0 C133.93359375 7.727397323573688, 133.93359375 15.454794647147375, 133.93359375 37.75 M133.93359375 37.75 C28.294489343757704 37.75, -77.34461506248459 37.75, -133.93359375 37.75 M133.93359375 37.75 C43.11820973701397 37.75, -47.69717427597206 37.75, -133.93359375 37.75 M-133.93359375 37.75 C-133.93359375 26.18273044453607, -133.93359375 14.615460889072143, -133.93359375 0 M-133.93359375 37.75 C-133.93359375 29.69484551217691, -133.93359375 21.63969102435382, -133.93359375 0"/></g><g class="row-rect-even" style=""><path fill="hsl(240, 100%, 97.2745098039%)" stroke-width="0" stroke="none" d="M-133.93359375 37.75 L133.93359375 37.75 L133.93359375 75.5 L-133.93359375 75.5"/><path fill="none" stroke-width="1.3" stroke="#9370DB" d="M-133.93359375 37.75 C-33.197367891900825 37.75, 67.53885796619835 37.75, 133.93359375 37.75 M-133.93359375 37.75 C-40.360936353829686 37.75, 53.21172104234063 37.75, 133.93359375 37.75 M133.93359375 37.75 C133.93359375 45.59888992720445, 133.93359375 53.4477798544089, 133.93359375 75.5 M133.93359375 37.75 C133.93359375 46.39312442934573, 133.93359375 55.036248858691465, 133.93359375 75.5 M133.93359375 75.5 C64.80756744947695 75.5, -4.318458851046103 75.5, -133.93359375 75.5 M133.93359375 75.5 C29.688530047427662 75.5, -74.55653365514468 75.5, -133.93359375 75.5 M-133.93359375 75.5 C-133.93359375 64.48558368656049, -133.93359375 53.47116737312098, -133.93359375 37.75 M-133.93359375 75.5 C-133.93359375 60.49422991200019, -133.93359375 45.488459824000394, -133.93359375 37.75"/></g><g class="row-rect-odd" style=""><path fill="hsl(240, 100%, 100%)" stroke-width="0" stroke="none" d="M-133.93359375 75.5 L133.93359375 75.5 L133.93359375 113.25 L-133.93359375 113.25"/><path fill="none" stroke-width="1.3" stroke="#9370DB" d="M-133.93359375 75.5 C-34.52085342092079 75.5, 64.89188690815843 75.5, 133.93359375 75.5 M-133.93359375 75.5 C-54.5208728205634 75.5, 24.891848108873205 75.5, 133.93359375 75.5 M133.93359375 75.5 C133.93359375 83.71522760732128, 133.93359375 91.93045521464255, 133.93359375 113.25 M133.93359375 75.5 C133.93359375 90.12117790960106, 133.93359375 104.74235581920212, 133.93359375 113.25 M133.93359375 113.25 C38.346417334815186 113.25, -57.24075908036963 113.25, -133.93359375 113.25 M133.93359375 113.25 C51.16878769486644 113.25, -31.596018360267124 113.25, -133.93359375 113.25 M-133.93359375 113.25 C-133.93359375 104.79894223210295, -133.93359375 96.34788446420589, -133.93359375 75.5 M-133.93359375 113.25 C-133.93359375 99.60787922195712, -133.93359375 85.96575844391423, -133.93359375 75.5"/></g><g class="row-rect-even" style=""><path fill="hsl(240, 100%, 97.2745098039%)" stroke-width="0" stroke="none" d="M-133.93359375 113.25 L133.93359375 113.25 L133.93359375 151 L-133.93359375 151"/><path fill="none" stroke-width="1.3" stroke="#9370DB" d="M-133.93359375 113.25 C-38.77278208066407 113.25, 56.388029588671856 113.25, 133.93359375 113.25 M-133.93359375 113.25 C-76.38238947342856 113.25, -18.83118519685712 113.25, 133.93359375 113.25 M133.93359375 113.25 C133.93359375 127.08961460726599, 133.93359375 140.92922921453197, 133.93359375 151 M133.93359375 113.25 C133.93359375 124.13442148343564, 133.93359375 135.0188429668713, 133.93359375 151 M133.93359375 151 C79.898270283372 151, 25.862946816743985 151, -133.93359375 151 M133.93359375 151 C32.22133328103993 151, -69.49092718792014 151, -133.93359375 151 M-133.93359375 151 C-133.93359375 140.88711706548307, -133.93359375 130.77423413096616, -133.93359375 113.25 M-133.93359375 151 C-133.93359375 137.994208101986, -133.93359375 124.98841620397201, -133.93359375 113.25"/></g><g class="row-rect-odd" style=""><path fill="hsl(240, 100%, 100%)" stroke-width="0" stroke="none" d="M-133.93359375 151 L133.93359375 151 L133.93359375 188.75 L-133.93359375 188.75"/><path fill="none" stroke-width="1.3" stroke="#9370DB" d="M-133.93359375 151 C-47.40367401492628 151, 39.12624572014744 151, 133.93359375 151 M-133.93359375 151 C-74.23560263086824 151, -14.537611511736472 151, 133.93359375 151 M133.93359375 151 C133.93359375 162.54238826707189, 133.93359375 174.0847765341438, 133.93359375 188.75 M133.93359375 151 C133.93359375 162.17479481182517, 133.93359375 173.34958962365033, 133.93359375 188.75 M133.93359375 188.75 C55.80176174994541 188.75, -22.330070250109173 188.75, -133.93359375 188.75 M133.93359375 188.75 C29.405778753462144 188.75, -75.12203624307571 188.75, -133.93359375 188.75 M-133.93359375 188.75 C-133.93359375 179.08767235585557, -133.93359375 169.42534471171115, -133.93359375 151 M-133.93359375 188.75 C-133.93359375 180.089256384873, -133.93359375 171.42851276974602, -133.93359375 151"/></g><g style="" transform="translate(-18.3203125, -179.375)" class="label name"><g><rect style="stroke: none" class="background"/></g><text style="" y="-10.1"><tspan dy="1.1em" y="-0.1em" x="0" class="text-outer-tspan"><tspan font-weight="normal" class="text-inner-tspan" font-style="normal">USER</tspan></tspan></text></g><g style="" transform="translate(-121.43359375, -141.625)" class="label attribute-type"><g><rect style="stroke: none" class="background"/></g><text style="" y="-10.1"><tspan dy="1.1em" y="-0.1em" x="0" class="text-outer-tspan"><tspan font-weight="normal" class="text-inner-tspan" font-style="normal">int</tspan></tspan></text></g><g style="" transform="translate(-30.85546875, -141.625)" class="label attribute-name"><g><rect style="stroke: none" class="background"/></g><text style="" y="-10.1"><tspan dy="1.1em" y="-0.1em" x="0" class="text-outer-tspan"><tspan font-weight="normal" class="text-inner-tspan" font-style="normal">user_id</tspan></tspan></text></g><g style="" transform="translate(101.05859375, -141.625)" class="label attribute-keys"><g><rect style="stroke: none" class="background"/></g><text style="" y="-10.1"><tspan dy="1.1em" y="-0.1em" x="0" class="text-outer-tspan"><tspan font-weight="normal" class="text-inner-tspan" font-style="normal">PK</tspan></tspan></text></g><g style="" transform="translate(146.43359375, -141.625)" class="label attribute-comment"><g><rect style="stroke: none" class="background"/></g><text style="" y="-10.1"><tspan dy="1.1em" y="-0.1em" x="0" class="text-outer-tspan"/></text></g><g style="" transform="translate(-121.43359375, -103.875)" class="label attribute-type"><g><rect style="stroke: none" class="background"/></g><text style="" y="-10.1"><tspan dy="1.1em" y="-0.1em" x="0" class="text-outer-tspan"><tspan font-weight="normal" class="text-inner-tspan" font-style="normal">string</tspan></tspan></text></g><g style="" transform="translate(-30.85546875, -103.875)" class="label attribute-name"><g><rect style="stroke: none" class="background"/></g><text style="" y="-10.1"><tspan dy="1.1em" y="-0.1em" x="0" class="text-outer-tspan"><tspan font-weight="normal" class="text-inner-tspan" font-style="normal">username</tspan></tspan></text></g><g style="" transform="translate(101.05859375, -103.875)" class="label attribute-keys"><g><rect style="stroke: none" class="background"/></g><text style="" y="-10.1"><tspan dy="1.1em" y="-0.1em" x="0" class="text-outer-tspan"><tspan font-weight="normal" class="text-inner-tspan" font-style="normal">UK</tspan></tspan></text></g><g style="" transform="translate(146.43359375, -103.875)" class="label attribute-comment"><g><rect style="stroke: none" class="background"/></g><text style="" y="-10.1"><tspan dy="1.1em" y="-0.1em" x="0" class="text-outer-tspan"/></text></g><g style="" transform="translate(-121.43359375, -66.125)" class="label attribute-type"><g><rect style="stroke: none" class="background"/></g><text style="" y="-10.1"><tspan dy="1.1em" y="-0.1em" x="0" class="text-outer-tspan"><tspan font-weight="normal" class="text-inner-tspan" font-style="normal">string</tspan></tspan></text></g><g style="" transform="translate(-30.85546875, -66.125)" class="label attribute-name"><g><rect style="stroke: none" class="background"/></g><text style="" y="-10.1"><tspan dy="1.1em" y="-0.1em" x="0" class="text-outer-tspan"><tspan font-weight="normal" class="text-inner-tspan" font-style="normal">email</tspan></tspan></text></g><g style="" transform="translate(101.05859375, -66.125)" class="label attribute-keys"><g><rect style="stroke: none" class="background"/></g><text style="" y="-10.1"><tspan dy="1.1em" y="-0.1em" x="0" class="text-outer-tspan"><tspan font-weight="normal" class="text-inner-tspan" font-style="normal">UK</tspan></tspan></text></g><g style="" transform="translate(146.43359375, -66.125)" class="label attribute-comment"><g><rect style="stroke: none" class="background"/></g><text style="" y="-10.1"><tspan dy="1.1em" y="-0.1em" x="0" class="text-outer-tspan"/></text></g><g style="" transform="translate(-121.43359375, -28.375)" class="label attribute-type"><g><rect style="stroke: none" class="background"/></g><text style="" y="-10.1"><tspan dy="1.1em" y="-0.1em" x="0" class="text-outer-tspan"><tspan font-weight="normal" class="text-inner-tspan" font-style="normal">string</tspan></tspan></text></g><g style="" transform="translate(-30.85546875, -28.375)" class="label attribute-name"><g><rect style="stroke: none" class="background"/></g><text style="" y="-10.1"><tspan dy="1.1em" y="-0.1em" x="0" class="text-outer-tspan"><tspan font-weight="normal" class="text-inner-tspan" font-style="normal">password_hash</tspan></tspan></text></g><g style="" transform="translate(101.05859375, -28.375)" class="label attribute-keys"><g><rect style="stroke: none" class="background"/></g><text style="" y="-10.1"><tspan dy="1.1em" y="-0.1em" x="0" class="text-outer-tspan"/></text></g><g style="" transform="translate(146.43359375, -28.375)" class="label attribute-comment"><g><rect style="stroke: none" class="background"/></g><text style="" y="-10.1"><tspan dy="1.1em" y="-0.1em" x="0" class="text-outer-tspan"/></text></g><g style="" transform="translate(-121.43359375, 9.375)" class="label attribute-type"><g><rect style="stroke: none" class="background"/></g><text style="" y="-10.1"><tspan dy="1.1em" y="-0.1em" x="0" class="text-outer-tspan"><tspan font-weight="normal" class="text-inner-tspan" font-style="normal">string</tspan></tspan></text></g><g style="" transform="translate(-30.85546875, 9.375)" class="label attribute-name"><g><rect style="stroke: none" class="background"/></g><text style="" y="-10.1"><tspan dy="1.1em" y="-0.1em" x="0" class="text-outer-tspan"><tspan font-weight="normal" class="text-inner-tspan" font-style="normal">first_name</tspan></tspan></text></g><g style="" transform="translate(101.05859375, 9.375)" class="label attribute-keys"><g><rect style="stroke: none" class="background"/></g><text style="" y="-10.1"><tspan dy="1.1em" y="-0.1em" x="0" class="text-outer-tspan"/></text></g><g style="" transform="translate(146.43359375, 9.375)" class="label attribute-comment"><g><rect style="stroke: none" class="background"/></g><text style="" y="-10.1"><tspan dy="1.1em" y="-0.1em" x="0" class="text-outer-tspan"/></text></g><g style="" transform="translate(-121.43359375, 47.125)" class="label attribute-type"><g><rect style="stroke: none" class="background"/></g><text style="" y="-10.1"><tspan dy="1.1em" y="-0.1em" x="0" class="text-outer-tspan"><tspan font-weight="normal" class="text-inner-tspan" font-style="normal">string</tspan></tspan></text></g><g style="" transform="translate(-30.85546875, 47.125)" class="label attribute-name"><g><rect style="stroke: none" class="background"/></g><text style="" y="-10.1"><tspan dy="1.1em" y="-0.1em" x="0" class="text-outer-tspan"><tspan font-weight="normal" class="text-inner-tspan" font-style="normal">last_name</tspan></tspan></text></g><g style="" transform="translate(101.05859375, 47.125)" class="label attribute-keys"><g><rect style="stroke: none" class="background"/></g><text style="" y="-10.1"><tspan dy="1.1em" y="-0.1em" x="0" class="text-outer-tspan"/></text></g><g style="" transform="translate(146.43359375, 47.125)" class="label attribute-comment"><g><rect style="stroke: none" class="background"/></g><text style="" y="-10.1"><tspan dy="1.1em" y="-0.1em" x="0" class="text-outer-tspan"/></text></g><g style="" transform="translate(-121.43359375, 84.875)" class="label attribute-type"><g><rect style="stroke: none" class="background"/></g><text style="" y="-10.1"><tspan dy="1.1em" y="-0.1em" x="0" class="text-outer-tspan"><tspan font-weight="normal" class="text-inner-tspan" font-style="normal">datetime</tspan></tspan></text></g><g style="" transform="translate(-30.85546875, 84.875)" class="label attribute-name"><g><rect style="stroke: none" class="background"/></g><text style="" y="-10.1"><tspan dy="1.1em" y="-0.1em" x="0" class="text-outer-tspan"><tspan font-weight="normal" class="text-inner-tspan" font-style="normal">created_at</tspan></tspan></text></g><g style="" transform="translate(101.05859375, 84.875)" class="label attribute-keys"><g><rect style="stroke: none" class="background"/></g><text style="" y="-10.1"><tspan dy="1.1em" y="-0.1em" x="0" class="text-outer-tspan"/></text></g><g style="" transform="translate(146.43359375, 84.875)" class="label attribute-comment"><g><rect style="stroke: none" class="background"/></g><text style="" y="-10.1"><tspan dy="1.1em" y="-0.1em" x="0" class="text-outer-tspan"/></text></g><g style="" transform="translate(-121.43359375, 122.625)" class="label attribute-type"><g><rect style="stroke: none" class="background"/></g><text style="" y="-10.1"><tspan dy="1.1em" y="-0.1em" x="0" class="text-outer-tspan"><tspan font-weight="normal" class="text-inner-tspan" font-style="normal">datetime</tspan></tspan></text></g><g style="" transform="translate(-30.85546875, 122.625)" class="label attribute-name"><g><rect style="stroke: none" class="background"/></g><text style="" y="-10.1"><tspan dy="1.1em" y="-0.1em" x="0" class="text-outer-tspan"><tspan font-weight="normal" class="text-inner-tspan" font-style="normal">updated_at</tspan></tspan></text></g><g style="" transform="translate(101.05859375, 122.625)" class="label attribute-keys"><g><rect style="stroke: none" class="background"/></g><text style="" y="-10.1"><tspan dy="1.1em" y="-0.1em" x="0" class="text-outer-tspan"/></text></g><g style="" transform="translate(146.43359375, 122.625)" class="label attribute-comment"><g><rect style="stroke: none" class="background"/></g><text style="" y="-10.1"><tspan dy="1.1em" y="-0.1em" x="0" class="text-outer-tspan"/></text></g><g style="" transform="translate(-121.43359375, 160.375)" class="label attribute-type"><g><rect style="stroke: none" class="background"/></g><text style="" y="-10.1"><tspan dy="1.1em" y="-0.1em" x="0" class="text-outer-tspan"><tspan font-weight="normal" class="text-inner-tspan" font-style="normal">boolean</tspan></tspan></text></g><g style="" transform="translate(-30.85546875, 160.375)" class="label attribute-name"><g><rect style="stroke: none" class="background"/></g><text style="" y="-10.1"><tspan dy="1.1em" y="-0.1em" x="0" class="text-outer-tspan"><tspan font-weight="normal" class="text-inner-tspan" font-style="normal">is_active</tspan></tspan></text></g><g style="" transform="translate(101.05859375, 160.375)" class="label attribute-keys"><g><rect style="stroke: none" class="background"/></g><text style="" y="-10.1"><tspan dy="1.1em" y="-0.1em" x="0" class="text-outer-tspan"/></text></g><g style="" transform="translate(146.43359375, 160.375)" class="label attribute-comment"><g><rect style="stroke: none" class="background"/></g><text style="" y="-10.1"><tspan dy="1.1em" y="-0.1em" x="0" class="text-outer-tspan"/></text></g><g class="divider"><path fill="none" stroke-width="1.3" stroke="#9370DB" d="M-133.93359375 -151 C-65.30852157136522 -151, 3.316550607269562 -151, 133.93359375 -151 M-133.93359375 -151 C-30.309479166398788 -151, 73.31463541720242 -151, 133.93359375 -151"/></g><g class="divider"><path fill="none" stroke-width="1.3" stroke="#9370DB" d="M-43.35546875 -151 C-43.35546875 -40.62930213309794, -43.35546875 69.74139573380413, -43.35546875 188.75 M-43.35546875 -151 C-43.35546875 -78.755053180474, -43.35546875 -6.510106360947987, -43.35546875 188.75"/></g><g class="divider"><path fill="none" stroke-width="1.3" stroke="#9370DB" d="M88.55859375 -151 C88.55859375 -81.19485348432404, 88.55859375 -11.389706968648085, 88.55859375 188.75 M88.55859375 -151 C88.55859375 -19.424362952106634, 88.55859375 112.15127409578673, 88.55859375 188.75"/></g><g class="divider"><path fill="none" stroke-width="1.3" stroke="#9370DB" d="M-133.93359375 -151 C-39.770339944440394 -151, 54.39291386111921 -151, 133.93359375 -151 M-133.93359375 -151 C-77.03462040671363 -151, -20.13564706342727 -151, 133.93359375 -151"/></g></g><g transform="translate(714.595703125, 196.75)" id="entity-ROLE-1" class="node default"><g style=""><path fill="#ECECFF" stroke-width="0" stroke="none" d="M-120.58984375 -94.375 L120.58984375 -94.375 L120.58984375 94.375 L-120.58984375 94.375"/><path fill="none" stroke-width="1.3" stroke="#9370DB" d="M-120.58984375 -94.375 C-59.24566481297613 -94.375, 2.098514124047739 -94.375, 120.58984375 -94.375 M-120.58984375 -94.375 C-68.12821205262122 -94.375, -15.66658035524246 -94.375, 120.58984375 -94.375 M120.58984375 -94.375 C120.58984375 -26.597346839626567, 120.58984375 41.180306320746865, 120.58984375 94.375 M120.58984375 -94.375 C120.58984375 -47.40120336910805, 120.58984375 -0.4274067382161064, 120.58984375 94.375 M120.58984375 94.375 C30.415677884022088 94.375, -59.758487981955824 94.375, -120.58984375 94.375 M120.58984375 94.375 C64.7035046184984 94.375, 8.8171654869968 94.375, -120.58984375 94.375 M-120.58984375 94.375 C-120.58984375 42.56429773117613, -120.58984375 -9.246404537647734, -120.58984375 -94.375 M-120.58984375 94.375 C-120.58984375 46.60579952272396, -120.58984375 -1.163400954552074, -120.58984375 -94.375"/></g><g class="row-rect-odd" style=""><path fill="hsl(240, 100%, 100%)" stroke-width="0" stroke="none" d="M-120.58984375 -56.625 L120.58984375 -56.625 L120.58984375 -18.875 L-120.58984375 -18.875"/><path fill="none" stroke-width="1.3" stroke="#9370DB" d="M-120.58984375 -56.625 C-38.113137237449635 -56.625, 44.36356927510073 -56.625, 120.58984375 -56.625 M-120.58984375 -56.625 C-44.92227287532171 -56.625, 30.74529799935658 -56.625, 120.58984375 -56.625 M120.58984375 -56.625 C120.58984375 -42.561480404747286, 120.58984375 -28.49796080949457, 120.58984375 -18.875 M120.58984375 -56.625 C120.58984375 -43.620416317573635, 120.58984375 -30.61583263514727, 120.58984375 -18.875 M120.58984375 -18.875 C69.35904811733107 -18.875, 18.128252484662127 -18.875, -120.58984375 -18.875 M120.58984375 -18.875 C57.64504304599448 -18.875, -5.299757658011046 -18.875, -120.58984375 -18.875 M-120.58984375 -18.875 C-120.58984375 -29.587690321126892, -120.58984375 -40.300380642253785, -120.58984375 -56.625 M-120.58984375 -18.875 C-120.58984375 -27.66289960448731, -120.58984375 -36.45079920897462, -120.58984375 -56.625"/></g><g class="row-rect-even" style=""><path fill="hsl(240, 100%, 97.2745098039%)" stroke-width="0" stroke="none" d="M-120.58984375 -18.875 L120.58984375 -18.875 L120.58984375 18.875 L-120.58984375 18.875"/><path fill="none" stroke-width="1.3" stroke="#9370DB" d="M-120.58984375 -18.875 C-31.61670473062496 -18.875, 57.35643428875008 -18.875, 120.58984375 -18.875 M-120.58984375 -18.875 C-32.6451406598555 -18.875, 55.299562430289 -18.875, 120.58984375 -18.875 M120.58984375 -18.875 C120.58984375 -6.805977071115592, 120.58984375 5.263045857768816, 120.58984375 18.875 M120.58984375 -18.875 C120.58984375 -9.900659598051272, 120.58984375 -0.9263191961025434, 120.58984375 18.875 M120.58984375 18.875 C62.02938040832353 18.875, 3.468917066647066 18.875, -120.58984375 18.875 M120.58984375 18.875 C25.30190692809873 18.875, -69.98602989380254 18.875, -120.58984375 18.875 M-120.58984375 18.875 C-120.58984375 6.935374104763227, -120.58984375 -5.004251790473546, -120.58984375 -18.875 M-120.58984375 18.875 C-120.58984375 6.91220261882191, -120.58984375 -5.05059476235618, -120.58984375 -18.875"/></g><g class="row-rect-odd" style=""><path fill="hsl(240, 100%, 100%)" stroke-width="0" stroke="none" d="M-120.58984375 18.875 L120.58984375 18.875 L120.58984375 56.625 L-120.58984375 56.625"/><path fill="none" stroke-width="1.3" stroke="#9370DB" d="M-120.58984375 18.875 C-40.82749339459443 18.875, 38.934856960811146 18.875, 120.58984375 18.875 M-120.58984375 18.875 C-39.83178839155721 18.875, 40.92626696688558 18.875, 120.58984375 18.875 M120.58984375 18.875 C120.58984375 31.441607947211605, 120.58984375 44.00821589442321, 120.58984375 56.625 M120.58984375 18.875 C120.58984375 32.76747433028467, 120.58984375 46.659948660569334, 120.58984375 56.625 M120.58984375 56.625 C41.4581954729866 56.625, -37.673452804026795 56.625, -120.58984375 56.625 M120.58984375 56.625 C71.43023582544795 56.625, 22.270627900895903 56.625, -120.58984375 56.625 M-120.58984375 56.625 C-120.58984375 44.002916582509755, -120.58984375 31.380833165019517, -120.58984375 18.875 M-120.58984375 56.625 C-120.58984375 48.888389782048826, -120.58984375 41.151779564097644, -120.58984375 18.875"/></g><g class="row-rect-even" style=""><path fill="hsl(240, 100%, 97.2745098039%)" stroke-width="0" stroke="none" d="M-120.58984375 56.625 L120.58984375 56.625 L120.58984375 94.375 L-120.58984375 94.375"/><path fill="none" stroke-width="1.3" stroke="#9370DB" d="M-120.58984375 56.625 C-27.266978963732967 56.625, 66.05588582253407 56.625, 120.58984375 56.625 M-120.58984375 56.625 C-55.64175718483757 56.625, 9.306329380324854 56.625, 120.58984375 56.625 M120.58984375 56.625 C120.58984375 69.97175794444968, 120.58984375 83.31851588889936, 120.58984375 94.375 M120.58984375 56.625 C120.58984375 64.40325460600678, 120.58984375 72.18150921201357, 120.58984375 94.375 M120.58984375 94.375 C59.00527275337296 94.375, -2.5792982432540867 94.375, -120.58984375 94.375 M120.58984375 94.375 C70.57031979670856 94.375, 20.55079584341712 94.375, -120.58984375 94.375 M-120.58984375 94.375 C-120.58984375 85.58477125345709, -120.58984375 76.79454250691418, -120.58984375 56.625 M-120.58984375 94.375 C-120.58984375 85.43400924094806, -120.58984375 76.4930184818961, -120.58984375 56.625"/></g><g style="" transform="translate(-18.59765625, -85)" class="label name"><g><rect style="stroke: none" class="background"/></g><text style="" y="-10.1"><tspan dy="1.1em" y="-0.1em" x="0" class="text-outer-tspan"><tspan font-weight="normal" class="text-inner-tspan" font-style="normal">ROLE</tspan></tspan></text></g><g style="" transform="translate(-108.08984375, -47.25)" class="label attribute-type"><g><rect style="stroke: none" class="background"/></g><text style="" y="-10.1"><tspan dy="1.1em" y="-0.1em" x="0" class="text-outer-tspan"><tspan font-weight="normal" class="text-inner-tspan" font-style="normal">int</tspan></tspan></text></g><g style="" transform="translate(-17.51171875, -47.25)" class="label attribute-name"><g><rect style="stroke: none" class="background"/></g><text style="" y="-10.1"><tspan dy="1.1em" y="-0.1em" x="0" class="text-outer-tspan"><tspan font-weight="normal" class="text-inner-tspan" font-style="normal">role_id</tspan></tspan></text></g><g style="" transform="translate(87.71484375, -47.25)" class="label attribute-keys"><g><rect style="stroke: none" class="background"/></g><text style="" y="-10.1"><tspan dy="1.1em" y="-0.1em" x="0" class="text-outer-tspan"><tspan font-weight="normal" class="text-inner-tspan" font-style="normal">PK</tspan></tspan></text></g><g style="" transform="translate(133.08984375, -47.25)" class="label attribute-comment"><g><rect style="stroke: none" class="background"/></g><text style="" y="-10.1"><tspan dy="1.1em" y="-0.1em" x="0" class="text-outer-tspan"/></text></g><g style="" transform="translate(-108.08984375, -9.5)" class="label attribute-type"><g><rect style="stroke: none" class="background"/></g><text style="" y="-10.1"><tspan dy="1.1em" y="-0.1em" x="0" class="text-outer-tspan"><tspan font-weight="normal" class="text-inner-tspan" font-style="normal">string</tspan></tspan></text></g><g style="" transform="translate(-17.51171875, -9.5)" class="label attribute-name"><g><rect style="stroke: none" class="background"/></g><text style="" y="-10.1"><tspan dy="1.1em" y="-0.1em" x="0" class="text-outer-tspan"><tspan font-weight="normal" class="text-inner-tspan" font-style="normal">role_name</tspan></tspan></text></g><g style="" transform="translate(87.71484375, -9.5)" class="label attribute-keys"><g><rect style="stroke: none" class="background"/></g><text style="" y="-10.1"><tspan dy="1.1em" y="-0.1em" x="0" class="text-outer-tspan"><tspan font-weight="normal" class="text-inner-tspan" font-style="normal">UK</tspan></tspan></text></g><g style="" transform="translate(133.08984375, -9.5)" class="label attribute-comment"><g><rect style="stroke: none" class="background"/></g><text style="" y="-10.1"><tspan dy="1.1em" y="-0.1em" x="0" class="text-outer-tspan"/></text></g><g style="" transform="translate(-108.08984375, 28.25)" class="label attribute-type"><g><rect style="stroke: none" class="background"/></g><text style="" y="-10.1"><tspan dy="1.1em" y="-0.1em" x="0" class="text-outer-tspan"><tspan font-weight="normal" class="text-inner-tspan" font-style="normal">string</tspan></tspan></text></g><g style="" transform="translate(-17.51171875, 28.25)" class="label attribute-name"><g><rect style="stroke: none" class="background"/></g><text style="" y="-10.1"><tspan dy="1.1em" y="-0.1em" x="0" class="text-outer-tspan"><tspan font-weight="normal" class="text-inner-tspan" font-style="normal">description</tspan></tspan></text></g><g style="" transform="translate(87.71484375, 28.25)" class="label attribute-keys"><g><rect style="stroke: none" class="background"/></g><text style="" y="-10.1"><tspan dy="1.1em" y="-0.1em" x="0" class="text-outer-tspan"/></text></g><g style="" transform="translate(133.08984375, 28.25)" class="label attribute-comment"><g><rect style="stroke: none" class="background"/></g><text style="" y="-10.1"><tspan dy="1.1em" y="-0.1em" x="0" class="text-outer-tspan"/></text></g><g style="" transform="translate(-108.08984375, 66)" class="label attribute-type"><g><rect style="stroke: none" class="background"/></g><text style="" y="-10.1"><tspan dy="1.1em" y="-0.1em" x="0" class="text-outer-tspan"><tspan font-weight="normal" class="text-inner-tspan" font-style="normal">datetime</tspan></tspan></text></g><g style="" transform="translate(-17.51171875, 66)" class="label attribute-name"><g><rect style="stroke: none" class="background"/></g><text style="" y="-10.1"><tspan dy="1.1em" y="-0.1em" x="0" class="text-outer-tspan"><tspan font-weight="normal" class="text-inner-tspan" font-style="normal">created_at</tspan></tspan></text></g><g style="" transform="translate(87.71484375, 66)" class="label attribute-keys"><g><rect style="stroke: none" class="background"/></g><text style="" y="-10.1"><tspan dy="1.1em" y="-0.1em" x="0" class="text-outer-tspan"/></text></g><g style="" transform="translate(133.08984375, 66)" class="label attribute-comment"><g><rect style="stroke: none" class="background"/></g><text style="" y="-10.1"><tspan dy="1.1em" y="-0.1em" x="0" class="text-outer-tspan"/></text></g><g class="divider"><path fill="none" stroke-width="1.3" stroke="#9370DB" d="M-120.58984375 -56.625 C-71.22691730599729 -56.625, -21.86399086199458 -56.625, 120.58984375 -56.625 M-120.58984375 -56.625 C-59.700428118354445 -56.625, 1.18898751329111 -56.625, 120.58984375 -56.625"/></g><g class="divider"><path fill="none" stroke-width="1.3" stroke="#9370DB" d="M-30.01171875 -56.625 C-30.01171875 -21.366090686704403, -30.01171875 13.892818626591193, -30.01171875 94.375 M-30.01171875 -56.625 C-30.01171875 3.680550929022516, -30.01171875 63.98610185804503, -30.01171875 94.375"/></g><g class="divider"><path fill="none" stroke-width="1.3" stroke="#9370DB" d="M75.21484375 -56.625 C75.21484375 -19.294380960958435, 75.21484375 18.03623807808313, 75.21484375 94.375 M75.21484375 -56.625 C75.21484375 -22.700781219234045, 75.21484375 11.22343756153191, 75.21484375 94.375"/></g><g class="divider"><path fill="none" stroke-width="1.3" stroke="#9370DB" d="M-120.58984375 -56.625 C-28.137576650129148 -56.625, 64.3146904497417 -56.625, 120.58984375 -56.625 M-120.58984375 -56.625 C-65.98310719965701 -56.625, -11.37637064931404 -56.625, 120.58984375 -56.625"/></g></g><g transform="translate(1188.19921875, 196.75)" id="entity-PERMISSION-2" class="node default"><g style=""><path fill="#ECECFF" stroke-width="0" stroke="none" d="M-130.05859375 -113.25 L130.05859375 -113.25 L130.05859375 113.25 L-130.05859375 113.25"/><path fill="none" stroke-width="1.3" stroke="#9370DB" d="M-130.05859375 -113.25 C-46.41486686909683 -113.25, 37.22886001180635 -113.25, 130.05859375 -113.25 M-130.05859375 -113.25 C-50.722774282454296 -113.25, 28.61304518509141 -113.25, 130.05859375 -113.25 M130.05859375 -113.25 C130.05859375 -24.44373742268216, 130.05859375 64.36252515463568, 130.05859375 113.25 M130.05859375 -113.25 C130.05859375 -23.397401416044033, 130.05859375 66.45519716791193, 130.05859375 113.25 M130.05859375 113.25 C52.54872598971146 113.25, -24.961141770577086 113.25, -130.05859375 113.25 M130.05859375 113.25 C46.26386337518018 113.25, -37.53086699963964 113.25, -130.05859375 113.25 M-130.05859375 113.25 C-130.05859375 45.74093090446742, -130.05859375 -21.768138191065162, -130.05859375 -113.25 M-130.05859375 113.25 C-130.05859375 67.83719753863507, -130.05859375 22.424395077270134, -130.05859375 -113.25"/></g><g class="row-rect-odd" style=""><path fill="hsl(240, 100%, 100%)" stroke-width="0" stroke="none" d="M-130.05859375 -75.5 L130.05859375 -75.5 L130.05859375 -37.75 L-130.05859375 -37.75"/><path fill="none" stroke-width="1.3" stroke="#9370DB" d="M-130.05859375 -75.5 C-53.25314409201434 -75.5, 23.552305565971324 -75.5, 130.05859375 -75.5 M-130.05859375 -75.5 C-50.70189353775068 -75.5, 28.654806674498644 -75.5, 130.05859375 -75.5 M130.05859375 -75.5 C130.05859375 -62.35255865488317, 130.05859375 -49.20511730976634, 130.05859375 -37.75 M130.05859375 -75.5 C130.05859375 -61.17088165850942, 130.05859375 -46.841763317018845, 130.05859375 -37.75 M130.05859375 -37.75 C59.70927118674025 -37.75, -10.640051376519494 -37.75, -130.05859375 -37.75 M130.05859375 -37.75 C75.55529592090679 -37.75, 21.051998091813587 -37.75, -130.05859375 -37.75 M-130.05859375 -37.75 C-130.05859375 -47.93988330002459, -130.05859375 -58.12976660004918, -130.05859375 -75.5 M-130.05859375 -37.75 C-130.05859375 -49.88181795969906, -130.05859375 -62.01363591939813, -130.05859375 -75.5"/></g><g class="row-rect-even" style=""><path fill="hsl(240, 100%, 97.2745098039%)" stroke-width="0" stroke="none" d="M-130.05859375 -37.75 L130.05859375 -37.75 L130.05859375 0 L-130.05859375 0"/><path fill="none" stroke-width="1.3" stroke="#9370DB" d="M-130.05859375 -37.75 C-74.25843307371181 -37.75, -18.458272397423627 -37.75, 130.05859375 -37.75 M-130.05859375 -37.75 C-68.90121173549811 -37.75, -7.743829720996217 -37.75, 130.05859375 -37.75 M130.05859375 -37.75 C130.05859375 -29.607453518591463, 130.05859375 -21.464907037182925, 130.05859375 0 M130.05859375 -37.75 C130.05859375 -26.749858131564608, 130.05859375 -15.749716263129216, 130.05859375 0 M130.05859375 0 C28.225191864818726 0, -73.60821002036255 0, -130.05859375 0 M130.05859375 0 C51.16088279638002 0, -27.736828157239955 0, -130.05859375 0 M-130.05859375 0 C-130.05859375 -11.624108080314157, -130.05859375 -23.248216160628314, -130.05859375 -37.75 M-130.05859375 0 C-130.05859375 -13.267226728070018, -130.05859375 -26.534453456140035, -130.05859375 -37.75"/></g><g class="row-rect-odd" style=""><path fill="hsl(240, 100%, 100%)" stroke-width="0" stroke="none" d="M-130.05859375 0 L130.05859375 0 L130.05859375 37.75 L-130.05859375 37.75"/><path fill="none" stroke-width="1.3" stroke="#9370DB" d="M-130.05859375 0 C-60.901753233776574 0, 8.255087282446851 0, 130.05859375 0 M-130.05859375 0 C-52.49356919045093 0, 25.071455369098146 0, 130.05859375 0 M130.05859375 0 C130.05859375 10.909655709584442, 130.05859375 21.819311419168884, 130.05859375 37.75 M130.05859375 0 C130.05859375 14.840274363405957, 130.05859375 29.680548726811914, 130.05859375 37.75 M130.05859375 37.75 C69.75054341944221 37.75, 9.442493088884405 37.75, -130.05859375 37.75 M130.05859375 37.75 C48.14363587463146 37.75, -33.77132200073709 37.75, -130.05859375 37.75 M-130.05859375 37.75 C-130.05859375 25.765517193047117, -130.05859375 13.781034386094237, -130.05859375 0 M-130.05859375 37.75 C-130.05859375 24.714195043545537, -130.05859375 11.678390087091074, -130.05859375 0"/></g><g class="row-rect-even" style=""><path fill="hsl(240, 100%, 97.2745098039%)" stroke-width="0" stroke="none" d="M-130.05859375 37.75 L130.05859375 37.75 L130.05859375 75.5 L-130.05859375 75.5"/><path fill="none" stroke-width="1.3" stroke="#9370DB" d="M-130.05859375 37.75 C-36.167322658502755 37.75, 57.72394843299449 37.75, 130.05859375 37.75 M-130.05859375 37.75 C-33.30225898129635 37.75, 63.454075787407305 37.75, 130.05859375 37.75 M130.05859375 37.75 C130.05859375 46.25762607626602, 130.05859375 54.76525215253204, 130.05859375 75.5 M130.05859375 37.75 C130.05859375 49.61302632754379, 130.05859375 61.476052655087585, 130.05859375 75.5 M130.05859375 75.5 C36.706925031160566 75.5, -56.64474368767887 75.5, -130.05859375 75.5 M130.05859375 75.5 C63.26348354167472 75.5, -3.531626666650567 75.5, -130.05859375 75.5 M-130.05859375 75.5 C-130.05859375 63.5179795586221, -130.05859375 51.5359591172442, -130.05859375 37.75 M-130.05859375 75.5 C-130.05859375 67.09959248841727, -130.05859375 58.69918497683453, -130.05859375 37.75"/></g><g class="row-rect-odd" style=""><path fill="hsl(240, 100%, 100%)" stroke-width="0" stroke="none" d="M-130.05859375 75.5 L130.05859375 75.5 L130.05859375 113.25 L-130.05859375 113.25"/><path fill="none" stroke-width="1.3" stroke="#9370DB" d="M-130.05859375 75.5 C-64.1622761779452 75.5, 1.734041394109596 75.5, 130.05859375 75.5 M-130.05859375 75.5 C-43.16465211741482 75.5, 43.729289515170365 75.5, 130.05859375 75.5 M130.05859375 75.5 C130.05859375 87.89298813276069, 130.05859375 100.28597626552138, 130.05859375 113.25 M130.05859375 75.5 C130.05859375 89.33181279976344, 130.05859375 103.16362559952688, 130.05859375 113.25 M130.05859375 113.25 C52.87727674895926 113.25, -24.304040252081478 113.25, -130.05859375 113.25 M130.05859375 113.25 C67.60874569432352 113.25, 5.158897638647048 113.25, -130.05859375 113.25 M-130.05859375 113.25 C-130.05859375 100.925378985534, -130.05859375 88.60075797106798, -130.05859375 75.5 M-130.05859375 113.25 C-130.05859375 103.10119436071767, -130.05859375 92.95238872143534, -130.05859375 75.5"/></g><g style="" transform="translate(-41.7265625, -103.875)" class="label name"><g><rect style="stroke: none" class="background"/></g><text style="" y="-10.1"><tspan dy="1.1em" y="-0.1em" x="0" class="text-outer-tspan"><tspan font-weight="normal" class="text-inner-tspan" font-style="normal">PERMISSION</tspan></tspan></text></g><g style="" transform="translate(-117.55859375, -66.125)" class="label attribute-type"><g><rect style="stroke: none" class="background"/></g><text style="" y="-10.1"><tspan dy="1.1em" y="-0.1em" x="0" class="text-outer-tspan"><tspan font-weight="normal" class="text-inner-tspan" font-style="normal">int</tspan></tspan></text></g><g style="" transform="translate(-52.18359375, -66.125)" class="label attribute-name"><g><rect style="stroke: none" class="background"/></g><text style="" y="-10.1"><tspan dy="1.1em" y="-0.1em" x="0" class="text-outer-tspan"><tspan font-weight="normal" class="text-inner-tspan" font-style="normal">permission_id</tspan></tspan></text></g><g style="" transform="translate(97.18359375, -66.125)" class="label attribute-keys"><g><rect style="stroke: none" class="background"/></g><text style="" y="-10.1"><tspan dy="1.1em" y="-0.1em" x="0" class="text-outer-tspan"><tspan font-weight="normal" class="text-inner-tspan" font-style="normal">PK</tspan></tspan></text></g><g style="" transform="translate(142.55859375, -66.125)" class="label attribute-comment"><g><rect style="stroke: none" class="background"/></g><text style="" y="-10.1"><tspan dy="1.1em" y="-0.1em" x="0" class="text-outer-tspan"/></text></g><g style="" transform="translate(-117.55859375, -28.375)" class="label attribute-type"><g><rect style="stroke: none" class="background"/></g><text style="" y="-10.1"><tspan dy="1.1em" y="-0.1em" x="0" class="text-outer-tspan"><tspan font-weight="normal" class="text-inner-tspan" font-style="normal">string</tspan></tspan></text></g><g style="" transform="translate(-52.18359375, -28.375)" class="label attribute-name"><g><rect style="stroke: none" class="background"/></g><text style="" y="-10.1"><tspan dy="1.1em" y="-0.1em" x="0" class="text-outer-tspan"><tspan font-weight="normal" class="text-inner-tspan" font-style="normal">permission_name</tspan></tspan></text></g><g style="" transform="translate(97.18359375, -28.375)" class="label attribute-keys"><g><rect style="stroke: none" class="background"/></g><text style="" y="-10.1"><tspan dy="1.1em" y="-0.1em" x="0" class="text-outer-tspan"><tspan font-weight="normal" class="text-inner-tspan" font-style="normal">UK</tspan></tspan></text></g><g style="" transform="translate(142.55859375, -28.375)" class="label attribute-comment"><g><rect style="stroke: none" class="background"/></g><text style="" y="-10.1"><tspan dy="1.1em" y="-0.1em" x="0" class="text-outer-tspan"/></text></g><g style="" transform="translate(-117.55859375, 9.375)" class="label attribute-type"><g><rect style="stroke: none" class="background"/></g><text style="" y="-10.1"><tspan dy="1.1em" y="-0.1em" x="0" class="text-outer-tspan"><tspan font-weight="normal" class="text-inner-tspan" font-style="normal">string</tspan></tspan></text></g><g style="" transform="translate(-52.18359375, 9.375)" class="label attribute-name"><g><rect style="stroke: none" class="background"/></g><text style="" y="-10.1"><tspan dy="1.1em" y="-0.1em" x="0" class="text-outer-tspan"><tspan font-weight="normal" class="text-inner-tspan" font-style="normal">description</tspan></tspan></text></g><g style="" transform="translate(97.18359375, 9.375)" class="label attribute-keys"><g><rect style="stroke: none" class="background"/></g><text style="" y="-10.1"><tspan dy="1.1em" y="-0.1em" x="0" class="text-outer-tspan"/></text></g><g style="" transform="translate(142.55859375, 9.375)" class="label attribute-comment"><g><rect style="stroke: none" class="background"/></g><text style="" y="-10.1"><tspan dy="1.1em" y="-0.1em" x="0" class="text-outer-tspan"/></text></g><g style="" transform="translate(-117.55859375, 47.125)" class="label attribute-type"><g><rect style="stroke: none" class="background"/></g><text style="" y="-10.1"><tspan dy="1.1em" y="-0.1em" x="0" class="text-outer-tspan"><tspan font-weight="normal" class="text-inner-tspan" font-style="normal">string</tspan></tspan></text></g><g style="" transform="translate(-52.18359375, 47.125)" class="label attribute-name"><g><rect style="stroke: none" class="background"/></g><text style="" y="-10.1"><tspan dy="1.1em" y="-0.1em" x="0" class="text-outer-tspan"><tspan font-weight="normal" class="text-inner-tspan" font-style="normal">resource</tspan></tspan></text></g><g style="" transform="translate(97.18359375, 47.125)" class="label attribute-keys"><g><rect style="stroke: none" class="background"/></g><text style="" y="-10.1"><tspan dy="1.1em" y="-0.1em" x="0" class="text-outer-tspan"/></text></g><g style="" transform="translate(142.55859375, 47.125)" class="label attribute-comment"><g><rect style="stroke: none" class="background"/></g><text style="" y="-10.1"><tspan dy="1.1em" y="-0.1em" x="0" class="text-outer-tspan"/></text></g><g style="" transform="translate(-117.55859375, 84.875)" class="label attribute-type"><g><rect style="stroke: none" class="background"/></g><text style="" y="-10.1"><tspan dy="1.1em" y="-0.1em" x="0" class="text-outer-tspan"><tspan font-weight="normal" class="text-inner-tspan" font-style="normal">string</tspan></tspan></text></g><g style="" transform="translate(-52.18359375, 84.875)" class="label attribute-name"><g><rect style="stroke: none" class="background"/></g><text style="" y="-10.1"><tspan dy="1.1em" y="-0.1em" x="0" class="text-outer-tspan"><tspan font-weight="normal" class="text-inner-tspan" font-style="normal">action</tspan></tspan></text></g><g style="" transform="translate(97.18359375, 84.875)" class="label attribute-keys"><g><rect style="stroke: none" class="background"/></g><text style="" y="-10.1"><tspan dy="1.1em" y="-0.1em" x="0" class="text-outer-tspan"/></text></g><g style="" transform="translate(142.55859375, 84.875)" class="label attribute-comment"><g><rect style="stroke: none" class="background"/></g><text style="" y="-10.1"><tspan dy="1.1em" y="-0.1em" x="0" class="text-outer-tspan"/></text></g><g class="divider"><path fill="none" stroke-width="1.3" stroke="#9370DB" d="M-130.05859375 -75.5 C-30.1109697614435 -75.5, 69.836654227113 -75.5, 130.05859375 -75.5 M-130.05859375 -75.5 C-28.727387248877548 -75.5, 72.6038192522449 -75.5, 130.05859375 -75.5"/></g><g class="divider"><path fill="none" stroke-width="1.3" stroke="#9370DB" d="M-64.68359375 -75.5 C-64.68359375 -4.774012001172423, -64.68359375 65.95197599765515, -64.68359375 113.25 M-64.68359375 -75.5 C-64.68359375 -20.18354995449579, -64.68359375 35.13290009100842, -64.68359375 113.25"/></g><g class="divider"><path fill="none" stroke-width="1.3" stroke="#9370DB" d="M84.68359375 -75.5 C84.68359375 -34.528005790858124, 84.68359375 6.443988418283752, 84.68359375 113.25 M84.68359375 -75.5 C84.68359375 -12.81494744562169, 84.68359375 49.87010510875662, 84.68359375 113.25"/></g><g class="divider"><path fill="none" stroke-width="1.3" stroke="#9370DB" d="M-130.05859375 -75.5 C-73.7665313355738 -75.5, -17.47446892114759 -75.5, 130.05859375 -75.5 M-130.05859375 -75.5 C-75.79115963907462 -75.5, -21.523725528149242 -75.5, 130.05859375 -75.5"/></g></g><g transform="translate(129.5546875, 620.625)" id="entity-USER_ROLE-3" class="node default"><g style=""><path fill="#ECECFF" stroke-width="0" stroke="none" d="M-121.5546875 -94.375 L121.5546875 -94.375 L121.5546875 94.375 L-121.5546875 94.375"/><path fill="none" stroke-width="1.3" stroke="#9370DB" d="M-121.5546875 -94.375 C-27.156204323877034 -94.375, 67.24227885224593 -94.375, 121.5546875 -94.375 M-121.5546875 -94.375 C-39.17581702954914 -94.375, 43.203053440901726 -94.375, 121.5546875 -94.375 M121.5546875 -94.375 C121.5546875 -20.578158604827266, 121.5546875 53.21868279034547, 121.5546875 94.375 M121.5546875 -94.375 C121.5546875 -47.371253171378505, 121.5546875 -0.3675063427570109, 121.5546875 94.375 M121.5546875 94.375 C42.003591427503096 94.375, -37.54750464499381 94.375, -121.5546875 94.375 M121.5546875 94.375 C52.091644330290265 94.375, -17.37139883941947 94.375, -121.5546875 94.375 M-121.5546875 94.375 C-121.5546875 45.234459261791585, -121.5546875 -3.90608147641683, -121.5546875 -94.375 M-121.5546875 94.375 C-121.5546875 33.600098986518546, -121.5546875 -27.174802026962908, -121.5546875 -94.375"/></g><g class="row-rect-odd" style=""><path fill="hsl(240, 100%, 100%)" stroke-width="0" stroke="none" d="M-121.5546875 -56.625 L121.5546875 -56.625 L121.5546875 -18.875 L-121.5546875 -18.875"/><path fill="none" stroke-width="1.3" stroke="#9370DB" d="M-121.5546875 -56.625 C-35.0762673617849 -56.625, 51.4021527764302 -56.625, 121.5546875 -56.625 M-121.5546875 -56.625 C-49.03779335021821 -56.625, 23.479100799563582 -56.625, 121.5546875 -56.625 M121.5546875 -56.625 C121.5546875 -45.735525840585176, 121.5546875 -34.84605168117035, 121.5546875 -18.875 M121.5546875 -56.625 C121.5546875 -44.703969941225736, 121.5546875 -32.78293988245147, 121.5546875 -18.875 M121.5546875 -18.875 C33.83519995238278 -18.875, -53.88428759523444 -18.875, -121.5546875 -18.875 M121.5546875 -18.875 C42.34533709804819 -18.875, -36.86401330390362 -18.875, -121.5546875 -18.875 M-121.5546875 -18.875 C-121.5546875 -30.812644098182556, -121.5546875 -42.75028819636511, -121.5546875 -56.625 M-121.5546875 -18.875 C-121.5546875 -31.019421254703488, -121.5546875 -43.163842509406976, -121.5546875 -56.625"/></g><g class="row-rect-even" style=""><path fill="hsl(240, 100%, 97.2745098039%)" stroke-width="0" stroke="none" d="M-121.5546875 -18.875 L121.5546875 -18.875 L121.5546875 18.875 L-121.5546875 18.875"/><path fill="none" stroke-width="1.3" stroke="#9370DB" d="M-121.5546875 -18.875 C-32.11888462211468 -18.875, 57.316918255770645 -18.875, 121.5546875 -18.875 M-121.5546875 -18.875 C-59.45570542089613 -18.875, 2.643276658207739 -18.875, 121.5546875 -18.875 M121.5546875 -18.875 C121.5546875 -9.66564504486767, 121.5546875 -0.45629008973534013, 121.5546875 18.875 M121.5546875 -18.875 C121.5546875 -6.691886844007252, 121.5546875 5.491226311985496, 121.5546875 18.875 M121.5546875 18.875 C54.46250265463708 18.875, -12.629682190725845 18.875, -121.5546875 18.875 M121.5546875 18.875 C59.53289420752773 18.875, -2.488899084944535 18.875, -121.5546875 18.875 M-121.5546875 18.875 C-121.5546875 4.218263238284377, -121.5546875 -10.438473523431245, -121.5546875 -18.875 M-121.5546875 18.875 C-121.5546875 4.894877947732592, -121.5546875 -9.085244104534816, -121.5546875 -18.875"/></g><g class="row-rect-odd" style=""><path fill="hsl(240, 100%, 100%)" stroke-width="0" stroke="none" d="M-121.5546875 18.875 L121.5546875 18.875 L121.5546875 56.625 L-121.5546875 56.625"/><path fill="none" stroke-width="1.3" stroke="#9370DB" d="M-121.5546875 18.875 C-54.2620198894695 18.875, 13.030647721061001 18.875, 121.5546875 18.875 M-121.5546875 18.875 C-35.11596708465785 18.875, 51.32275333068429 18.875, 121.5546875 18.875 M121.5546875 18.875 C121.5546875 31.806972350662022, 121.5546875 44.738944701324044, 121.5546875 56.625 M121.5546875 18.875 C121.5546875 31.627913683907042, 121.5546875 44.380827367814085, 121.5546875 56.625 M121.5546875 56.625 C70.26004505906292 56.625, 18.96540261812582 56.625, -121.5546875 56.625 M121.5546875 56.625 C39.01307775981692 56.625, -43.528531980366154 56.625, -121.5546875 56.625 M-121.5546875 56.625 C-121.5546875 45.40410105238329, -121.5546875 34.18320210476658, -121.5546875 18.875 M-121.5546875 56.625 C-121.5546875 48.40438864853019, -121.5546875 40.18377729706038, -121.5546875 18.875"/></g><g class="row-rect-even" style=""><path fill="hsl(240, 100%, 97.2745098039%)" stroke-width="0" stroke="none" d="M-121.5546875 56.625 L121.5546875 56.625 L121.5546875 94.375 L-121.5546875 94.375"/><path fill="none" stroke-width="1.3" stroke="#9370DB" d="M-121.5546875 56.625 C-32.48832604395987 56.625, 56.578035412080254 56.625, 121.5546875 56.625 M-121.5546875 56.625 C-30.31548968521689 56.625, 60.92370812956622 56.625, 121.5546875 56.625 M121.5546875 56.625 C121.5546875 66.3167309971544, 121.5546875 76.00846199430879, 121.5546875 94.375 M121.5546875 56.625 C121.5546875 69.71468386274691, 121.5546875 82.80436772549382, 121.5546875 94.375 M121.5546875 94.375 C63.32149849013971 94.375, 5.08830948027942 94.375, -121.5546875 94.375 M121.5546875 94.375 C33.38653854481959 94.375, -54.78161041036083 94.375, -121.5546875 94.375 M-121.5546875 94.375 C-121.5546875 80.93345543280601, -121.5546875 67.49191086561204, -121.5546875 56.625 M-121.5546875 94.375 C-121.5546875 83.7080528522534, -121.5546875 73.0411057045068, -121.5546875 56.625"/></g><g style="" transform="translate(-40.76953125, -85)" class="label name"><g><rect style="stroke: none" class="background"/></g><text style="" y="-10.1"><tspan dy="1.1em" y="-0.1em" x="0" class="text-outer-tspan"><tspan font-weight="normal" class="text-inner-tspan" font-style="normal">USER_ROLE</tspan></tspan></text></g><g style="" transform="translate(-109.0546875, -47.25)" class="label attribute-type"><g><rect style="stroke: none" class="background"/></g><text style="" y="-10.1"><tspan dy="1.1em" y="-0.1em" x="0" class="text-outer-tspan"><tspan font-weight="normal" class="text-inner-tspan" font-style="normal">int</tspan></tspan></text></g><g style="" transform="translate(-18.4765625, -47.25)" class="label attribute-name"><g><rect style="stroke: none" class="background"/></g><text style="" y="-10.1"><tspan dy="1.1em" y="-0.1em" x="0" class="text-outer-tspan"><tspan font-weight="normal" class="text-inner-tspan" font-style="normal">user_id</tspan></tspan></text></g><g style="" transform="translate(90.65625, -47.25)" class="label attribute-keys"><g><rect style="stroke: none" class="background"/></g><text style="" y="-10.1"><tspan dy="1.1em" y="-0.1em" x="0" class="text-outer-tspan"><tspan font-weight="normal" class="text-inner-tspan" font-style="normal">FK</tspan></tspan></text></g><g style="" transform="translate(134.0546875, -47.25)" class="label attribute-comment"><g><rect style="stroke: none" class="background"/></g><text style="" y="-10.1"><tspan dy="1.1em" y="-0.1em" x="0" class="text-outer-tspan"/></text></g><g style="" transform="translate(-109.0546875, -9.5)" class="label attribute-type"><g><rect style="stroke: none" class="background"/></g><text style="" y="-10.1"><tspan dy="1.1em" y="-0.1em" x="0" class="text-outer-tspan"><tspan font-weight="normal" class="text-inner-tspan" font-style="normal">int</tspan></tspan></text></g><g style="" transform="translate(-18.4765625, -9.5)" class="label attribute-name"><g><rect style="stroke: none" class="background"/></g><text style="" y="-10.1"><tspan dy="1.1em" y="-0.1em" x="0" class="text-outer-tspan"><tspan font-weight="normal" class="text-inner-tspan" font-style="normal">role_id</tspan></tspan></text></g><g style="" transform="translate(90.65625, -9.5)" class="label attribute-keys"><g><rect style="stroke: none" class="background"/></g><text style="" y="-10.1"><tspan dy="1.1em" y="-0.1em" x="0" class="text-outer-tspan"><tspan font-weight="normal" class="text-inner-tspan" font-style="normal">FK</tspan></tspan></text></g><g style="" transform="translate(134.0546875, -9.5)" class="label attribute-comment"><g><rect style="stroke: none" class="background"/></g><text style="" y="-10.1"><tspan dy="1.1em" y="-0.1em" x="0" class="text-outer-tspan"/></text></g><g style="" transform="translate(-109.0546875, 28.25)" class="label attribute-type"><g><rect style="stroke: none" class="background"/></g><text style="" y="-10.1"><tspan dy="1.1em" y="-0.1em" x="0" class="text-outer-tspan"><tspan font-weight="normal" class="text-inner-tspan" font-style="normal">datetime</tspan></tspan></text></g><g style="" transform="translate(-18.4765625, 28.25)" class="label attribute-name"><g><rect style="stroke: none" class="background"/></g><text style="" y="-10.1"><tspan dy="1.1em" y="-0.1em" x="0" class="text-outer-tspan"><tspan font-weight="normal" class="text-inner-tspan" font-style="normal">assigned_at</tspan></tspan></text></g><g style="" transform="translate(90.65625, 28.25)" class="label attribute-keys"><g><rect style="stroke: none" class="background"/></g><text style="" y="-10.1"><tspan dy="1.1em" y="-0.1em" x="0" class="text-outer-tspan"/></text></g><g style="" transform="translate(134.0546875, 28.25)" class="label attribute-comment"><g><rect style="stroke: none" class="background"/></g><text style="" y="-10.1"><tspan dy="1.1em" y="-0.1em" x="0" class="text-outer-tspan"/></text></g><g style="" transform="translate(-109.0546875, 66)" class="label attribute-type"><g><rect style="stroke: none" class="background"/></g><text style="" y="-10.1"><tspan dy="1.1em" y="-0.1em" x="0" class="text-outer-tspan"><tspan font-weight="normal" class="text-inner-tspan" font-style="normal">datetime</tspan></tspan></text></g><g style="" transform="translate(-18.4765625, 66)" class="label attribute-name"><g><rect style="stroke: none" class="background"/></g><text style="" y="-10.1"><tspan dy="1.1em" y="-0.1em" x="0" class="text-outer-tspan"><tspan font-weight="normal" class="text-inner-tspan" font-style="normal">expires_at</tspan></tspan></text></g><g style="" transform="translate(90.65625, 66)" class="label attribute-keys"><g><rect style="stroke: none" class="background"/></g><text style="" y="-10.1"><tspan dy="1.1em" y="-0.1em" x="0" class="text-outer-tspan"/></text></g><g style="" transform="translate(134.0546875, 66)" class="label attribute-comment"><g><rect style="stroke: none" class="background"/></g><text style="" y="-10.1"><tspan dy="1.1em" y="-0.1em" x="0" class="text-outer-tspan"/></text></g><g class="divider"><path fill="none" stroke-width="1.3" stroke="#9370DB" d="M-121.5546875 -56.625 C-68.26805009445069 -56.625, -14.981412688901372 -56.625, 121.5546875 -56.625 M-121.5546875 -56.625 C-41.463414336452985 -56.625, 38.62785882709403 -56.625, 121.5546875 -56.625"/></g><g class="divider"><path fill="none" stroke-width="1.3" stroke="#9370DB" d="M-30.9765625 -56.625 C-30.9765625 -8.299897851379264, -30.9765625 40.02520429724147, -30.9765625 94.375 M-30.9765625 -56.625 C-30.9765625 -6.672642458169747, -30.9765625 43.279715083660506, -30.9765625 94.375"/></g><g class="divider"><path fill="none" stroke-width="1.3" stroke="#9370DB" d="M78.15625 -56.625 C78.15625 -25.913538539774375, 78.15625 4.797922920451249, 78.15625 94.375 M78.15625 -56.625 C78.15625 -2.1774715063382146, 78.15625 52.27005698732357, 78.15625 94.375"/></g><g class="divider"><path fill="none" stroke-width="1.3" stroke="#9370DB" d="M-121.5546875 -56.625 C-69.56326155100743 -56.625, -17.571835602014872 -56.625, 121.5546875 -56.625 M-121.5546875 -56.625 C-42.27119211408228 -56.625, 37.012303271835435 -56.625, 121.5546875 -56.625"/></g></g><g transform="translate(1150.3828125, 620.625)" id="entity-ROLE_PERMISSION-4" class="node default"><g style=""><path fill="#ECECFF" stroke-width="0" stroke="none" d="M-128.73828125 -75.5 L128.73828125 -75.5 L128.73828125 75.5 L-128.73828125 75.5"/><path fill="none" stroke-width="1.3" stroke="#9370DB" d="M-128.73828125 -75.5 C-34.89380199430104 -75.5, 58.950677261397914 -75.5, 128.73828125 -75.5 M-128.73828125 -75.5 C-31.422993802351385 -75.5, 65.89229364529723 -75.5, 128.73828125 -75.5 M128.73828125 -75.5 C128.73828125 -27.63700330849496, 128.73828125 20.225993383010078, 128.73828125 75.5 M128.73828125 -75.5 C128.73828125 -23.882600003437716, 128.73828125 27.734799993124568, 128.73828125 75.5 M128.73828125 75.5 C66.82858781575607 75.5, 4.918894381512118 75.5, -128.73828125 75.5 M128.73828125 75.5 C31.749491764054525 75.5, -65.23929772189095 75.5, -128.73828125 75.5 M-128.73828125 75.5 C-128.73828125 27.399825879218405, -128.73828125 -20.70034824156319, -128.73828125 -75.5 M-128.73828125 75.5 C-128.73828125 43.66881962387756, -128.73828125 11.83763924775512, -128.73828125 -75.5"/></g><g class="row-rect-odd" style=""><path fill="hsl(240, 100%, 100%)" stroke-width="0" stroke="none" d="M-128.73828125 -37.75 L128.73828125 -37.75 L128.73828125 0 L-128.73828125 0"/><path fill="none" stroke-width="1.3" stroke="#9370DB" d="M-128.73828125 -37.75 C-50.72578329550531 -37.75, 27.286714658989382 -37.75, 128.73828125 -37.75 M-128.73828125 -37.75 C-49.165656695119495 -37.75, 30.40696785976101 -37.75, 128.73828125 -37.75 M128.73828125 -37.75 C128.73828125 -23.016922979399126, 128.73828125 -8.28384595879825, 128.73828125 0 M128.73828125 -37.75 C128.73828125 -26.891804021578626, 128.73828125 -16.03360804315725, 128.73828125 0 M128.73828125 0 C39.84242994164852 0, -49.05342136670296 0, -128.73828125 0 M128.73828125 0 C67.75559869673222 0, 6.7729161434644425 0, -128.73828125 0 M-128.73828125 0 C-128.73828125 -10.581102493508507, -128.73828125 -21.162204987017013, -128.73828125 -37.75 M-128.73828125 0 C-128.73828125 -11.21053125712876, -128.73828125 -22.42106251425752, -128.73828125 -37.75"/></g><g class="row-rect-even" style=""><path fill="hsl(240, 100%, 97.2745098039%)" stroke-width="0" stroke="none" d="M-128.73828125 0 L128.73828125 0 L128.73828125 37.75 L-128.73828125 37.75"/><path fill="none" stroke-width="1.3" stroke="#9370DB" d="M-128.73828125 0 C-60.314550412106854 0, 8.109180425786292 0, 128.73828125 0 M-128.73828125 0 C-75.2755037949722 0, -21.812726339944405 0, 128.73828125 0 M128.73828125 0 C128.73828125 12.539590574003107, 128.73828125 25.079181148006214, 128.73828125 37.75 M128.73828125 0 C128.73828125 13.72245488864662, 128.73828125 27.44490977729324, 128.73828125 37.75 M128.73828125 37.75 C38.57901439233078 37.75, -51.58025246533845 37.75, -128.73828125 37.75 M128.73828125 37.75 C65.67838028971113 37.75, 2.618479329422243 37.75, -128.73828125 37.75 M-128.73828125 37.75 C-128.73828125 28.978483591075232, -128.73828125 20.20696718215046, -128.73828125 0 M-128.73828125 37.75 C-128.73828125 29.933845034460802, -128.73828125 22.117690068921604, -128.73828125 0"/></g><g class="row-rect-odd" style=""><path fill="hsl(240, 100%, 100%)" stroke-width="0" stroke="none" d="M-128.73828125 37.75 L128.73828125 37.75 L128.73828125 75.5 L-128.73828125 75.5"/><path fill="none" stroke-width="1.3" stroke="#9370DB" d="M-128.73828125 37.75 C-27.79003522962796 37.75, 73.15821079074408 37.75, 128.73828125 37.75 M-128.73828125 37.75 C-27.278494815987557 37.75, 74.18129161802489 37.75, 128.73828125 37.75 M128.73828125 37.75 C128.73828125 50.77771868913046, 128.73828125 63.80543737826092, 128.73828125 75.5 M128.73828125 37.75 C128.73828125 52.4724621885869, 128.73828125 67.1949243771738, 128.73828125 75.5 M128.73828125 75.5 C48.57116368443353 75.5, -31.595953881132942 75.5, -128.73828125 75.5 M128.73828125 75.5 C44.93584607878803 75.5, -38.866589092423936 75.5, -128.73828125 75.5 M-128.73828125 75.5 C-128.73828125 64.25301694303683, -128.73828125 53.006033886073666, -128.73828125 37.75 M-128.73828125 75.5 C-128.73828125 63.06376614693998, -128.73828125 50.627532293879966, -128.73828125 37.75"/></g><g style="" transform="translate(-64.3046875, -66.125)" class="label name"><g><rect style="stroke: none" class="background"/></g><text style="" y="-10.1"><tspan dy="1.1em" y="-0.1em" x="0" class="text-outer-tspan"><tspan font-weight="normal" class="text-inner-tspan" font-style="normal">ROLE_PERMISSION</tspan></tspan></text></g><g style="" transform="translate(-116.23828125, -28.375)" class="label attribute-type"><g><rect style="stroke: none" class="background"/></g><text style="" y="-10.1"><tspan dy="1.1em" y="-0.1em" x="0" class="text-outer-tspan"><tspan font-weight="normal" class="text-inner-tspan" font-style="normal">int</tspan></tspan></text></g><g style="" transform="translate(-25.66015625, -28.375)" class="label attribute-name"><g><rect style="stroke: none" class="background"/></g><text style="" y="-10.1"><tspan dy="1.1em" y="-0.1em" x="0" class="text-outer-tspan"><tspan font-weight="normal" class="text-inner-tspan" font-style="normal">role_id</tspan></tspan></text></g><g style="" transform="translate(97.83984375, -28.375)" class="label attribute-keys"><g><rect style="stroke: none" class="background"/></g><text style="" y="-10.1"><tspan dy="1.1em" y="-0.1em" x="0" class="text-outer-tspan"><tspan font-weight="normal" class="text-inner-tspan" font-style="normal">FK</tspan></tspan></text></g><g style="" transform="translate(141.23828125, -28.375)" class="label attribute-comment"><g><rect style="stroke: none" class="background"/></g><text style="" y="-10.1"><tspan dy="1.1em" y="-0.1em" x="0" class="text-outer-tspan"/></text></g><g style="" transform="translate(-116.23828125, 9.375)" class="label attribute-type"><g><rect style="stroke: none" class="background"/></g><text style="" y="-10.1"><tspan dy="1.1em" y="-0.1em" x="0" class="text-outer-tspan"><tspan font-weight="normal" class="text-inner-tspan" font-style="normal">int</tspan></tspan></text></g><g style="" transform="translate(-25.66015625, 9.375)" class="label attribute-name"><g><rect style="stroke: none" class="background"/></g><text style="" y="-10.1"><tspan dy="1.1em" y="-0.1em" x="0" class="text-outer-tspan"><tspan font-weight="normal" class="text-inner-tspan" font-style="normal">permission_id</tspan></tspan></text></g><g style="" transform="translate(97.83984375, 9.375)" class="label attribute-keys"><g><rect style="stroke: none" class="background"/></g><text style="" y="-10.1"><tspan dy="1.1em" y="-0.1em" x="0" class="text-outer-tspan"><tspan font-weight="normal" class="text-inner-tspan" font-style="normal">FK</tspan></tspan></text></g><g style="" transform="translate(141.23828125, 9.375)" class="label attribute-comment"><g><rect style="stroke: none" class="background"/></g><text style="" y="-10.1"><tspan dy="1.1em" y="-0.1em" x="0" class="text-outer-tspan"/></text></g><g style="" transform="translate(-116.23828125, 47.125)" class="label attribute-type"><g><rect style="stroke: none" class="background"/></g><text style="" y="-10.1"><tspan dy="1.1em" y="-0.1em" x="0" class="text-outer-tspan"><tspan font-weight="normal" class="text-inner-tspan" font-style="normal">datetime</tspan></tspan></text></g><g style="" transform="translate(-25.66015625, 47.125)" class="label attribute-name"><g><rect style="stroke: none" class="background"/></g><text style="" y="-10.1"><tspan dy="1.1em" y="-0.1em" x="0" class="text-outer-tspan"><tspan font-weight="normal" class="text-inner-tspan" font-style="normal">granted_at</tspan></tspan></text></g><g style="" transform="translate(97.83984375, 47.125)" class="label attribute-keys"><g><rect style="stroke: none" class="background"/></g><text style="" y="-10.1"><tspan dy="1.1em" y="-0.1em" x="0" class="text-outer-tspan"/></text></g><g style="" transform="translate(141.23828125, 47.125)" class="label attribute-comment"><g><rect style="stroke: none" class="background"/></g><text style="" y="-10.1"><tspan dy="1.1em" y="-0.1em" x="0" class="text-outer-tspan"/></text></g><g class="divider"><path fill="none" stroke-width="1.3" stroke="#9370DB" d="M-128.73828125 -37.75 C-26.23077685958583 -37.75, 76.27672753082834 -37.75, 128.73828125 -37.75 M-128.73828125 -37.75 C-43.59620548313505 -37.75, 41.5458702837299 -37.75, 128.73828125 -37.75"/></g><g class="divider"><path fill="none" stroke-width="1.3" stroke="#9370DB" d="M-38.16015625 -37.75 C-38.16015625 -11.764910457838383, -38.16015625 14.220179084323235, -38.16015625 75.5 M-38.16015625 -37.75 C-38.16015625 3.529154080483792, -38.16015625 44.808308160967584, -38.16015625 75.5"/></g><g class="divider"><path fill="none" stroke-width="1.3" stroke="#9370DB" d="M85.33984375 -37.75 C85.33984375 -2.3197375869618924, 85.33984375 33.110524826076215, 85.33984375 75.5 M85.33984375 -37.75 C85.33984375 -14.228515149728484, 85.33984375 9.292969700543033, 85.33984375 75.5"/></g><g class="divider"><path fill="none" stroke-width="1.3" stroke="#9370DB" d="M-128.73828125 -37.75 C-55.27639287030439 -37.75, 18.185495509391217 -37.75, 128.73828125 -37.75 M-128.73828125 -37.75 C-76.98658287497241 -37.75, -25.234884499944812 -37.75, 128.73828125 -37.75"/></g></g><g transform="translate(563.6875, 620.625)" id="entity-SESSION-5" class="node default"><g style=""><path fill="#ECECFF" stroke-width="0" stroke="none" d="M-119.48046875 -132.125 L119.48046875 -132.125 L119.48046875 132.125 L-119.48046875 132.125"/><path fill="none" stroke-width="1.3" stroke="#9370DB" d="M-119.48046875 -132.125 C-37.52243640967748 -132.125, 44.435595930645036 -132.125, 119.48046875 -132.125 M-119.48046875 -132.125 C-58.404394496095136 -132.125, 2.671679757809727 -132.125, 119.48046875 -132.125 M119.48046875 -132.125 C119.48046875 -58.18797541368677, 119.48046875 15.749049172626457, 119.48046875 132.125 M119.48046875 -132.125 C119.48046875 -38.30634800018643, 119.48046875 55.512303999627136, 119.48046875 132.125 M119.48046875 132.125 C57.4585746494915 132.125, -4.563319451016994 132.125, -119.48046875 132.125 M119.48046875 132.125 C24.230548500534155 132.125, -71.01937174893169 132.125, -119.48046875 132.125 M-119.48046875 132.125 C-119.48046875 35.9513513221746, -119.48046875 -60.222297355650795, -119.48046875 -132.125 M-119.48046875 132.125 C-119.48046875 54.84619019642608, -119.48046875 -22.432619607147842, -119.48046875 -132.125"/></g><g class="row-rect-odd" style=""><path fill="hsl(240, 100%, 100%)" stroke-width="0" stroke="none" d="M-119.48046875 -94.375 L119.48046875 -94.375 L119.48046875 -56.625 L-119.48046875 -56.625"/><path fill="none" stroke-width="1.3" stroke="#9370DB" d="M-119.48046875 -94.375 C-53.44796755158933 -94.375, 12.584533646821342 -94.375, 119.48046875 -94.375 M-119.48046875 -94.375 C-27.727480489019754 -94.375, 64.02550777196049 -94.375, 119.48046875 -94.375 M119.48046875 -94.375 C119.48046875 -85.80915437027379, 119.48046875 -77.24330874054756, 119.48046875 -56.625 M119.48046875 -94.375 C119.48046875 -84.13755693424788, 119.48046875 -73.90011386849577, 119.48046875 -56.625 M119.48046875 -56.625 C62.91507901933539 -56.625, 6.349689288670774 -56.625, -119.48046875 -56.625 M119.48046875 -56.625 C65.51492249277844 -56.625, 11.549376235556878 -56.625, -119.48046875 -56.625 M-119.48046875 -56.625 C-119.48046875 -71.08923882222558, -119.48046875 -85.55347764445115, -119.48046875 -94.375 M-119.48046875 -56.625 C-119.48046875 -65.60714409790582, -119.48046875 -74.58928819581163, -119.48046875 -94.375"/></g><g class="row-rect-even" style=""><path fill="hsl(240, 100%, 97.2745098039%)" stroke-width="0" stroke="none" d="M-119.48046875 -56.625 L119.48046875 -56.625 L119.48046875 -18.875 L-119.48046875 -18.875"/><path fill="none" stroke-width="1.3" stroke="#9370DB" d="M-119.48046875 -56.625 C-66.1082359537582 -56.625, -12.736003157516393 -56.625, 119.48046875 -56.625 M-119.48046875 -56.625 C-43.609925361370784 -56.625, 32.26061802725843 -56.625, 119.48046875 -56.625 M119.48046875 -56.625 C119.48046875 -42.691845568219435, 119.48046875 -28.75869113643887, 119.48046875 -18.875 M119.48046875 -56.625 C119.48046875 -46.629298970241074, 119.48046875 -36.63359794048215, 119.48046875 -18.875 M119.48046875 -18.875 C36.95852369859827 -18.875, -45.56342135280346 -18.875, -119.48046875 -18.875 M119.48046875 -18.875 C57.8081491102439 -18.875, -3.8641705295121938 -18.875, -119.48046875 -18.875 M-119.48046875 -18.875 C-119.48046875 -31.658216816054647, -119.48046875 -44.441433632109295, -119.48046875 -56.625 M-119.48046875 -18.875 C-119.48046875 -28.68138375411541, -119.48046875 -38.48776750823082, -119.48046875 -56.625"/></g><g class="row-rect-odd" style=""><path fill="hsl(240, 100%, 100%)" stroke-width="0" stroke="none" d="M-119.48046875 -18.875 L119.48046875 -18.875 L119.48046875 18.875 L-119.48046875 18.875"/><path fill="none" stroke-width="1.3" stroke="#9370DB" d="M-119.48046875 -18.875 C-68.63645521208001 -18.875, -17.792441674160017 -18.875, 119.48046875 -18.875 M-119.48046875 -18.875 C-53.99842008849704 -18.875, 11.483628573005916 -18.875, 119.48046875 -18.875 M119.48046875 -18.875 C119.48046875 -9.984527715526106, 119.48046875 -1.0940554310522117, 119.48046875 18.875 M119.48046875 -18.875 C119.48046875 -7.271112557294611, 119.48046875 4.332774885410778, 119.48046875 18.875 M119.48046875 18.875 C44.30541707320286 18.875, -30.869634603594278 18.875, -119.48046875 18.875 M119.48046875 18.875 C70.11948210871421 18.875, 20.758495467428432 18.875, -119.48046875 18.875 M-119.48046875 18.875 C-119.48046875 9.415054242523803, -119.48046875 -0.04489151495239341, -119.48046875 -18.875 M-119.48046875 18.875 C-119.48046875 7.6890360553888275, -119.48046875 -3.496927889222345, -119.48046875 -18.875"/></g><g class="row-rect-even" style=""><path fill="hsl(240, 100%, 97.2745098039%)" stroke-width="0" stroke="none" d="M-119.48046875 18.875 L119.48046875 18.875 L119.48046875 56.625 L-119.48046875 56.625"/><path fill="none" stroke-width="1.3" stroke="#9370DB" d="M-119.48046875 18.875 C-50.99759260974602 18.875, 17.485283530507957 18.875, 119.48046875 18.875 M-119.48046875 18.875 C-58.5064344046022 18.875, 2.467599940795594 18.875, 119.48046875 18.875 M119.48046875 18.875 C119.48046875 33.024219126046894, 119.48046875 47.17343825209379, 119.48046875 56.625 M119.48046875 18.875 C119.48046875 31.567259374868623, 119.48046875 44.259518749737246, 119.48046875 56.625 M119.48046875 56.625 C56.20299468947121 56.625, -7.074479371057578 56.625, -119.48046875 56.625 M119.48046875 56.625 C65.69724329986613 56.625, 11.91401784973226 56.625, -119.48046875 56.625 M-119.48046875 56.625 C-119.48046875 47.636070878790434, -119.48046875 38.64714175758087, -119.48046875 18.875 M-119.48046875 56.625 C-119.48046875 46.45641619268332, -119.48046875 36.28783238536664, -119.48046875 18.875"/></g><g class="row-rect-odd" style=""><path fill="hsl(240, 100%, 100%)" stroke-width="0" stroke="none" d="M-119.48046875 56.625 L119.48046875 56.625 L119.48046875 94.375 L-119.48046875 94.375"/><path fill="none" stroke-width="1.3" stroke="#9370DB" d="M-119.48046875 56.625 C-65.09048184234031 56.625, -10.70049493468062 56.625, 119.48046875 56.625 M-119.48046875 56.625 C-55.11916472014485 56.625, 9.242139309710296 56.625, 119.48046875 56.625 M119.48046875 56.625 C119.48046875 65.41850688281731, 119.48046875 74.21201376563462, 119.48046875 94.375 M119.48046875 56.625 C119.48046875 69.8106330904228, 119.48046875 82.99626618084558, 119.48046875 94.375 M119.48046875 94.375 C63.6735318557422 94.375, 7.866594961484395 94.375, -119.48046875 94.375 M119.48046875 94.375 C67.56872659336028 94.375, 15.656984436720549 94.375, -119.48046875 94.375 M-119.48046875 94.375 C-119.48046875 82.33188335455745, -119.48046875 70.2887667091149, -119.48046875 56.625 M-119.48046875 94.375 C-119.48046875 85.15788826417428, -119.48046875 75.94077652834855, -119.48046875 56.625"/></g><g class="row-rect-even" style=""><path fill="hsl(240, 100%, 97.2745098039%)" stroke-width="0" stroke="none" d="M-119.48046875 94.375 L119.48046875 94.375 L119.48046875 132.125 L-119.48046875 132.125"/><path fill="none" stroke-width="1.3" stroke="#9370DB" d="M-119.48046875 94.375 C-46.763860805670134 94.375, 25.95274713865973 94.375, 119.48046875 94.375 M-119.48046875 94.375 C-26.177626055895857 94.375, 67.12521663820829 94.375, 119.48046875 94.375 M119.48046875 94.375 C119.48046875 101.98033296212384, 119.48046875 109.58566592424768, 119.48046875 132.125 M119.48046875 94.375 C119.48046875 106.15201464704796, 119.48046875 117.92902929409591, 119.48046875 132.125 M119.48046875 132.125 C47.74248931581539 132.125, -23.99549011836922 132.125, -119.48046875 132.125 M119.48046875 132.125 C38.18775899479279 132.125, -43.104950760414425 132.125, -119.48046875 132.125 M-119.48046875 132.125 C-119.48046875 119.99424995499908, -119.48046875 107.86349990999815, -119.48046875 94.375 M-119.48046875 132.125 C-119.48046875 119.53680854421606, -119.48046875 106.94861708843213, -119.48046875 94.375"/></g><g style="" transform="translate(-28.5546875, -122.75)" class="label name"><g><rect style="stroke: none" class="background"/></g><text style="" y="-10.1"><tspan dy="1.1em" y="-0.1em" x="0" class="text-outer-tspan"><tspan font-weight="normal" class="text-inner-tspan" font-style="normal">SESSION</tspan></tspan></text></g><g style="" transform="translate(-106.98046875, -85)" class="label attribute-type"><g><rect style="stroke: none" class="background"/></g><text style="" y="-10.1"><tspan dy="1.1em" y="-0.1em" x="0" class="text-outer-tspan"><tspan font-weight="normal" class="text-inner-tspan" font-style="normal">string</tspan></tspan></text></g><g style="" transform="translate(-16.40234375, -85)" class="label attribute-name"><g><rect style="stroke: none" class="background"/></g><text style="" y="-10.1"><tspan dy="1.1em" y="-0.1em" x="0" class="text-outer-tspan"><tspan font-weight="normal" class="text-inner-tspan" font-style="normal">session_id</tspan></tspan></text></g><g style="" transform="translate(88.05859375, -85)" class="label attribute-keys"><g><rect style="stroke: none" class="background"/></g><text style="" y="-10.1"><tspan dy="1.1em" y="-0.1em" x="0" class="text-outer-tspan"><tspan font-weight="normal" class="text-inner-tspan" font-style="normal">PK</tspan></tspan></text></g><g style="" transform="translate(131.98046875, -85)" class="label attribute-comment"><g><rect style="stroke: none" class="background"/></g><text style="" y="-10.1"><tspan dy="1.1em" y="-0.1em" x="0" class="text-outer-tspan"/></text></g><g style="" transform="translate(-106.98046875, -47.25)" class="label attribute-type"><g><rect style="stroke: none" class="background"/></g><text style="" y="-10.1"><tspan dy="1.1em" y="-0.1em" x="0" class="text-outer-tspan"><tspan font-weight="normal" class="text-inner-tspan" font-style="normal">int</tspan></tspan></text></g><g style="" transform="translate(-16.40234375, -47.25)" class="label attribute-name"><g><rect style="stroke: none" class="background"/></g><text style="" y="-10.1"><tspan dy="1.1em" y="-0.1em" x="0" class="text-outer-tspan"><tspan font-weight="normal" class="text-inner-tspan" font-style="normal">user_id</tspan></tspan></text></g><g style="" transform="translate(88.05859375, -47.25)" class="label attribute-keys"><g><rect style="stroke: none" class="background"/></g><text style="" y="-10.1"><tspan dy="1.1em" y="-0.1em" x="0" class="text-outer-tspan"><tspan font-weight="normal" class="text-inner-tspan" font-style="normal">FK</tspan></tspan></text></g><g style="" transform="translate(131.98046875, -47.25)" class="label attribute-comment"><g><rect style="stroke: none" class="background"/></g><text style="" y="-10.1"><tspan dy="1.1em" y="-0.1em" x="0" class="text-outer-tspan"/></text></g><g style="" transform="translate(-106.98046875, -9.5)" class="label attribute-type"><g><rect style="stroke: none" class="background"/></g><text style="" y="-10.1"><tspan dy="1.1em" y="-0.1em" x="0" class="text-outer-tspan"><tspan font-weight="normal" class="text-inner-tspan" font-style="normal">datetime</tspan></tspan></text></g><g style="" transform="translate(-16.40234375, -9.5)" class="label attribute-name"><g><rect style="stroke: none" class="background"/></g><text style="" y="-10.1"><tspan dy="1.1em" y="-0.1em" x="0" class="text-outer-tspan"><tspan font-weight="normal" class="text-inner-tspan" font-style="normal">created_at</tspan></tspan></text></g><g style="" transform="translate(88.05859375, -9.5)" class="label attribute-keys"><g><rect style="stroke: none" class="background"/></g><text style="" y="-10.1"><tspan dy="1.1em" y="-0.1em" x="0" class="text-outer-tspan"/></text></g><g style="" transform="translate(131.98046875, -9.5)" class="label attribute-comment"><g><rect style="stroke: none" class="background"/></g><text style="" y="-10.1"><tspan dy="1.1em" y="-0.1em" x="0" class="text-outer-tspan"/></text></g><g style="" transform="translate(-106.98046875, 28.25)" class="label attribute-type"><g><rect style="stroke: none" class="background"/></g><text style="" y="-10.1"><tspan dy="1.1em" y="-0.1em" x="0" class="text-outer-tspan"><tspan font-weight="normal" class="text-inner-tspan" font-style="normal">datetime</tspan></tspan></text></g><g style="" transform="translate(-16.40234375, 28.25)" class="label attribute-name"><g><rect style="stroke: none" class="background"/></g><text style="" y="-10.1"><tspan dy="1.1em" y="-0.1em" x="0" class="text-outer-tspan"><tspan font-weight="normal" class="text-inner-tspan" font-style="normal">expires_at</tspan></tspan></text></g><g style="" transform="translate(88.05859375, 28.25)" class="label attribute-keys"><g><rect style="stroke: none" class="background"/></g><text style="" y="-10.1"><tspan dy="1.1em" y="-0.1em" x="0" class="text-outer-tspan"/></text></g><g style="" transform="translate(131.98046875, 28.25)" class="label attribute-comment"><g><rect style="stroke: none" class="background"/></g><text style="" y="-10.1"><tspan dy="1.1em" y="-0.1em" x="0" class="text-outer-tspan"/></text></g><g style="" transform="translate(-106.98046875, 66)" class="label attribute-type"><g><rect style="stroke: none" class="background"/></g><text style="" y="-10.1"><tspan dy="1.1em" y="-0.1em" x="0" class="text-outer-tspan"><tspan font-weight="normal" class="text-inner-tspan" font-style="normal">string</tspan></tspan></text></g><g style="" transform="translate(-16.40234375, 66)" class="label attribute-name"><g><rect style="stroke: none" class="background"/></g><text style="" y="-10.1"><tspan dy="1.1em" y="-0.1em" x="0" class="text-outer-tspan"><tspan font-weight="normal" class="text-inner-tspan" font-style="normal">ip_address</tspan></tspan></text></g><g style="" transform="translate(88.05859375, 66)" class="label attribute-keys"><g><rect style="stroke: none" class="background"/></g><text style="" y="-10.1"><tspan dy="1.1em" y="-0.1em" x="0" class="text-outer-tspan"/></text></g><g style="" transform="translate(131.98046875, 66)" class="label attribute-comment"><g><rect style="stroke: none" class="background"/></g><text style="" y="-10.1"><tspan dy="1.1em" y="-0.1em" x="0" class="text-outer-tspan"/></text></g><g style="" transform="translate(-106.98046875, 103.75)" class="label attribute-type"><g><rect style="stroke: none" class="background"/></g><text style="" y="-10.1"><tspan dy="1.1em" y="-0.1em" x="0" class="text-outer-tspan"><tspan font-weight="normal" class="text-inner-tspan" font-style="normal">string</tspan></tspan></text></g><g style="" transform="translate(-16.40234375, 103.75)" class="label attribute-name"><g><rect style="stroke: none" class="background"/></g><text style="" y="-10.1"><tspan dy="1.1em" y="-0.1em" x="0" class="text-outer-tspan"><tspan font-weight="normal" class="text-inner-tspan" font-style="normal">user_agent</tspan></tspan></text></g><g style="" transform="translate(88.05859375, 103.75)" class="label attribute-keys"><g><rect style="stroke: none" class="background"/></g><text style="" y="-10.1"><tspan dy="1.1em" y="-0.1em" x="0" class="text-outer-tspan"/></text></g><g style="" transform="translate(131.98046875, 103.75)" class="label attribute-comment"><g><rect style="stroke: none" class="background"/></g><text style="" y="-10.1"><tspan dy="1.1em" y="-0.1em" x="0" class="text-outer-tspan"/></text></g><g class="divider"><path fill="none" stroke-width="1.3" stroke="#9370DB" d="M-119.48046875 -94.375 C-27.183490281705417 -94.375, 65.11348818658917 -94.375, 119.48046875 -94.375 M-119.48046875 -94.375 C-42.72509281037479 -94.375, 34.03028312925042 -94.375, 119.48046875 -94.375"/></g><g class="divider"><path fill="none" stroke-width="1.3" stroke="#9370DB" d="M-28.90234375 -94.375 C-28.90234375 -45.05005271175088, -28.90234375 4.274894576498241, -28.90234375 132.125 M-28.90234375 -94.375 C-28.90234375 -21.912918211267396, -28.90234375 50.54916357746521, -28.90234375 132.125"/></g><g class="divider"><path fill="none" stroke-width="1.3" stroke="#9370DB" d="M75.55859375 -94.375 C75.55859375 -7.4799475533761495, 75.55859375 79.4151048932477, 75.55859375 132.125 M75.55859375 -94.375 C75.55859375 -47.324916133380775, 75.55859375 -0.2748322667615497, 75.55859375 132.125"/></g><g class="divider"><path fill="none" stroke-width="1.3" stroke="#9370DB" d="M-119.48046875 -94.375 C-62.547655632794914 -94.375, -5.614842515589828 -94.375, 119.48046875 -94.375 M-119.48046875 -94.375 C-71.07156521773757 -94.375, -22.662661685475143 -94.375, 119.48046875 -94.375"/></g></g></g></g></g></svg>