<svg aria-roledescription="stateDiagram" role="graphics-document document" viewBox="-2 0 576.2578125 763" style="max-width: 576.258px; background-color: white;" class="statediagram" xmlns:xlink="http://www.w3.org/1999/xlink" xmlns="http://www.w3.org/2000/svg" width="100%" id="my-svg"><style>#my-svg{font-family:"trebuchet ms",verdana,arial,sans-serif;font-size:16px;fill:#333;}@keyframes edge-animation-frame{from{stroke-dashoffset:0;}}@keyframes dash{to{stroke-dashoffset:0;}}#my-svg .edge-animation-slow{stroke-dasharray:9,5!important;stroke-dashoffset:900;animation:dash 50s linear infinite;stroke-linecap:round;}#my-svg .edge-animation-fast{stroke-dasharray:9,5!important;stroke-dashoffset:900;animation:dash 20s linear infinite;stroke-linecap:round;}#my-svg .error-icon{fill:#552222;}#my-svg .error-text{fill:#552222;stroke:#552222;}#my-svg .edge-thickness-normal{stroke-width:1px;}#my-svg .edge-thickness-thick{stroke-width:3.5px;}#my-svg .edge-pattern-solid{stroke-dasharray:0;}#my-svg .edge-thickness-invisible{stroke-width:0;fill:none;}#my-svg .edge-pattern-dashed{stroke-dasharray:3;}#my-svg .edge-pattern-dotted{stroke-dasharray:2;}#my-svg .marker{fill:#333333;stroke:#333333;}#my-svg .marker.cross{stroke:#333333;}#my-svg svg{font-family:"trebuchet ms",verdana,arial,sans-serif;font-size:16px;}#my-svg p{margin:0;}#my-svg defs #statediagram-barbEnd{fill:#333333;stroke:#333333;}#my-svg g.stateGroup text{fill:#9370DB;stroke:none;font-size:10px;}#my-svg g.stateGroup text{fill:#333;stroke:none;font-size:10px;}#my-svg g.stateGroup .state-title{font-weight:bolder;fill:#131300;}#my-svg g.stateGroup rect{fill:#ECECFF;stroke:#9370DB;}#my-svg g.stateGroup line{stroke:#333333;stroke-width:1;}#my-svg .transition{stroke:#333333;stroke-width:1;fill:none;}#my-svg .stateGroup .composit{fill:white;border-bottom:1px;}#my-svg .stateGroup .alt-composit{fill:#e0e0e0;border-bottom:1px;}#my-svg .state-note{stroke:#aaaa33;fill:#fff5ad;}#my-svg .state-note text{fill:black;stroke:none;font-size:10px;}#my-svg .stateLabel .box{stroke:none;stroke-width:0;fill:#ECECFF;opacity:0.5;}#my-svg .edgeLabel .label rect{fill:#ECECFF;opacity:0.5;}#my-svg .edgeLabel{background-color:rgba(232,232,232, 0.8);text-align:center;}#my-svg .edgeLabel p{background-color:rgba(232,232,232, 0.8);}#my-svg .edgeLabel rect{opacity:0.5;background-color:rgba(232,232,232, 0.8);fill:rgba(232,232,232, 0.8);}#my-svg .edgeLabel .label text{fill:#333;}#my-svg .label div .edgeLabel{color:#333;}#my-svg .stateLabel text{fill:#131300;font-size:10px;font-weight:bold;}#my-svg .node circle.state-start{fill:#333333;stroke:#333333;}#my-svg .node .fork-join{fill:#333333;stroke:#333333;}#my-svg .node circle.state-end{fill:#9370DB;stroke:white;stroke-width:1.5;}#my-svg .end-state-inner{fill:white;stroke-width:1.5;}#my-svg .node rect{fill:#ECECFF;stroke:#9370DB;stroke-width:1px;}#my-svg .node polygon{fill:#ECECFF;stroke:#9370DB;stroke-width:1px;}#my-svg #statediagram-barbEnd{fill:#333333;}#my-svg .statediagram-cluster rect{fill:#ECECFF;stroke:#9370DB;stroke-width:1px;}#my-svg .cluster-label,#my-svg .nodeLabel{color:#131300;}#my-svg .statediagram-cluster rect.outer{rx:5px;ry:5px;}#my-svg .statediagram-state .divider{stroke:#9370DB;}#my-svg .statediagram-state .title-state{rx:5px;ry:5px;}#my-svg .statediagram-cluster.statediagram-cluster .inner{fill:white;}#my-svg .statediagram-cluster.statediagram-cluster-alt .inner{fill:#f0f0f0;}#my-svg .statediagram-cluster .inner{rx:0;ry:0;}#my-svg .statediagram-state rect.basic{rx:5px;ry:5px;}#my-svg .statediagram-state rect.divider{stroke-dasharray:10,10;fill:#f0f0f0;}#my-svg .note-edge{stroke-dasharray:5;}#my-svg .statediagram-note rect{fill:#fff5ad;stroke:#aaaa33;stroke-width:1px;rx:0;ry:0;}#my-svg .statediagram-note rect{fill:#fff5ad;stroke:#aaaa33;stroke-width:1px;rx:0;ry:0;}#my-svg .statediagram-note text{fill:black;}#my-svg .statediagram-note .nodeLabel{color:black;}#my-svg .statediagram .edgeLabel{color:red;}#my-svg #dependencyStart,#my-svg #dependencyEnd{fill:#333333;stroke:#333333;stroke-width:1;}#my-svg .statediagramTitleText{text-anchor:middle;font-size:18px;fill:#333;}#my-svg :root{--mermaid-font-family:"trebuchet ms",verdana,arial,sans-serif;}</style><g><defs><marker orient="auto" markerUnits="userSpaceOnUse" markerHeight="14" markerWidth="20" refY="7" refX="19" id="my-svg_stateDiagram-barbEnd"><path d="M 19,7 L9,13 L14,7 L9,1 Z"/></marker></defs><g class="root"><g class="clusters"/><g class="edgePaths"><path marker-end="url(#my-svg_stateDiagram-barbEnd)" style="fill:none;" class="edge-thickness-normal edge-pattern-solid transition" id="edge0" d="M337.758,22L337.758,26.167C337.758,30.333,337.758,38.667,337.758,47C337.758,55.333,337.758,63.667,337.758,67.833L337.758,72"/><path marker-end="url(#my-svg_stateDiagram-barbEnd)" style="fill:none;" class="edge-thickness-normal edge-pattern-solid transition" id="edge1" d="M305.758,98.238L278.132,105.782C250.505,113.325,195.253,128.413,167.626,142.04C140,155.667,140,167.833,140,173.917L140,180"/><path marker-end="url(#my-svg_stateDiagram-barbEnd)" style="fill:none;" class="edge-thickness-normal edge-pattern-solid transition" id="edge2" d="M140,215L140,221.083C140,227.167,140,239.333,140,251.5C140,263.667,140,275.833,140,281.917L140,288"/><path marker-end="url(#my-svg_stateDiagram-barbEnd)" style="fill:none;" class="edge-thickness-normal edge-pattern-solid transition" id="edge3" d="M150.856,323L154.63,329.083C158.404,335.167,165.952,347.333,169.726,359.5C173.5,371.667,173.5,383.833,173.5,389.917L173.5,396"/><path marker-end="url(#my-svg_stateDiagram-barbEnd)" style="fill:none;" class="edge-thickness-normal edge-pattern-solid transition" id="edge4" d="M108.241,323L97.201,329.083C86.16,335.167,64.08,347.333,53.04,362.417C42,377.5,42,395.5,42,413.5C42,431.5,42,449.5,42,467.5C42,485.5,42,503.5,42,521.5C42,539.5,42,557.5,48.816,572.583C55.631,587.667,69.262,599.833,76.078,605.917L82.894,612"/><path marker-end="url(#my-svg_stateDiagram-barbEnd)" style="fill:none;" class="edge-thickness-normal edge-pattern-solid transition" id="edge5" d="M188.977,431L194.357,437.083C199.737,443.167,210.498,455.333,215.878,467.5C221.258,479.667,221.258,491.833,221.258,497.917L221.258,504"/><path marker-end="url(#my-svg_stateDiagram-barbEnd)" style="fill:none;" class="edge-thickness-normal edge-pattern-solid transition" id="edge6" d="M150.491,431L142.492,437.083C134.494,443.167,118.497,455.333,110.498,470.417C102.5,485.5,102.5,503.5,102.5,521.5C102.5,539.5,102.5,557.5,102.5,572.583C102.5,587.667,102.5,599.833,102.5,605.917L102.5,612"/><path marker-end="url(#my-svg_stateDiagram-barbEnd)" style="fill:none;" class="edge-thickness-normal edge-pattern-solid transition" id="edge7" d="M235.517,539L240.474,545.083C245.431,551.167,255.344,563.333,265.427,575.5C275.509,587.667,285.761,599.833,290.887,605.917L296.012,612"/><path marker-end="url(#my-svg_stateDiagram-barbEnd)" style="fill:none;" class="edge-thickness-normal edge-pattern-solid transition" id="edge8" d="M206.999,539L202.042,545.083C197.085,551.167,187.171,563.333,173.793,575.5C160.414,587.667,143.571,599.833,135.149,605.917L126.727,612"/><path marker-end="url(#my-svg_stateDiagram-barbEnd)" style="fill:none;" class="edge-thickness-normal edge-pattern-solid transition" id="edge9" d="M319.508,612L322.549,605.917C325.591,599.833,331.674,587.667,334.716,572.583C337.758,557.5,337.758,539.5,337.758,521.5C337.758,503.5,337.758,485.5,337.758,467.5C337.758,449.5,337.758,431.5,337.758,413.5C337.758,395.5,337.758,377.5,337.758,359.5C337.758,341.5,337.758,323.5,337.758,305.5C337.758,287.5,337.758,269.5,337.758,251.5C337.758,233.5,337.758,215.5,337.758,197.5C337.758,179.5,337.758,161.5,337.758,146.417C337.758,131.333,337.758,119.167,337.758,113.083L337.758,107"/><path marker-end="url(#my-svg_stateDiagram-barbEnd)" style="fill:none;" class="edge-thickness-normal edge-pattern-solid transition" id="edge10" d="M102.5,647L102.5,653.083C102.5,659.167,102.5,671.333,118.948,683.5C135.395,695.667,168.29,707.833,184.738,713.917L201.185,720"/><path marker-end="url(#my-svg_stateDiagram-barbEnd)" style="fill:none;" class="edge-thickness-normal edge-pattern-solid transition" id="edge11" d="M134.5,634.385L188.126,642.571C241.753,650.756,349.005,667.128,406.124,681.397C463.242,695.667,470.227,707.833,473.719,713.917L477.212,720"/><path marker-end="url(#my-svg_stateDiagram-barbEnd)" style="fill:none;" class="edge-thickness-normal edge-pattern-solid transition" id="edge12" d="M295.736,720L312.157,713.917C328.577,707.833,361.417,695.667,377.838,680.583C394.258,665.5,394.258,647.5,394.258,629.5C394.258,611.5,394.258,593.5,394.258,575.5C394.258,557.5,394.258,539.5,394.258,521.5C394.258,503.5,394.258,485.5,394.258,467.5C394.258,449.5,394.258,431.5,394.258,413.5C394.258,395.5,394.258,377.5,394.258,359.5C394.258,341.5,394.258,323.5,394.258,305.5C394.258,287.5,394.258,269.5,358.548,252.916C322.839,236.332,251.419,221.164,215.71,213.579L180,205.995"/><path marker-end="url(#my-svg_stateDiagram-barbEnd)" style="fill:none;" class="edge-thickness-normal edge-pattern-solid transition" id="edge13" d="M497.304,720L500.796,713.917C504.289,707.833,511.273,695.667,514.766,680.583C518.258,665.5,518.258,647.5,518.258,629.5C518.258,611.5,518.258,593.5,518.258,575.5C518.258,557.5,518.258,539.5,518.258,521.5C518.258,503.5,518.258,485.5,518.258,467.5C518.258,449.5,518.258,431.5,518.258,413.5C518.258,395.5,518.258,377.5,518.258,359.5C518.258,341.5,518.258,323.5,518.258,305.5C518.258,287.5,518.258,269.5,518.258,251.5C518.258,233.5,518.258,215.5,518.258,197.5C518.258,179.5,518.258,161.5,493.508,145.096C468.758,128.691,419.258,113.882,394.508,106.478L369.758,99.073"/></g><g class="edgeLabels"><g><rect style="stroke: none" class="background"/></g><g class="edgeLabel"><g transform="translate(0, 0)" class="label"><text y="-10.1"><tspan dy="1.1em" y="-0.1em" x="0" class="text-outer-tspan"/></text></g></g><g transform="translate(140, 143.5)" class="edgeLabel"><g transform="translate(-50, -11.5)" class="label"><g><rect height="23" width="100" y="-1" x="-2" style="" class="background"/><text style="" y="-10.1"><tspan dy="1.1em" y="-0.1em" x="0" class="text-outer-tspan"><tspan font-weight="normal" class="text-inner-tspan" font-style="normal">トリガー発生</tspan></tspan></text></g></g></g><g transform="translate(140, 251.5)" class="edgeLabel"><g transform="translate(-58, -11.5)" class="label"><g><rect height="23" width="116" y="-1" x="-2" style="" class="background"/><text style="" y="-10.1"><tspan dy="1.1em" y="-0.1em" x="0" class="text-outer-tspan"><tspan font-weight="normal" class="text-inner-tspan" font-style="normal">データ取得開始</tspan></tspan></text></g></g></g><g transform="translate(173.5, 359.5)" class="edgeLabel"><g transform="translate(-34, -11.5)" class="label"><g><rect height="23" width="68" y="-1" x="-2" style="" class="background"/><text style="" y="-10.1"><tspan dy="1.1em" y="-0.1em" x="0" class="text-outer-tspan"><tspan font-weight="normal" class="text-inner-tspan" font-style="normal">取得完了</tspan></tspan></text></g></g></g><g transform="translate(42, 467.5)" class="edgeLabel"><g transform="translate(-34, -11.5)" class="label"><g><rect height="23" width="68" y="-1" x="-2" style="" class="background"/><text style="" y="-10.1"><tspan dy="1.1em" y="-0.1em" x="0" class="text-outer-tspan"><tspan font-weight="normal" class="text-inner-tspan" font-style="normal">取得失敗</tspan></tspan></text></g></g></g><g transform="translate(221.2578125, 467.5)" class="edgeLabel"><g transform="translate(-28.390625, -11.5)" class="label"><g><rect height="23" width="56.78125" y="-1" x="-2" style="" class="background"/><text style="" y="-10.1"><tspan dy="1.1em" y="-0.1em" x="0" class="text-outer-tspan"><tspan font-weight="normal" class="text-inner-tspan" font-style="normal">検証OK</tspan></tspan></text></g></g></g><g transform="translate(102.5, 521.5)" class="edgeLabel"><g transform="translate(-28.515625, -11.5)" class="label"><g><rect height="23" width="57.03125" y="-1" x="-2" style="" class="background"/><text style="" y="-10.1"><tspan dy="1.1em" y="-0.1em" x="0" class="text-outer-tspan"><tspan font-weight="normal" class="text-inner-tspan" font-style="normal">検証NG</tspan></tspan></text></g></g></g><g transform="translate(265.2578125, 575.5)" class="edgeLabel"><g transform="translate(-34, -11.5)" class="label"><g><rect height="23" width="68" y="-1" x="-2" style="" class="background"/><text style="" y="-10.1"><tspan dy="1.1em" y="-0.1em" x="0" class="text-outer-tspan"><tspan font-weight="normal" class="text-inner-tspan" font-style="normal">適用成功</tspan></tspan></text></g></g></g><g transform="translate(177.2578125, 575.5)" class="edgeLabel"><g transform="translate(-34, -11.5)" class="label"><g><rect height="23" width="68" y="-1" x="-2" style="" class="background"/><text style="" y="-10.1"><tspan dy="1.1em" y="-0.1em" x="0" class="text-outer-tspan"><tspan font-weight="normal" class="text-inner-tspan" font-style="normal">適用失敗</tspan></tspan></text></g></g></g><g transform="translate(337.7578125, 359.5)" class="edgeLabel"><g transform="translate(-34, -11.5)" class="label"><g><rect height="23" width="68" y="-1" x="-2" style="" class="background"/><text style="" y="-10.1"><tspan dy="1.1em" y="-0.1em" x="0" class="text-outer-tspan"><tspan font-weight="normal" class="text-inner-tspan" font-style="normal">次回待機</tspan></tspan></text></g></g></g><g transform="translate(102.5, 683.5)" class="edgeLabel"><g transform="translate(-42, -11.5)" class="label"><g><rect height="23" width="84" y="-1" x="-2" style="" class="background"/><text style="" y="-10.1"><tspan dy="1.1em" y="-0.1em" x="0" class="text-outer-tspan"><tspan font-weight="normal" class="text-inner-tspan" font-style="normal">再試行可能</tspan></tspan></text></g></g></g><g transform="translate(456.2578125, 683.5)" class="edgeLabel"><g transform="translate(-42, -11.5)" class="label"><g><rect height="23" width="84" y="-1" x="-2" style="" class="background"/><text style="" y="-10.1"><tspan dy="1.1em" y="-0.1em" x="0" class="text-outer-tspan"><tspan font-weight="normal" class="text-inner-tspan" font-style="normal">再試行不可</tspan></tspan></text></g></g></g><g transform="translate(394.2578125, 467.5)" class="edgeLabel"><g transform="translate(-26, -11.5)" class="label"><g><rect height="23" width="52" y="-1" x="-2" style="" class="background"/><text style="" y="-10.1"><tspan dy="1.1em" y="-0.1em" x="0" class="text-outer-tspan"><tspan font-weight="normal" class="text-inner-tspan" font-style="normal">再試行</tspan></tspan></text></g></g></g><g transform="translate(518.2578125, 413.5)" class="edgeLabel"><g transform="translate(-50, -11.5)" class="label"><g><rect height="23" width="100" y="-1" x="-2" style="" class="background"/><text style="" y="-10.1"><tspan dy="1.1em" y="-0.1em" x="0" class="text-outer-tspan"><tspan font-weight="normal" class="text-inner-tspan" font-style="normal">手動リセット</tspan></tspan></text></g></g></g></g><g class="nodes"><g transform="translate(337.7578125, 15)" id="state-root_start-0" class="node default"><circle height="14" width="14" r="7" class="state-start"/></g><g transform="translate(337.7578125, 89.5)" id="state-待機中-13" class="node  statediagram-state"><rect height="35" width="64" y="-17.5" x="-32" ry="5" rx="5" style="" class="basic label-container"/><g transform="translate(-24, -9.5)" style="" class="label"><rect/><g><rect style="stroke: none" class="background"/><text style="" y="-10.1"><tspan dy="1.1em" y="-0.1em" x="0" class="text-outer-tspan"><tspan font-weight="normal" class="text-inner-tspan" font-style="normal">待機中</tspan></tspan></text></g></g></g><g transform="translate(140, 197.5)" id="state-同期開始-12" class="node  statediagram-state"><rect height="35" width="80" y="-17.5" x="-40" ry="5" rx="5" style="" class="basic label-container"/><g transform="translate(-32, -9.5)" style="" class="label"><rect/><g><rect style="stroke: none" class="background"/><text style="" y="-10.1"><tspan dy="1.1em" y="-0.1em" x="0" class="text-outer-tspan"><tspan font-weight="normal" class="text-inner-tspan" font-style="normal">同期開始</tspan></tspan></text></g></g></g><g transform="translate(140, 305.5)" id="state-データ取得中-4" class="node  statediagram-state"><rect height="35" width="112" y="-17.5" x="-56" ry="5" rx="5" style="" class="basic label-container"/><g transform="translate(-48, -9.5)" style="" class="label"><rect/><g><rect style="stroke: none" class="background"/><text style="" y="-10.1"><tspan dy="1.1em" y="-0.1em" x="0" class="text-outer-tspan"><tspan font-weight="normal" class="text-inner-tspan" font-style="normal">データ取得中</tspan></tspan></text></g></g></g><g transform="translate(173.5, 413.5)" id="state-検証中-6" class="node  statediagram-state"><rect height="35" width="64" y="-17.5" x="-32" ry="5" rx="5" style="" class="basic label-container"/><g transform="translate(-24, -9.5)" style="" class="label"><rect/><g><rect style="stroke: none" class="background"/><text style="" y="-10.1"><tspan dy="1.1em" y="-0.1em" x="0" class="text-outer-tspan"><tspan font-weight="normal" class="text-inner-tspan" font-style="normal">検証中</tspan></tspan></text></g></g></g><g transform="translate(102.5, 629.5)" id="state-エラー-11" class="node  statediagram-state"><rect height="35" width="64" y="-17.5" x="-32" ry="5" rx="5" style="" class="basic label-container"/><g transform="translate(-24, -9.5)" style="" class="label"><rect/><g><rect style="stroke: none" class="background"/><text style="" y="-10.1"><tspan dy="1.1em" y="-0.1em" x="0" class="text-outer-tspan"><tspan font-weight="normal" class="text-inner-tspan" font-style="normal">エラー</tspan></tspan></text></g></g></g><g transform="translate(221.2578125, 521.5)" id="state-適用中-8" class="node  statediagram-state"><rect height="35" width="64" y="-17.5" x="-32" ry="5" rx="5" style="" class="basic label-container"/><g transform="translate(-24, -9.5)" style="" class="label"><rect/><g><rect style="stroke: none" class="background"/><text style="" y="-10.1"><tspan dy="1.1em" y="-0.1em" x="0" class="text-outer-tspan"><tspan font-weight="normal" class="text-inner-tspan" font-style="normal">適用中</tspan></tspan></text></g></g></g><g transform="translate(310.7578125, 629.5)" id="state-完了-9" class="node  statediagram-state"><rect height="35" width="48" y="-17.5" x="-24" ry="5" rx="5" style="" class="basic label-container"/><g transform="translate(-16, -9.5)" style="" class="label"><rect/><g><rect style="stroke: none" class="background"/><text style="" y="-10.1"><tspan dy="1.1em" y="-0.1em" x="0" class="text-outer-tspan"><tspan font-weight="normal" class="text-inner-tspan" font-style="normal">完了</tspan></tspan></text></g></g></g><g transform="translate(248.5, 737.5)" id="state-再試行待ち-12" class="node  statediagram-state"><rect height="35" width="96" y="-17.5" x="-48" ry="5" rx="5" style="" class="basic label-container"/><g transform="translate(-40, -9.5)" style="" class="label"><rect/><g><rect style="stroke: none" class="background"/><text style="" y="-10.1"><tspan dy="1.1em" y="-0.1em" x="0" class="text-outer-tspan"><tspan font-weight="normal" class="text-inner-tspan" font-style="normal">再試行待ち</tspan></tspan></text></g></g></g><g transform="translate(487.2578125, 737.5)" id="state-失敗-13" class="node  statediagram-state"><rect height="35" width="48" y="-17.5" x="-24" ry="5" rx="5" style="" class="basic label-container"/><g transform="translate(-16, -9.5)" style="" class="label"><rect/><g><rect style="stroke: none" class="background"/><text style="" y="-10.1"><tspan dy="1.1em" y="-0.1em" x="0" class="text-outer-tspan"><tspan font-weight="normal" class="text-inner-tspan" font-style="normal">失敗</tspan></tspan></text></g></g></g></g></g></g></svg>