<svg aria-roledescription="stateDiagram" role="graphics-document document" viewBox="-2 0 813.875 547" style="max-width: 813.875px; background-color: white;" class="statediagram" xmlns:xlink="http://www.w3.org/1999/xlink" xmlns="http://www.w3.org/2000/svg" width="100%" id="my-svg"><style>#my-svg{font-family:"trebuchet ms",verdana,arial,sans-serif;font-size:16px;fill:#333;}@keyframes edge-animation-frame{from{stroke-dashoffset:0;}}@keyframes dash{to{stroke-dashoffset:0;}}#my-svg .edge-animation-slow{stroke-dasharray:9,5!important;stroke-dashoffset:900;animation:dash 50s linear infinite;stroke-linecap:round;}#my-svg .edge-animation-fast{stroke-dasharray:9,5!important;stroke-dashoffset:900;animation:dash 20s linear infinite;stroke-linecap:round;}#my-svg .error-icon{fill:#552222;}#my-svg .error-text{fill:#552222;stroke:#552222;}#my-svg .edge-thickness-normal{stroke-width:1px;}#my-svg .edge-thickness-thick{stroke-width:3.5px;}#my-svg .edge-pattern-solid{stroke-dasharray:0;}#my-svg .edge-thickness-invisible{stroke-width:0;fill:none;}#my-svg .edge-pattern-dashed{stroke-dasharray:3;}#my-svg .edge-pattern-dotted{stroke-dasharray:2;}#my-svg .marker{fill:#333333;stroke:#333333;}#my-svg .marker.cross{stroke:#333333;}#my-svg svg{font-family:"trebuchet ms",verdana,arial,sans-serif;font-size:16px;}#my-svg p{margin:0;}#my-svg defs #statediagram-barbEnd{fill:#333333;stroke:#333333;}#my-svg g.stateGroup text{fill:#9370DB;stroke:none;font-size:10px;}#my-svg g.stateGroup text{fill:#333;stroke:none;font-size:10px;}#my-svg g.stateGroup .state-title{font-weight:bolder;fill:#131300;}#my-svg g.stateGroup rect{fill:#ECECFF;stroke:#9370DB;}#my-svg g.stateGroup line{stroke:#333333;stroke-width:1;}#my-svg .transition{stroke:#333333;stroke-width:1;fill:none;}#my-svg .stateGroup .composit{fill:white;border-bottom:1px;}#my-svg .stateGroup .alt-composit{fill:#e0e0e0;border-bottom:1px;}#my-svg .state-note{stroke:#aaaa33;fill:#fff5ad;}#my-svg .state-note text{fill:black;stroke:none;font-size:10px;}#my-svg .stateLabel .box{stroke:none;stroke-width:0;fill:#ECECFF;opacity:0.5;}#my-svg .edgeLabel .label rect{fill:#ECECFF;opacity:0.5;}#my-svg .edgeLabel{background-color:rgba(232,232,232, 0.8);text-align:center;}#my-svg .edgeLabel p{background-color:rgba(232,232,232, 0.8);}#my-svg .edgeLabel rect{opacity:0.5;background-color:rgba(232,232,232, 0.8);fill:rgba(232,232,232, 0.8);}#my-svg .edgeLabel .label text{fill:#333;}#my-svg .label div .edgeLabel{color:#333;}#my-svg .stateLabel text{fill:#131300;font-size:10px;font-weight:bold;}#my-svg .node circle.state-start{fill:#333333;stroke:#333333;}#my-svg .node .fork-join{fill:#333333;stroke:#333333;}#my-svg .node circle.state-end{fill:#9370DB;stroke:white;stroke-width:1.5;}#my-svg .end-state-inner{fill:white;stroke-width:1.5;}#my-svg .node rect{fill:#ECECFF;stroke:#9370DB;stroke-width:1px;}#my-svg .node polygon{fill:#ECECFF;stroke:#9370DB;stroke-width:1px;}#my-svg #statediagram-barbEnd{fill:#333333;}#my-svg .statediagram-cluster rect{fill:#ECECFF;stroke:#9370DB;stroke-width:1px;}#my-svg .cluster-label,#my-svg .nodeLabel{color:#131300;}#my-svg .statediagram-cluster rect.outer{rx:5px;ry:5px;}#my-svg .statediagram-state .divider{stroke:#9370DB;}#my-svg .statediagram-state .title-state{rx:5px;ry:5px;}#my-svg .statediagram-cluster.statediagram-cluster .inner{fill:white;}#my-svg .statediagram-cluster.statediagram-cluster-alt .inner{fill:#f0f0f0;}#my-svg .statediagram-cluster .inner{rx:0;ry:0;}#my-svg .statediagram-state rect.basic{rx:5px;ry:5px;}#my-svg .statediagram-state rect.divider{stroke-dasharray:10,10;fill:#f0f0f0;}#my-svg .note-edge{stroke-dasharray:5;}#my-svg .statediagram-note rect{fill:#fff5ad;stroke:#aaaa33;stroke-width:1px;rx:0;ry:0;}#my-svg .statediagram-note rect{fill:#fff5ad;stroke:#aaaa33;stroke-width:1px;rx:0;ry:0;}#my-svg .statediagram-note text{fill:black;}#my-svg .statediagram-note .nodeLabel{color:black;}#my-svg .statediagram .edgeLabel{color:red;}#my-svg #dependencyStart,#my-svg #dependencyEnd{fill:#333333;stroke:#333333;stroke-width:1;}#my-svg .statediagramTitleText{text-anchor:middle;font-size:18px;fill:#333;}#my-svg :root{--mermaid-font-family:"trebuchet ms",verdana,arial,sans-serif;}</style><g><defs><marker orient="auto" markerUnits="userSpaceOnUse" markerHeight="14" markerWidth="20" refY="7" refX="19" id="my-svg_stateDiagram-barbEnd"><path d="M 19,7 L9,13 L14,7 L9,1 Z"/></marker></defs><g class="root"><g class="clusters"/><g class="edgePaths"><path marker-end="url(#my-svg_stateDiagram-barbEnd)" style="fill:none;" class="edge-thickness-normal edge-pattern-solid transition" id="edge0" d="M237,22L237,26.167C237,30.333,237,38.667,237,47C237,55.333,237,63.667,237,67.833L237,72"/><path marker-end="url(#my-svg_stateDiagram-barbEnd)" style="fill:none;" class="edge-thickness-normal edge-pattern-solid transition" id="edge1" d="M269,96.549L304.521,104.375C340.042,112.2,411.083,127.85,446.604,141.758C482.125,155.667,482.125,167.833,482.125,173.917L482.125,180"/><path marker-end="url(#my-svg_stateDiagram-barbEnd)" style="fill:none;" class="edge-thickness-normal edge-pattern-solid transition" id="edge2" d="M482.125,215L482.125,221.083C482.125,227.167,482.125,239.333,482.125,251.5C482.125,263.667,482.125,275.833,482.125,281.917L482.125,288"/><path marker-end="url(#my-svg_stateDiagram-barbEnd)" style="fill:none;" class="edge-thickness-normal edge-pattern-solid transition" id="edge3" d="M450.125,203.081L403.854,211.151C357.583,219.221,265.042,235.36,215.729,249.513C166.417,263.667,160.333,275.833,157.292,281.917L154.25,288"/><path marker-end="url(#my-svg_stateDiagram-barbEnd)" style="fill:none;" class="edge-thickness-normal edge-pattern-solid transition" id="edge4" d="M136.75,288L133.708,281.917C130.667,275.833,124.583,263.667,121.542,248.583C118.5,233.5,118.5,215.5,118.5,197.5C118.5,179.5,118.5,161.5,132.917,145.93C147.333,130.361,176.167,117.222,190.583,110.652L205,104.082"/><path marker-end="url(#my-svg_stateDiagram-barbEnd)" style="fill:none;" class="edge-thickness-normal edge-pattern-solid transition" id="edge5" d="M145.5,323L145.5,329.083C145.5,335.167,145.5,347.333,141.275,359.5C137.051,371.667,128.602,383.833,124.377,389.917L120.153,396"/><path marker-end="url(#my-svg_stateDiagram-barbEnd)" style="fill:none;" class="edge-thickness-normal edge-pattern-solid transition" id="edge6" d="M453.262,323L443.229,329.083C433.196,335.167,413.129,347.333,398.139,359.5C383.149,371.667,373.235,383.833,368.279,389.917L363.322,396"/><path marker-end="url(#my-svg_stateDiagram-barbEnd)" style="fill:none;" class="edge-thickness-normal edge-pattern-solid transition" id="edge7" d="M334.803,396L329.846,389.917C324.89,383.833,314.976,371.667,334.196,358.21C353.417,344.753,401.771,330.006,425.948,322.633L450.125,315.259"/><path marker-end="url(#my-svg_stateDiagram-barbEnd)" style="fill:none;" class="edge-thickness-normal edge-pattern-solid transition" id="edge8" d="M514.125,312.2L551.776,320.083C589.427,327.967,664.729,343.733,696.08,357.7C727.432,371.667,714.832,383.833,708.532,389.917L702.232,396"/><path marker-end="url(#my-svg_stateDiagram-barbEnd)" style="fill:none;" class="edge-thickness-normal edge-pattern-solid transition" id="edge9" d="M663.394,396L656.193,389.917C648.992,383.833,634.59,371.667,609.711,358.669C584.833,345.672,549.479,331.844,531.802,324.93L514.125,318.016"/><path marker-end="url(#my-svg_stateDiagram-barbEnd)" style="fill:none;" class="edge-thickness-normal edge-pattern-solid transition" id="edge10" d="M684.109,431L684.109,437.083C684.109,443.167,684.109,455.333,679.033,467.5C673.956,479.667,663.803,491.833,658.727,497.917L653.65,504"/><path marker-end="url(#my-svg_stateDiagram-barbEnd)" style="fill:none;" class="edge-thickness-normal edge-pattern-solid transition" id="edge11" d="M482.125,323L482.125,329.083C482.125,335.167,482.125,347.333,482.125,362.417C482.125,377.5,482.125,395.5,482.125,413.5C482.125,431.5,482.125,449.5,467.135,464.583C452.145,479.667,422.165,491.833,407.175,497.917L392.185,504"/><path marker-end="url(#my-svg_stateDiagram-barbEnd)" style="fill:none;" class="edge-thickness-normal edge-pattern-solid transition" id="edge12" d="M349.063,431L349.063,437.083C349.063,443.167,349.063,455.333,349.063,467.5C349.063,479.667,349.063,491.833,349.063,497.917L349.063,504"/><path marker-end="url(#my-svg_stateDiagram-barbEnd)" style="fill:none;" class="edge-thickness-normal edge-pattern-solid transition" id="edge13" d="M610.878,504L601.086,497.917C591.293,491.833,571.709,479.667,561.917,464.583C552.125,449.5,552.125,431.5,552.125,413.5C552.125,395.5,552.125,377.5,552.125,359.5C552.125,341.5,552.125,323.5,552.125,305.5C552.125,287.5,552.125,269.5,552.125,251.5C552.125,233.5,552.125,215.5,552.125,197.5C552.125,179.5,552.125,161.5,504.938,144.414C457.75,127.328,363.375,111.156,316.188,103.07L269,94.984"/><path marker-end="url(#my-svg_stateDiagram-barbEnd)" style="fill:none;" class="edge-thickness-normal edge-pattern-solid transition" id="edge14" d="M312.746,504L300.122,497.917C287.497,491.833,262.249,479.667,249.624,464.583C237,449.5,237,431.5,237,413.5C237,395.5,237,377.5,237,359.5C237,341.5,237,323.5,237,305.5C237,287.5,237,269.5,237,251.5C237,233.5,237,215.5,237,197.5C237,179.5,237,161.5,237,146.417C237,131.333,237,119.167,237,113.083L237,107"/><path marker-end="url(#my-svg_stateDiagram-barbEnd)" style="fill:none;" class="edge-thickness-normal edge-pattern-solid transition" id="edge15" d="M89.204,396L82.67,389.917C76.136,383.833,63.068,371.667,56.534,356.583C50,341.5,50,323.5,50,305.5C50,287.5,50,269.5,50,251.5C50,233.5,50,215.5,50,197.5C50,179.5,50,161.5,75.833,145.04C101.667,128.58,153.333,113.66,179.167,106.201L205,98.741"/></g><g class="edgeLabels"><g><rect style="stroke: none" class="background"/></g><g><rect style="stroke: none" class="background"/></g><g><rect style="stroke: none" class="background"/></g><g class="edgeLabel"><g transform="translate(0, 0)" class="label"><text y="-10.1"><tspan dy="1.1em" y="-0.1em" x="0" class="text-outer-tspan"/></text></g></g><g transform="translate(482.125, 143.5)" class="edgeLabel"><g transform="translate(-50, -11.5)" class="label"><g><rect height="23" width="100" y="-1" x="-2" style="" class="background"/><text style="" y="-10.1"><tspan dy="1.1em" y="-0.1em" x="0" class="text-outer-tspan"><tspan font-weight="normal" class="text-inner-tspan" font-style="normal">ログイン試行</tspan></tspan></text></g></g></g><g transform="translate(482.125, 251.5)" class="edgeLabel"><g transform="translate(-34, -11.5)" class="label"><g><rect height="23" width="68" y="-1" x="-2" style="" class="background"/><text style="" y="-10.1"><tspan dy="1.1em" y="-0.1em" x="0" class="text-outer-tspan"><tspan font-weight="normal" class="text-inner-tspan" font-style="normal">認証成功</tspan></tspan></text></g></g></g><g transform="translate(172.5, 251.5)" class="edgeLabel"><g transform="translate(-34, -11.5)" class="label"><g><rect height="23" width="68" y="-1" x="-2" style="" class="background"/><text style="" y="-10.1"><tspan dy="1.1em" y="-0.1em" x="0" class="text-outer-tspan"><tspan font-weight="normal" class="text-inner-tspan" font-style="normal">認証失敗</tspan></tspan></text></g></g></g><g transform="translate(118.5, 197.5)" class="edgeLabel"><g transform="translate(-34, -11.5)" class="label"><g><rect height="23" width="68" y="-1" x="-2" style="" class="background"/><text style="" y="-10.1"><tspan dy="1.1em" y="-0.1em" x="0" class="text-outer-tspan"><tspan font-weight="normal" class="text-inner-tspan" font-style="normal">リトライ</tspan></tspan></text></g></g></g><g transform="translate(145.5, 359.5)" class="edgeLabel"><g transform="translate(-50, -11.5)" class="label"><g><rect height="23" width="100" y="-1" x="-2" style="" class="background"/><text style="" y="-10.1"><tspan dy="1.1em" y="-0.1em" x="0" class="text-outer-tspan"><tspan font-weight="normal" class="text-inner-tspan" font-style="normal">試行回数超過</tspan></tspan></text></g></g></g><g transform="translate(393.0625, 359.5)" class="edgeLabel"><g transform="translate(-34, -11.5)" class="label"><g><rect height="23" width="68" y="-1" x="-2" style="" class="background"/><text style="" y="-10.1"><tspan dy="1.1em" y="-0.1em" x="0" class="text-outer-tspan"><tspan font-weight="normal" class="text-inner-tspan" font-style="normal">操作実行</tspan></tspan></text></g></g></g><g transform="translate(305.0625, 359.5)" class="edgeLabel"><g transform="translate(-34, -11.5)" class="label"><g><rect height="23" width="68" y="-1" x="-2" style="" class="background"/><text style="" y="-10.1"><tspan dy="1.1em" y="-0.1em" x="0" class="text-outer-tspan"><tspan font-weight="normal" class="text-inner-tspan" font-style="normal">操作完了</tspan></tspan></text></g></g></g><g transform="translate(740.03125, 359.5)" class="edgeLabel"><g transform="translate(-65.84375, -11.5)" class="label"><g><rect height="23" width="131.6875" y="-1" x="-2" style="" class="background"/><text style="" y="-10.1"><tspan dy="1.1em" y="-0.1em" x="0" class="text-outer-tspan"><tspan font-weight="normal" class="text-inner-tspan" font-style="normal">タイムアウト警告</tspan></tspan></text></g></g></g><g transform="translate(620.1875, 359.5)" class="edgeLabel"><g transform="translate(-34, -11.5)" class="label"><g><rect height="23" width="68" y="-1" x="-2" style="" class="background"/><text style="" y="-10.1"><tspan dy="1.1em" y="-0.1em" x="0" class="text-outer-tspan"><tspan font-weight="normal" class="text-inner-tspan" font-style="normal">操作再開</tspan></tspan></text></g></g></g><g transform="translate(684.109375, 467.5)" class="edgeLabel"><g transform="translate(-49.84375, -11.5)" class="label"><g><rect height="23" width="99.6875" y="-1" x="-2" style="" class="background"/><text style="" y="-10.1"><tspan dy="1.1em" y="-0.1em" x="0" class="text-outer-tspan"><tspan font-weight="normal" class="text-inner-tspan" font-style="normal">タイムアウト</tspan></tspan></text></g></g></g><g transform="translate(482.125, 413.5)" class="edgeLabel"><g transform="translate(-42, -11.5)" class="label"><g><rect height="23" width="84" y="-1" x="-2" style="" class="background"/><text style="" y="-10.1"><tspan dy="1.1em" y="-0.1em" x="0" class="text-outer-tspan"><tspan font-weight="normal" class="text-inner-tspan" font-style="normal">ログアウト</tspan></tspan></text></g></g></g><g transform="translate(349.0625, 467.5)" class="edgeLabel"><g transform="translate(-42, -11.5)" class="label"><g><rect height="23" width="84" y="-1" x="-2" style="" class="background"/><text style="" y="-10.1"><tspan dy="1.1em" y="-0.1em" x="0" class="text-outer-tspan"><tspan font-weight="normal" class="text-inner-tspan" font-style="normal">ログアウト</tspan></tspan></text></g></g></g><g class="edgeLabel"><g transform="translate(0, 0)" class="label"><text y="-10.1"><tspan dy="1.1em" y="-0.1em" x="0" class="text-outer-tspan"/></text></g></g><g class="edgeLabel"><g transform="translate(0, 0)" class="label"><text y="-10.1"><tspan dy="1.1em" y="-0.1em" x="0" class="text-outer-tspan"/></text></g></g><g transform="translate(50, 251.5)" class="edgeLabel"><g transform="translate(-42, -11.5)" class="label"><g><rect height="23" width="84" y="-1" x="-2" style="" class="background"/><text style="" y="-10.1"><tspan dy="1.1em" y="-0.1em" x="0" class="text-outer-tspan"><tspan font-weight="normal" class="text-inner-tspan" font-style="normal">ロック解除</tspan></tspan></text></g></g></g></g><g class="nodes"><g transform="translate(237, 15)" id="state-root_start-0" class="node default"><circle height="14" width="14" r="7" class="state-start"/></g><g transform="translate(237, 89.5)" id="state-未認証-15" class="node  statediagram-state"><rect height="35" width="64" y="-17.5" x="-32" ry="5" rx="5" style="" class="basic label-container"/><g transform="translate(-24, -9.5)" style="" class="label"><rect/><g><rect style="stroke: none" class="background"/><text style="" y="-10.1"><tspan dy="1.1em" y="-0.1em" x="0" class="text-outer-tspan"><tspan font-weight="normal" class="text-inner-tspan" font-style="normal">未認証</tspan></tspan></text></g></g></g><g transform="translate(482.125, 197.5)" id="state-認証中-3" class="node  statediagram-state"><rect height="35" width="64" y="-17.5" x="-32" ry="5" rx="5" style="" class="basic label-container"/><g transform="translate(-24, -9.5)" style="" class="label"><rect/><g><rect style="stroke: none" class="background"/><text style="" y="-10.1"><tspan dy="1.1em" y="-0.1em" x="0" class="text-outer-tspan"><tspan font-weight="normal" class="text-inner-tspan" font-style="normal">認証中</tspan></tspan></text></g></g></g><g transform="translate(482.125, 305.5)" id="state-認証済-11" class="node  statediagram-state"><rect height="35" width="64" y="-17.5" x="-32" ry="5" rx="5" style="" class="basic label-container"/><g transform="translate(-24, -9.5)" style="" class="label"><rect/><g><rect style="stroke: none" class="background"/><text style="" y="-10.1"><tspan dy="1.1em" y="-0.1em" x="0" class="text-outer-tspan"><tspan font-weight="normal" class="text-inner-tspan" font-style="normal">認証済</tspan></tspan></text></g></g></g><g transform="translate(145.5, 305.5)" id="state-認証失敗-5" class="node  statediagram-state"><rect height="35" width="80" y="-17.5" x="-40" ry="5" rx="5" style="" class="basic label-container"/><g transform="translate(-32, -9.5)" style="" class="label"><rect/><g><rect style="stroke: none" class="background"/><text style="" y="-10.1"><tspan dy="1.1em" y="-0.1em" x="0" class="text-outer-tspan"><tspan font-weight="normal" class="text-inner-tspan" font-style="normal">認証失敗</tspan></tspan></text></g></g></g><g transform="translate(108, 413.5)" id="state-ロック-15" class="node  statediagram-state"><rect height="35" width="64" y="-17.5" x="-32" ry="5" rx="5" style="" class="basic label-container"/><g transform="translate(-24, -9.5)" style="" class="label"><rect/><g><rect style="stroke: none" class="background"/><text style="" y="-10.1"><tspan dy="1.1em" y="-0.1em" x="0" class="text-outer-tspan"><tspan font-weight="normal" class="text-inner-tspan" font-style="normal">ロック</tspan></tspan></text></g></g></g><g transform="translate(349.0625, 413.5)" id="state-アクティブ-12" class="node  statediagram-state"><rect height="35" width="94.25" y="-17.5" x="-47.125" ry="5" rx="5" style="" class="basic label-container"/><g transform="translate(-39.125, -9.5)" style="" class="label"><rect/><g><rect style="stroke: none" class="background"/><text style="" y="-10.1"><tspan dy="1.1em" y="-0.1em" x="0" class="text-outer-tspan"><tspan font-weight="normal" class="text-inner-tspan" font-style="normal">アクティブ</tspan></tspan></text></g></g></g><g transform="translate(684.109375, 413.5)" id="state-非アクティブ-10" class="node  statediagram-state"><rect height="35" width="110.25" y="-17.5" x="-55.125" ry="5" rx="5" style="" class="basic label-container"/><g transform="translate(-47.125, -9.5)" style="" class="label"><rect/><g><rect style="stroke: none" class="background"/><text style="" y="-10.1"><tspan dy="1.1em" y="-0.1em" x="0" class="text-outer-tspan"><tspan font-weight="normal" class="text-inner-tspan" font-style="normal">非アクティブ</tspan></tspan></text></g></g></g><g transform="translate(639.046875, 521.5)" id="state-期限切れ-13" class="node  statediagram-state"><rect height="35" width="80" y="-17.5" x="-40" ry="5" rx="5" style="" class="basic label-container"/><g transform="translate(-32, -9.5)" style="" class="label"><rect/><g><rect style="stroke: none" class="background"/><text style="" y="-10.1"><tspan dy="1.1em" y="-0.1em" x="0" class="text-outer-tspan"><tspan font-weight="normal" class="text-inner-tspan" font-style="normal">期限切れ</tspan></tspan></text></g></g></g><g transform="translate(349.0625, 521.5)" id="state-ログアウト-14" class="node  statediagram-state"><rect height="35" width="96" y="-17.5" x="-48" ry="5" rx="5" style="" class="basic label-container"/><g transform="translate(-40, -9.5)" style="" class="label"><rect/><g><rect style="stroke: none" class="background"/><text style="" y="-10.1"><tspan dy="1.1em" y="-0.1em" x="0" class="text-outer-tspan"><tspan font-weight="normal" class="text-inner-tspan" font-style="normal">ログアウト</tspan></tspan></text></g></g></g></g></g></g></svg>